<svg id="Camada_1" data-name="Camada 1" xmlns="http://www.w3.org/2000/svg" viewBox="0 0 1080 1080"><defs><style>.cls-1{fill:#fff;}</style></defs><path class="cls-1" d="M559.46,534.6a4.91,4.91,0,0,0-4.92,4.91v6.55h9.83v-6.55A4.91,4.91,0,0,0,559.46,534.6Z"/><path class="cls-1" d="M579.11,534.6a4.91,4.91,0,0,0-4.91,4.91v6.55H584v-6.55A4.91,4.91,0,0,0,579.11,534.6Z"/><path class="cls-1" d="M598.76,534.6a4.91,4.91,0,0,0-4.91,4.91v6.55h9.83v-6.55A4.91,4.91,0,0,0,598.76,534.6Z"/><path class="cls-1" d="M618.42,534.6a4.91,4.91,0,0,0-4.91,4.91v6.55h9.82v-6.55A4.91,4.91,0,0,0,618.42,534.6Z"/><path class="cls-1" d="M584,572.27a4.91,4.91,0,1,0-9.82,0v6.55H584Z"/><path class="cls-1" d="M603.68,572.27a4.92,4.92,0,1,0-9.83,0v6.55h9.83Z"/><path class="cls-1" d="M623.33,572.27a4.91,4.91,0,1,0-9.82,0v6.55h9.82Z"/><path class="cls-1" d="M643,572.27a4.92,4.92,0,1,0-9.83,0v6.55H643Z"/><path class="cls-1" d="M447.29,479.28V475.2a5.22,5.22,0,0,0-10.44,0v7h10.44Z"/><path class="cls-1" d="M447.29,494.42a5.22,5.22,0,1,0-10.44,0v7h10.44Z"/><path class="cls-1" d="M505.21,480.17a5.22,5.22,0,0,0-5.22,5.22v7h10.44v-7A5.21,5.21,0,0,0,505.21,480.17Z"/><path class="cls-1" d="M505.21,497.6a5.22,5.22,0,0,0-5.22,5.22v7h10.44v-7A5.22,5.22,0,0,0,505.21,497.6Z"/><path class="cls-1" d="M447.29,513.63a5.22,5.22,0,0,0-10.44,0v7h10.44Z"/><path class="cls-1" d="M647.6,456.76l16-27.12L656,425.16l-5.4,9.18a62.65,62.65,0,0,0-7.91-6.37l4.85-8.27-7.62-4.47L635,423.52c-.51-.25-6.42-2.79-8.94-3.59l4.4-7.75-7.68-4.35-5.65,10a64.18,64.18,0,0,0-6.38-.73V397.21h7.77v-8.83h-7.77v-8.9h-8.83v8.9h-7.78v8.83h7.78v19.86q-3.21.21-6.33.7L590,407.83l-7.69,4.35,4.34,7.69a61.79,61.79,0,0,0-8.84,3.5l-4.29-7.44-7.64,4.41,4.3,7.46a62.91,62.91,0,0,0-8,6.45l-2.73-4.64-.64-1.11h0l-2-3.44-2.89,1.7a32.45,32.45,0,0,0-.69-4.9q-1.91-8.81-8.66-18.36A96.85,96.85,0,0,0,536,393.17q-2.64-2.82-5.67-5.68A175.52,175.52,0,0,0,512.75,373,7.92,7.92,0,0,0,508,363.2V345.31h-5.61V363.2a7.92,7.92,0,0,0-4.73,9.79,175.52,175.52,0,0,0-17.58,14.5,122.52,122.52,0,0,0-9.32,9.75l0,0a32.59,32.59,0,0,0-3.15,3.18c-.61-.69-1.23-1.38-1.88-2.08h0a131.44,131.44,0,0,0-18.66-16.13c0-.23,0-.45,0-.68a6.15,6.15,0,0,0-3.05-5.31l-.3-.16V362.39h-5.61v13.69l-.3.16a6.15,6.15,0,0,0-3.05,5.31,5.17,5.17,0,0,0,0,.68,140.2,140.2,0,0,0-14.2,11.65,92.72,92.72,0,0,0-9.4,10.22c-6.06,7.8-9.19,15.22-9.32,22.16-.14,7.35,3,13.81,9.32,19.23.5.43,1,.84,1.54,1.26v2.39a14.08,14.08,0,0,0,7,12.18v69.43h-8.57V480.32a138.51,138.51,0,0,0-10,51.95q0,4.26.25,8.49A138.74,138.74,0,0,0,405.6,567q1.66,6.5,4,12.85,1.21,3.35,2.61,6.65a140.18,140.18,0,0,0,54.1,63.69q4.84,3.06,9.95,5.72,5,2.58,10.14,4.77c2,.84,4,1.62,6,2.37a140,140,0,0,0,96.58,0c2-.75,4-1.53,6-2.37q5.19-2.19,10.14-4.77,5.1-2.66,10-5.72a140.25,140.25,0,0,0,50.89-56.66q1.7-3.46,3.21-7A137.83,137.83,0,0,0,679,549.26q.51-4.23.77-8.5t.25-8.49v-14h0Zm-11.91,84a80.58,80.58,0,0,0,8.59,8.64c.65.55,1.3,1.07,2,1.58H548.15c0-.17-.11-.34-.16-.5V528.05h77.77l2,2.7C630.3,534.17,632.92,537.56,635.69,540.76Zm26.95,34.64v-3.13a4.92,4.92,0,1,0-9.83,0v6.55h8.56q-1,2.48-2,4.91H565.93a24.94,24.94,0,0,1-5.07-4.91h3.51v-6.55a4.91,4.91,0,0,0-9.08-2.61c-1.35-2.78-2.58-5.77-3.74-8.86H666.86A125.46,125.46,0,0,1,662.64,575.4ZM426.86,453.21a3.93,3.93,0,0,1-1-.12,4.07,4.07,0,0,1-3.09-3.95v-2.76H461v2.76a4.08,4.08,0,0,1-4.08,4.07H426.86Zm-7.28-43.52c1.39-1.74,2.9-3.44,4.47-5.09l1.38-1.42,29.94,35.64H440.72l-22-28Zm109.72-9c.79.85,1.56,1.71,2.29,2.55a75.84,75.84,0,0,1,6.54,8.72c-3.44,6.84-9.9,10.58-35.43,8.73-17.68-1.29-27.06,4.7-31.82,9.94a25.9,25.9,0,0,0-3.22,4.39,17.52,17.52,0,0,1-1.18-6.71c0-.11,0-.21,0-.32a23.26,23.26,0,0,1,.95-5.69,34.58,34.58,0,0,1,2-5.24,55.94,55.94,0,0,1,6-9.6c4.55-2,10.39-2.76,17.37-2.25C511,406.5,522,405.26,529.3,400.66Zm23.55,35.8,12.31,20.29h0L550,485.46H538.16v32.76h-3.4a20.73,20.73,0,0,0-5.23-5V474.07a14.1,14.1,0,0,0,12.86-14v-8.3a32.74,32.74,0,0,0,10-13.86C552.56,437.42,552.71,436.94,552.85,436.46Zm-68.33,27.66a4.08,4.08,0,0,1-4.08-4.07v-4.43h51.94v4.43a4.07,4.07,0,0,1-4.07,4.07ZM543,422.31a22.8,22.8,0,0,1,1,6c.1,5.24-2,9.92-6.23,14.19a35.11,35.11,0,0,1-3.65,3.15H476.37l-.14-.11c-.56-.43-1.1-.86-1.62-1.3a15.84,15.84,0,0,1,4-7.25c4.73-4.9,12.8-7.09,23.35-6.32,15.81,1.14,26,.3,33-2.73A23.17,23.17,0,0,0,543,422.31Zm25.13,73h14.27a34.47,34.47,0,0,1,5.85.48c10.15,1.71,17.83,7.84,24.77,15.74,1.86,2.13,3.67,4.38,5.46,6.71H548V495.29h20.13Zm57.58,16.22a96.6,96.6,0,0,0-13.49-14.64q-1.34-1.14-2.7-2.16a48,48,0,0,0-9.85-5.77l4.66-8c.74-1.28,1.42-2.58,2-3.91.62,1.33,1.3,2.65,2,3.93l19.72,33.72C627.33,513.63,626.52,512.56,625.7,511.51ZM464,461.31a14.14,14.14,0,0,0,6.3-7.76l.16.12v6.38a14.09,14.09,0,0,0,10.46,13.6v57.1H464Zm27.94,79.45c-1.56,5-2.66,10-3.64,14.54-1.16,5.29-2.25,10.28-3.68,13.4-1.2,2.58-1.89,2.51-2.27,2.47-3-.3-4.71-5.45-7-13.29-1.66-5.64-3.54-12-7-17.12Zm4.58-11.35c-.23.44-.46.89-.68,1.34h-5.44c.17-.35.35-.7.53-1V474.13h28.61V511a20.07,20.07,0,0,0-5.59,1.55C505.65,516.08,500.24,522.3,496.5,529.41ZM638.17,435.6a54.94,54.94,0,0,1,7.76,6.58h0l-8.39,14.27,32.53,61.77H659.71l-26.1-49.29a27.22,27.22,0,0,1,.45-26.31Zm-16.55-7.8a54.76,54.76,0,0,1,8.93,3.35l-4.12,7a36,36,0,0,0-.62,34.88l23.91,45.16h-9.31L616,476.52a38.52,38.52,0,0,1-.26-38.41Zm-15.27-2.05a58.47,58.47,0,0,1,6.1.32l-4.36,7.68c-.62,1.11-1.2,2.24-1.73,3.38-.52-1.13-1.09-2.25-1.71-3.34l-4.36-7.73A60.55,60.55,0,0,1,606.35,425.75Zm-15.24,2L597,438.13a38.57,38.57,0,0,1,5,18.92v.07a38.54,38.54,0,0,1-5.25,19.39l-5.7,9.76a43.71,43.71,0,0,0-5.41-.7c-.52,0-1-.06-1.56-.08s-1.09,0-1.63,0h-2L587,473.07a36,36,0,0,0-.62-34.89l-4.11-7.13A53.41,53.41,0,0,1,591.11,427.77Zm-16.5,7.7,4.11,7.12a27.24,27.24,0,0,1,.46,26.34l-8.78,16.53H559.93l15.3-29-8.44-14.34A54,54,0,0,1,574.61,435.47Zm-87.75-40.6a168.19,168.19,0,0,1,18.35-14.95,169.41,169.41,0,0,1,16.52,13.23l.12.11c-5,2.14-13.23,3-28.32,1.94a61.53,61.53,0,0,0-6.87-.14A1.8,1.8,0,0,1,486.86,394.87Zm-28.43,10.34q1.88,2,3.45,3.94A55.92,55.92,0,0,0,459,416q-.28.72-.54,1.44a37,37,0,0,0-1.73,7.21l0,.2-23.89-28.44c.74-.61,1.46-1.21,2.17-1.78,2.16-1.73,4.19-3.25,5.94-4.49a122.37,122.37,0,0,1,17.5,15.06m-46.51,21.25a17.27,17.27,0,0,1,.55-3.84,21.61,21.61,0,0,1,.83-2.55L428,438.82h-9.12a25.64,25.64,0,0,1-2.74-2.45A13.64,13.64,0,0,1,411.92,426.46Zm17.9,39.08v-2.32H454v67.53h-2.21a29.68,29.68,0,0,0-5,0h-17ZM540.64,661.66a128.6,128.6,0,0,1-54.84-12.2A157.25,157.25,0,0,0,498.54,639a160.3,160.3,0,0,0,11.39-11.48l9.57,7.51L530,626.79l10.52,8.26,10.52-8.26L561.56,635l9.7-7.6A160.9,160.9,0,0,0,582.74,639a157.25,157.25,0,0,0,12.74,10.44A128.6,128.6,0,0,1,540.64,661.66ZM516.4,619.89a176.42,176.42,0,0,0,11.19-15.76h26.1a176,176,0,0,0,11.11,15.65l-3.24,2.54-10.51-8.25-10.52,8.25L530,614.07l-10.51,8.26Zm89.05,24.34a155.09,155.09,0,0,1-44.71-47.71l-1.46-2.4H522l-1.46,2.4a155.09,155.09,0,0,1-44.71,47.71,130,130,0,0,1-59.55-76.18c5.68-11.08,16-25.84,31-27.29h4.06a11.35,11.35,0,0,1,8.2,4.82c2.9,3.88,4.58,9.6,6.21,15.13,1.34,4.54,2.61,8.83,4.57,12.38,2.7,4.87,6.41,7.57,11.05,8,3.72.38,8.9-.75,12.35-8.24,1.9-4.1,3.05-9.36,4.38-15.46a138.56,138.56,0,0,1,4.37-16.67,43.79,43.79,0,0,1,4.85-10,24.33,24.33,0,0,1,10.62-9.06c3-1.27,4.54-.85,5.49-.42,2.64,1.2,5,4.75,7.09,9.48,1.34,3,2.61,6.4,3.83,10,.93,2.73,1.84,5.56,2.74,8.37.19.61.39,1.23.59,1.85,2.89,9,6,18.44,10.35,26.39a56.65,56.65,0,0,0,4,6.36,33.35,33.35,0,0,0,10.74,9.83,26.55,26.55,0,0,0,7,2.65c8,1.78,16,3.26,23.81,4.68,20,3.66,39,7.14,46.31,14.36A130.25,130.25,0,0,1,605.45,644.23ZM646,607.32c-7.8-6.94-21.33-10.59-37.29-13.76h45.88A129.82,129.82,0,0,1,646,607.32Zm22.75-56.75c-7.6-1.17-13.83-4.8-19.38-9.81a83.78,83.78,0,0,1-9.21-10c-.72-.89-1.42-1.79-2.13-2.7h31.17v19C669.06,548.25,668.91,549.41,668.74,550.57Z"/><path class="cls-1" d="M559.46,501.84a4.91,4.91,0,0,0-4.92,4.91v6.55h9.83v-6.55a4.84,4.84,0,0,0-.79-2.66A4.91,4.91,0,0,0,559.46,501.84Z"/><path class="cls-1" d="M584,511.51v-4.76a4.84,4.84,0,0,0-.71-2.53,4.9,4.9,0,0,0-9.11,2.53v6.55H584Z"/><path class="cls-1" d="M603.68,511.51v-4.76a4.92,4.92,0,0,0-9.83,0v6.55h9.83Z"/><path class="cls-1" d="M393.62,644.52a12.56,12.56,0,0,1-1.14-1.52,1.8,1.8,0,0,1,.22-2.52,36.93,36.93,0,0,1,3-2.43c.06,0,.33-.17.88-.42a1.47,1.47,0,0,1,1.38.2c.66.59,1,.89,1,.95l5.72,7.11.13.17c.89,1.44.85,2.22-.51,3.32L402.31,651c-1.69,1.27-2.47,1.24-3.8-.41Zm4.67-.47c-.17.13-.08.25.11.37s.36.09.37,0,.08-.25.06-.52C398.77,643.94,398.35,644,398.29,644.05Zm2.21,1.69c-.38-.35-.63-.43-.69-.39a.44.44,0,0,0-.2.45c.08.68.31,1,.63.9.1,0,.21-.08.28-.23C400.75,646.28,400.72,646,400.5,645.74Z"/><path class="cls-1" d="M415,662.13c.05-.15.15-.16.2-.11l.11.1c.17.25.38.35.58.23.34-.37.54-.59.59-.54.82-.14,2.15-.61,1.91-1.22-.16-.15-.65.29-1.14-.16a1.42,1.42,0,0,1-.23-1.79c.7-.45,1-1.18.5-1.53-.21-.09-.41.23-.69.86,0,.1-.15.16-.45.18a1.59,1.59,0,0,0-1,.4c-.59.54,0,1.4-.35,1.46-.4.33-1.81-.07-2,.66,0,.36.49.75.66,1-.05.06-.05.06,0,.11.19-.22.95.47.85.58-.18.63-1.21.67-1.53.48-.09.31-.14.47-.08.52a.14.14,0,0,0,.16.15.76.76,0,0,1,.46,1.11,6.07,6.07,0,0,1-1.45,2.24c-2,2.25-5,5.59-9,9.95-1.43,1.56-2.15,1.59-3.66.21l-3.12-2.86c-1.24-1.23-1.27-1.95-.09-3.25a20.61,20.61,0,0,1,2-2.2c.94-.92,1.53-1.57,1.83-1.89l16.22-17.71c1.08-1.19,2.71-3,4.78-5.33l4.83-5.27a7.43,7.43,0,0,1,1.14-1,2.84,2.84,0,0,1,3.84.35l8.29,7.59a9.23,9.23,0,0,1,3,6.54,9.61,9.61,0,0,1-2.18,6.91,76.89,76.89,0,0,1-5.52,6c-2.62,2.65-5.54,3.34-8.8,2-.79-.33-1.14,0-.94.82l.06.36c1.3,2.57.75,5.34-1.71,8.13-.78,1-3.25,3.66-7.34,8.13l-2.27,2.47c-1.18,1.19-1.85,1.27-3.14.19l-3-2.71a2.55,2.55,0,0,1-.12-4c3.4-3.72,6-6.57,7.79-8.4.45-.49,1.63-1.68,2.18-2.27a4.45,4.45,0,0,0,0-4.13c-.44-.5-.56-1-.37-1.33s1.41-.79,1.14-1.24a1.56,1.56,0,0,0-1.65.07c-.61.34-1.13.36-1.45,0C414.72,662.82,414.71,662.51,415,662.13Zm.36-1.15c.18.56-.23.58-.46.07a1.15,1.15,0,0,1,.19-.42C415.2,660.78,415.31,660.88,415.31,661Zm.87-6.24a.49.49,0,0,0-.56.18c-.25.27-.35.48-.18.63s.05.05.15.05a.34.34,0,0,1,.26,0c.68.12,1.09.1,1.24-.06S416.87,655.18,416.18,654.74Zm-.22,5.75c.18-.63.44-.59.47.13l.12.2c0,.31,0,.88-.61.34Zm2.32-4.81c.06.16.17.15.26,0a1.3,1.3,0,0,0,.08-.62l-.22-.2c-.2.12-.29.33-.22.69Zm-.1,10.5a.89.89,0,0,1,.22.3,2.66,2.66,0,0,0,.91-.35c.2-.22,1.23-.37,1.26-.73s-1.1-.42-1.56-.34C418.9,665.06,418.66,665.43,418.18,666.18Zm2.82-1.57c1.05.47,1.77.23,2.14-.72.09-.31,0-.41-.27-.35-.83.14-1.39.12-1.77-.23s-.45-.7-.15-1c.15-.16,1.25.26,1.48-.32.15-.26-.18-.77.07-.93s.83.06.93.06a7,7,0,0,0,5.24-2.92l3-3.28c2.32-2.63,2.4-4.24.23-6.62-.87-1-1.7-1.07-2.5-.31l-8.48,9.26a2.42,2.42,0,0,0-.16,3.21,2.93,2.93,0,0,0-.78,1.07c.21.2.18.56-.06,1.14A1.51,1.51,0,0,0,421,664.61Zm-.13,1.66c-.09.41.19.87.93,1.25l.41,0a3.31,3.31,0,0,0-.06-1.34.75.75,0,0,0-1-.37C421,665.8,420.91,666,420.87,666.27Zm4.57-4a.86.86,0,0,1,.12.41l.26-.06c.25-.17.35-.38-.07-.47Z"/><path class="cls-1" d="M440.3,682.38c.28.78.23,1.27-.19,1.26l-.17,0-.5.12c-.3.07-.44.15-.46.31,0,.37.22.48.64.49a2.92,2.92,0,0,0,1.17-.21,4.38,4.38,0,0,1,1,.1c.37.24.36.66,0,1.32s-1.11,1.89-2.05,3.37-1.64,2.59-2.05,3.37l-1.32,2.1c-.39.61-.22,1.16.52,1.62,1.34.76,3.31,2,6,3.69,2.22,1.41,2.32,2.07.94,4.4l-1.14,1.78c-1.15,1.69-2,1.87-3.79.8l-3.39-2.15-8.14-5.15c-2.41-1.52-2.77-3.13-1.32-5.42,2.42-3.82,4.21-6.66,5.48-8.53a8.84,8.84,0,0,1,1.34-1.57c0-.07.28-.17.32-.23a19.68,19.68,0,0,1,2.09-4.12q1.68-2.44,2.58-4.08c.17-.67.65-1.57,1.6-1.57.31-.07.38-.2.32-.5a3.25,3.25,0,0,1,.77-2.18c1.78-2.94,4.59-7.38,8.3-13.24,1.29-2,3-2.42,5-1.14l11.53,7.31c1.79,1.13,2,1.93.9,3.76l-1.48,2.35c-1,1.54-1.85,1.68-3.43.77a10.8,10.8,0,0,1-2.09-1.33l-2.1-1.33-.56-.35c-2.24-1.51-2.57-1.54-4.09.87-.47.74-1.17,1.85-2.21,3.35l-2.15,3.39c-.82,1.3-.75,1.6.49,2.38l5.05,3.2c1.49.94,1.69,1.85.71,3.39l-1,1.54-.75,1.17c-.92,1.32-2,1.61-3.26.79l-3.88-2.46c-.25-.16-1.2-.84-1.51-1-.86-.54-1.06-1.19-.63-1.87,0-.06-.2-.64,0-.79s.91-.2.95-.26c.27-.43-.07-1-.53-.68s-.92.11-1.07-.76c-.09-.4,1.37-.52,1.41-1.27.21-.74,1.2.15,1.63.43a.4.4,0,0,0,.47,0c.24-.11.22-.21,0-.33a1.51,1.51,0,0,0-.47-.21,1.23,1.23,0,0,1-.55-2c.35-.56,1.94-.76,1.17-1.59-.06,0,.29-.6.33-.92l-.12-1.46c0-.1-.08-.14-.27-.25l-.16.24c.45.8-.42,1-.69,1.38a4.82,4.82,0,0,0-.91,1.84c-.4,1-.94,1.48-1.45,1.33a.91.91,0,0,1-.56-.61,3.52,3.52,0,0,0-.48-.48c-.06,0-.44.16-.42.26,0,.42.19.8.13,1,0,.42-.1.71-.31.75s-.28-.09-.64-.49c-.12-.34-.29-.36-.4-.17a.26.26,0,0,0-.06.22,3.74,3.74,0,0,0,.21,1.86c.23,1.27-.47,1.69-2,1.24-.51-.15-.6.14-.35.82C438.69,683,439.83,681.22,440.3,682.38Zm-7.88,13.68h.16c.1,0,.17,0,.2,0,.18-.15,1.26.19,1.37-.52C433.16,694.89,433.16,694.89,432.42,696.06Zm1.66,1.74v-.26l-.49,0,0,.16,0,.1Zm0-9.74q-.74,1-.45,1.53c.2.38.88.12,1-.49,0-.06.2-.05.42,0h.26l.24-.11.25-.1c-.64-.23-.83-.61-.56-1C435,687.59,434.27,687.81,434.11,688.06Zm2.37-3.6c-.23.37.35.13.55.08.4-.09.35.14.78.41.22.06.3-.07.15-.25a1.23,1.23,0,0,0-1-.46A1.08,1.08,0,0,0,436.48,684.46Zm4.89-3c.19.12.37.24.47.22a.56.56,0,0,1,0,1.11l-.08.12c0,.1.08.14,0,.17a.26.26,0,0,1-.31.23c-.25-.16-.34-.3-.26-.42A3.59,3.59,0,0,1,441.37,681.5Zm.89-2.63a5.53,5.53,0,0,1,.41-.78l.3-.07,0,.1-.26,1a2,2,0,0,1-.46.32c-.22-.06-.2-.22-.09-.41Zm1.69-7.31a2.13,2.13,0,0,0-.81-.08l0,.16c0,.1,0,.16.05.2.32,0,.54.51,1.12.28Zm3.29-1.64a1.35,1.35,0,0,1,.43-.41c.12-.19.07-.65.11-.72-.23,0-.53,0-.59,0Zm.86-4.37c.18-.15.37,0,.66.32.15.18.21.22.32,0l.12-.19a6,6,0,0,0-.25-1.37,1.11,1.11,0,0,0-1.48.28C447.87,665.23,448.1,665.55,448.1,665.55Zm.2,14.29-.38.19a.72.72,0,0,0,.3.62c0-.06.28-.17.32-.23C448.85,679.93,448.35,680,448.3,679.84Zm3.43-15.11c.13-.35,0-.59-.24-.58,0,.06,0,.06-.1,0l-.14.09-.05.22c-.16.25-.1.29.25.42Zm1.2.42c.07,0,.11,0,.21,0a1.48,1.48,0,0,1,.32-.23c.1,0,.1,0,.07-.12-.38-.07-.51-.41-.32-1,.15-.24.07-.38-.22-.48s-.3.07-.23.37.13.61.09.67C452.68,664.73,452.75,665,452.93,665.15Z"/><path class="cls-1" d="M470.36,671.43c.92-2.23,2.6-2.88,5-1.91l9.38,3.86c3.58,1.47,5.63,4,6.06,7.54a14.55,14.55,0,0,1-.83,6.06c-.85,2.25-1.5,4-2,5.16a64.78,64.78,0,0,1-3.06,6.47c-2.89,4.73-7.9,6.54-13,4.37l-2.23-.92c-1.53-.71-1.91-.55-2.55,1-2.19,5.33-3.83,9.32-4.84,12l-.47,1.14a1.66,1.66,0,0,1-2.36.93L454.33,715q-1.62-.67-.87-2.49l2.66-6.48,3-7.3,2.94-7.15Zm-7.55,29.89a1.44,1.44,0,0,0,.53-.34l-.08-.19a4.7,4.7,0,0,1-.58.08Zm1.31-2.23c0,.07.21.64.31.6l1-.23-.06-.42c-.12-.29-.2-.48-.43-.49S464.31,698.62,464.12,699.09Zm.31-3.82c-.4.39-.36.88-.06,1.48,0,.1.3,0,.33,0,.08-.21-.05-.65,0-.72a1.47,1.47,0,0,1,.3-.75A.58.58,0,0,0,464.43,695.27Zm2-3.29a4,4,0,0,0-.44.3.52.52,0,0,0,.22.24.83.83,0,0,1,.42-.06Zm1.31,3.15c.4,0,.61.25.48.75a20.64,20.64,0,0,0-1.42,1.94,1.5,1.5,0,0,0,.29,1.38c.31.21.79,0,1.38-.46a4.16,4.16,0,0,0,1.12-1.19c.18-.25.26-.45.09-.6-.19-.31-.08-.58.32-1a2.1,2.1,0,0,1,2.4-.28,2.11,2.11,0,0,0,2.17.1A13,13,0,0,0,477,694a37.08,37.08,0,0,0,4.5-10.54l.05-.14v-.16a4.11,4.11,0,0,0-1.6-4c-1.7-1.25-2.61-1.15-3.39.74-.42.85-.95,2.13-1.61,3.91a36.46,36.46,0,0,1-1.58,3.85c-.44,1.08-1.17,4-2.5,4.74-.09,0-.11.27-.18.63,0,1.64-.88,2.72-1.76,2.36-.41-.33.34-.81.59-1.42a6.76,6.76,0,0,0,0-1.41,1.29,1.29,0,0,0-.71-.37c-.16,0-.29.12-.43.45s-.35,1.83-.77,1.9-1-.1-1.28,0-.18.25,0,.4.74.7,1.23.27Zm4.68,3a.14.14,0,0,0,.08-.21.26.26,0,0,1,0-.23c-.3,0-1-.09-1.06-.12l-.52.11c-.56.79-.68.51.11,1.46A5.72,5.72,0,0,0,472.4,698.16ZM471.88,681a3,3,0,0,0,.35.7c.48-.2.5-.27.39-.95Zm2.19-2.81c.09,0,.11-.27.05-.53,0,.07-.38.16-.53.34a4.63,4.63,0,0,1-.18.63A2.11,2.11,0,0,0,474.07,678.16Zm-.33,19.6a3.39,3.39,0,0,0,.48-.59c.1,0,0-.16-.18-.31C473.61,697.31,473.58,697.38,473.74,697.76Zm.45-18c.27.11.27-.28.65-.44.1,0-.12-.29-.19-.32-.33-.13-.55,0-.65.45Zm6.38,14.62a2.37,2.37,0,0,0-.4-1.35l-.3.75.29.43Z"/><path class="cls-1" d="M500.39,708.07c0-.16.05-.22.12-.2l.14,0c.27.13.5.1.62-.1.1-.5.16-.79.23-.77.63-.54,1.52-1.63,1-2-.22,0-.42.58-1.06.45s-1.28-1.07-1.13-1.42c.37-.74.23-1.52-.35-1.56-.23,0-.23.4-.15,1.09.06.08,0,.21-.3.38a1.58,1.58,0,0,0-.62.85c-.23.77.73,1.19.45,1.43-.17.49-1.59.87-1.36,1.58.16.34.81.39,1.09.52,0,.07,0,.07.05.09.06-.29,1.06-.08,1,.06.17.63-.69,1.2-1.06,1.2.08.31.13.47.2.49a.13.13,0,0,0,.21,0c.55-.11.86.17,1,.72a6.15,6.15,0,0,1-.1,2.66c-.52,2.95-1.42,7.39-2.6,13.18-.42,2.08-1,2.48-3,2.07l-4.15-.84c-1.7-.42-2.1-1-1.75-2.74a19.59,19.59,0,0,1,.6-2.94c.33-1.27.5-2.13.59-2.56l4.78-23.54c.32-1.57.8-3.93,1.35-7l1.42-7a8.81,8.81,0,0,1,.45-1.47,2.84,2.84,0,0,1,3.47-1.68l11,2.24a9.15,9.15,0,0,1,6,4,9.62,9.62,0,0,1,1.7,7.05,78.38,78.38,0,0,1-1.63,8c-.88,3.62-3,5.72-6.49,6.28-.84.13-1,.54-.39,1.19l.24.27c2.45,1.54,3.4,4.19,2.73,7.86-.18,1.23-.9,4.81-2.11,10.74l-.67,3.3c-.4,1.63-.93,2-2.59,1.78l-3.94-.8a2.56,2.56,0,0,1-2.15-3.34c1-4.94,1.77-8.73,2.35-11.22.13-.65.54-2.28.7-3.06a4.46,4.46,0,0,0-2.11-3.56c-.63-.2-1-.58-1-.95s.81-1.4.33-1.64c-.51,0-.94.25-1.37.91s-.78.88-1.27.71C500.55,708.77,500.38,708.51,500.39,708.07Zm-2.75-7a.49.49,0,0,0-.39.45c-.08.35-.05.58.17.63.07,0,.07,0,.16,0a.44.44,0,0,1,.24-.1c.64-.24,1-.47,1-.68S498.45,701.12,497.64,701.1Zm2.29-.28c.13.1.21,0,.24-.1a1.22,1.22,0,0,0-.25-.57l-.29-.06c-.12.2-.09.43.15.7Zm.18,6.07c.44.39.1.62-.36.3a.89.89,0,0,1-.05-.45C499.91,706.78,500.05,706.81,500.11,706.89Zm.3-.75c-.17-.63.08-.73.48-.13l.2.11c.17.26.44.76-.35.6Zm6.44.93q1.72-.21,1.47-1.71c-.09-.32-.23-.35-.42-.16-.63.54-1.13.81-1.63.71s-.74-.37-.66-.8c.05-.22,1.21-.43,1.11-1.05,0-.3-.56-.56-.43-.83s.75-.37.83-.42a7.1,7.1,0,0,0,3-5.21l.88-4.36c.63-3.45-.13-4.87-3.22-5.8-1.25-.4-2,0-2.29,1l-2.5,12.3a2.42,2.42,0,0,0,1.51,2.84,3.22,3.22,0,0,0-.12,1.32c.29.06.45.39.54,1A1.51,1.51,0,0,0,506.85,707.07Zm-1.61,2.8a.86.86,0,0,1,.34.15,2.49,2.49,0,0,0,.61-.77c.06-.29.86-1,.7-1.28,0-.3-1.16.21-1.52.51A4.21,4.21,0,0,0,505.24,709.87Zm2.35-1.31c.15.4.62.65,1.45.59l.34-.22a3.61,3.61,0,0,0-.74-1.12.75.75,0,0,0-1.09.22C507.47,708.09,507.49,708.32,507.59,708.56Zm1.85-5.8a1,1,0,0,1,.32.28l.18-.18c.13-.27.11-.5-.3-.36Z"/><path class="cls-1" d="M550.87,713.05c-.6,1.24-.12,3.36-.14,4.67,0,.08-.09.66-.25,1.75s-.1,1.68.11,1.83c.21.51.12,1.75-.13,3.79-.52,5.18-3.49,8.27-9,9.27a13.84,13.84,0,0,1-2.85.32,16.49,16.49,0,0,1-5.09-.81c-3.71-1.16-6-3.82-6.74-7.92a19.39,19.39,0,0,1-.3-3.88l.43-26.42a32.1,32.1,0,0,1,.36-3.86c.57-3.93,2.8-6.52,6.77-7.85a17.81,17.81,0,0,1,4.68-.72,14.91,14.91,0,0,1,6,1,8.82,8.82,0,0,1,6.22,8c.19,1.83.13,5.48.1,7.3,0,3,0,7.37-.14,13.29ZM531.43,710c-.35-.81-.62-2.05,0-2.41l.52-.43c-.86-1.1.31-1.38.76-2.25-.94-.16-2-.1-2,.56a23.24,23.24,0,0,1-.33,2.69C530.36,708.85,530.05,709.72,531.43,710Zm-.74-8.26.44.23c.36,0,.51-.07.51-.21s0-.29-.21-.74Zm.18-6.49c-.08.22-.15.43-.08.51s.14.15.22.15l.29-.29Zm.58,27.09c-.15.14,1.13,2.14,1.36,1.92a1.35,1.35,0,0,0,.81-.71c.23-.59-.56-1.62-1.36-1.71A6.16,6.16,0,0,0,531.45,722.3Zm0-28a3.12,3.12,0,0,0,.79.89c.07.22.36.15.58.08a.58.58,0,0,0-.13-.73c-.22-.22-.8-.45-1.09-.68Zm1.1,31.26-.07-.07a6.07,6.07,0,0,0-.81-.16.29.29,0,0,0,.07.22l.15.29a8,8,0,0,0,.94.16A1.19,1.19,0,0,0,532.57,725.53Zm.06-35.11-.5-.52c-.08,0-.23.21-.38.65a1.11,1.11,0,0,0,.43.37l.22-.21Zm.34,37.09c0-.37-.21-.59-.65-.52,0-.22-.29.07-.29.28s.06.44.43.6C532.67,727.94,532.82,727.8,533,727.51ZM545.48,726c.37-.35.52-.64.38-.87a1,1,0,0,0-1.33.79,2.09,2.09,0,0,1-1.25.78c-.37,0-.51-.16-.29-.44,1-1.15.25-1.68,0-1.76-.8-.08-1.15-.89-1.13-2.35l.11-6.86c.08-4.6.13-8,.1-10.29,0-.95.11-2.56.22-4.82s.14-4.16.09-5.4a1,1,0,0,1,.38-.87c.07-.07.36,0,.87.23a1.47,1.47,0,0,0,2.19,0l.52-.5a2.18,2.18,0,0,1,.47-2c.23-.43.08-.65-.28-.66s-.29,0-.29.07a1.12,1.12,0,0,0-.45.57c-.39,1.68-1.83.49-2.72.84-.22.07-.29.06-.29-.08a.84.84,0,0,1,.08-.36c.08-.22.16-.44.08-.51a1.6,1.6,0,0,0-.5-.38,1.21,1.21,0,0,1-.64-1.1.37.37,0,0,0-.29-.37l-1.59-.69c-.51-.22-.88.35-1,1,0,.29-.89.86-1.17.49a2,2,0,0,0-1.38-.9.56.56,0,0,0-.59.5,1.5,1.5,0,0,0,.43.6c.07.07.51.15.51.37,0,.51-.16.87-.53.94a11.81,11.81,0,0,0-2.12.18c-.22.07-.3.36-.3.73,0,.14.21.15.65,0,1.39-.12,1.45.75,1.43,1.78l-.06,4-.15,8.76c0,.36.28,1.24-.53,1.23-.65.13-.81.42-.45.94,1.08.82.75,3.52.88,4.47l-.06,3.65c0,1.17-.28,3.42-.3,4.52a4.43,4.43,0,0,1-.62,2.69c-.52.65-.24,1.09.7,1.47a6.1,6.1,0,0,0,.73.16c.43.23.43.37.06.58-.07.08-.22.58-.15.66.21.44.19,1.39.7,1.4s.76-1.52,1.64-1.73c.29,0,.21.74.35.88s.65.45.72.53c.36.51.79.59,1.16.23.6-.5.75-.93.46-1.3a.8.8,0,0,1,0-1.1c.3-.36.66-.28,1.17.24s.93,1,1.67.39A13.89,13.89,0,0,0,545.48,726ZM534.1,689.79c-.23.36-.09.65.35,1l.29-.14c-.36-.37-.42-.67-.27-1C534.4,689.43,534.25,689.5,534.1,689.79Zm.28,5.33c-.08.07-.08.07-.08.14l.43.45.44-.21a.84.84,0,0,0-.64-.74C534.45,694.83,534.45,695,534.38,695.12Zm6.07,30.25-.21-.3c0-.07.08-.22.3-.28,0,.07.07.14.21.22C540.75,725.3,540.67,725.44,540.45,725.37Zm4.08-35c-.07-.07-.22-.08-.36-.15l-.15-.08a1.1,1.1,0,0,0-.44.29,2.26,2.26,0,0,0,.51.23Zm-.93,3.42a2.19,2.19,0,0,1,.59-.43c.8,0,.94.16.06.73C544,694,543.67,693.74,543.6,693.74Zm1.42,11,.23-.43c0-.66-.43-.67-.44,0Zm1.37-7.86a4.25,4.25,0,0,0,.58.16c.3,0,.23-.51.16-.58a4.13,4.13,0,0,0-.86-1c-.14-.08-.44,0-.88.06a.9.9,0,0,0-.51.06C545.38,696.47,545.88,696.91,546.39,696.92Zm-.93,21.52c0-.14-.07-.22-.14-.22h-.22c0,.07.07.14.14.36.07,0,.07,0,.07-.07Zm1.75-8.8c-.22,0-.59.43-.82.64l1.16.53c.73,0,1.1-.2,1.11-.71C548.67,709.81,547.57,709.57,547.21,709.64Zm-.44-9.21a2.87,2.87,0,0,0,.16-.43l-.22-.15-.23.43Zm-.12,7.74c0,.29.06.44.14.44.29,0,.44-.07.44-.21,0-.3,1-1.59,1-2.69,0-.66-.13-1.1-.49-1.32-.72-.3-1.09-.46-1.16-.38-.3.5.42.88.54,2.78Zm1.15,10.09.81-.64c-.29-.3-.43-.45-.5-.45a4,4,0,0,0-1,.42Zm0-3.72c.08.14.15.22.22.22a3.11,3.11,0,0,0,.44-.14,1,1,0,0,1-.28-.44A1.67,1.67,0,0,0,547.78,714.54Z"/><path class="cls-1" d="M574.32,709.54l.26-.19c.21-.11.21-.11.09-.39a2.79,2.79,0,0,0-.82,0c-.53-.05-.94-.72-1.15-1.94l-2.32-23.75c-.24-1.81.12-2.32,1.91-2.63l4.32-.74c1.74-.23,2.33.19,2.57,2a41.12,41.12,0,0,1,.27,4.17l1.2,24.53c0,.3.11,2.36.33,6.17l.46,8.66c0,3.18-1.06,4.63-4.21,5.25l-4.46.77c-3,.43-4.88-.79-5.73-3.61-.75-2.61-2.09-7.78-2.92-10.45l-4-14.27-1.62-5.5-1.58-5.73c-.27-1.14-1.06-3.59-1.3-4.52-.2-.77-.38-1.34-.44-1.7a1.94,1.94,0,0,1,1.74-2.37l4.82-.83a1.84,1.84,0,0,1,2.42,1.58l2.62,10.43c.92,3.62,1.58,6.18,1.94,7.82.1.57,1.14,2.32-.1,2.83,0,.22.06.36.14.42a2.78,2.78,0,0,1,1.07,1.45,17,17,0,0,1,.45,1.77l.8,3.34c.1.58.08.88-.07.9s-.37,0-.41-.22c0-.37-.39-.6-.6-.49s-.21.48-.11.61c.49.73.53,1.39.09,1.84-.07,0,.12.27.23.48.95.79.93,1.09.11,1.9s-.61,1.22.13,1.61c.08.06,1-.32,1.06-.26.41.23.67.85.83,1.79-.33,2.79-2,.12-2.84.26-.07,0-.2.11-.41.22l.29.4,1.81,1a3.54,3.54,0,0,0,2.09.08.92.92,0,0,1,1.27.52c0,.07.17.12.55.2l-.07-.43a5.91,5.91,0,0,1-1.15-1.5l-.35-.76c-.16-.49-.21-.78-.08-.87.23-.41,1.82-1.06,2.06-1.39a1.94,1.94,0,0,0,.41-1.48.84.84,0,0,0-.57-.72,2.83,2.83,0,0,0-2-.18c-.46.3-.72.12-.73-.39s1.54-.49,2.13-1a.87.87,0,0,0,.5-1c-.06-.36-.34-.68-.91-.95-1.24-.75-1.61-1.65-1.1-2.55A5,5,0,0,1,574.32,709.54Zm-5.84-.4-.11.24c0,.16-.11.24-.09.31.12.72.47,1,1,.95.22,0,.24-.34.14-.92S568.94,709.28,568.48,709.14Zm5.39,3.81c0,.07,0,.16-.1.24s0,.14,0,.16c-.33.65-.78.21-.92.23l-.12-.28c0-.37.12-.54.49-.6a6.45,6.45,0,0,0,.65,0Z"/><path class="cls-1" d="M592.5,674.79l3.29-1.19c2.22-.73,3.65-.23,4.78,1.84.58.95,1.36,2.46,2.4,4.49l12.12,23.4,5.23,10.14c.34.73.58,1.19.7,1.53.69,1.69.39,2.58-1.3,3.27l-2.13.77-2.26.82c-1.37.49-1.87.2-2.57-1.09l-1-2.13c-.42-.93-.64-1.55-.83-1.87-.77-1.89-1.37-2.06-3.32-1.44-3.57,1.3-4.14,1.43-3.66,3.19.49,2,.95,3.46,1.2,4.38.42,1.79.13,2.51-1.56,3.2l-3.29,1.2c-2.2.79-3.16.28-3.68-2-.21-1-.52-2.53-1-4.59s-.83-3.58-1-4.59L589.7,692.8c-.55-2.59-1.48-6.45-2.72-11.59a6.77,6.77,0,0,1-.19-1.4,3.23,3.23,0,0,1,2.28-3.78l.34-.12Zm.24,7.75,1,.58c.4.24.65.3.76.19s0-.47-.48-.68a4.32,4.32,0,0,0-1.2-.34A.37.37,0,0,0,592.74,682.54Zm.75,2.92a.76.76,0,0,1-.42-.09,1,1,0,0,0-.08.42,2.81,2.81,0,0,0,.46,0Zm3.11,5.16c-.33,0-.66.31-1,.44l-.06.25c0,.24.44.16,1.2-.12.55-.2,1.23,2.12,1.34,2.85l1.82,7a6.1,6.1,0,0,1,.55,2.83c-.25,1,.53,1.67.78,2.36.14.18.15.41.07.83s-.49.79-.42,1,.88-.16,1.2-.12c.07,0,.39,0,.46,0a18.41,18.41,0,0,0,1.87-.84c.35-.12.9.76,1.41.66-.23,1.09.06,1.68.92,1.92.07,0,.17,0,.26.06s.21.16.25.06c.06-1.34,1.86-.67,2.48-.66.21-.08.32-.19.29-.26a.64.64,0,0,0-.28-.37.74.74,0,0,0-.65-.07c-1.67.53-2.46.27-3-1.1a.58.58,0,0,0-.06-.37l-.16-.25c.8-1,.33-2.3-.25-3.25-1.07-2.1-1.9-3.74-2.44-5-.05-.14-1.34-3.08-3.87-8.77-.19-.31-1.47-1.71-.31-2.37.07,0,0-.16-.18-.48a20.59,20.59,0,0,1-1-1.89l-1.31-2.55a3.42,3.42,0,0,0-1.21-1l-.18.14a.51.51,0,0,0-.25.17l-.18.14a6.25,6.25,0,0,1,.17,3,3.13,3.13,0,0,0,.4,1.09,14.85,14.85,0,0,1,1.58,4.17A1,1,0,0,1,596.6,690.62ZM595,687.31l-.11.12-.09.19c.2.55.59.33.49,0A4,4,0,0,0,595,687.31Zm4.54,22.19c-.09,0-.12-.11-.19-.09s-.15.21-.08.42.49.91.68,1.23c.28.13.53.19.65.07.51-.49,1.59-.11,1.59-.73.17-.6.16-1.06-.05-1.22s-.67.08-1,.74c-1.09,1.71-1.21-.11-1.54-.38Zm.71-20.13.63.24c.09,0,.2-.08.39-.22,0-.55-.2-.55-.73-.28A.71.71,0,0,0,600.26,689.37Zm3,21.19c.36.34.75,1.2,1.23,1s.37-.68.55-1.05a8.71,8.71,0,0,1-1.47-.4C603.28,710.17,603.17,710.28,603.27,710.56Zm3.14.73-.07.25.73.28c.23,0,.31-.19.17-.37C606.75,711.16,606.49,711.1,606.41,711.29Zm1-5.08c-.2.07-.22.23-.15.44s.21.15.39,0,0-.09.09-.19a.43.43,0,0,1,.06-.25C607.52,706.22,607.43,706.18,607.36,706.21Zm1.06.78.37.17.06-.48a.51.51,0,0,0-.23-.23Zm2.75,1.8c-.41.38-.45.7-.23.86l.18.08.31.2c.52-.26.63-.61.27-.95A.71.71,0,0,0,611.17,708.79Z"/><path class="cls-1" d="M623.24,692.45c-.34-.57-1.87-3.14-4.55-7.75s-5.33-9.05-7.9-13.21c-1.35-2.26-1-3.76,1.28-5.11l8.64-5.17a16.52,16.52,0,0,1,3.81-1.6A7.46,7.46,0,0,1,632,661.5a20.31,20.31,0,0,1,3.41,4c.06,0,1.6,2.53,4.71,7.73l4.59,7.8c.3.5,1.2,1.15.57,2-.06,0,.16.41.26.43,1.4,1.21,3.11,3.93,5.17,8.22a8.74,8.74,0,0,1,.56,6.47,9,9,0,0,1-3.84,5.53l-10,6c-1.88,1.12-3.42.68-4.58-1.26l-4.31-7.2c-.6-1-2.12-3.41-2.72-4.41Zm15.51,8.15c.13.35-.36.82-1.43,1.45-.43.27-.87,1.38-.32,1.73.6.15.86-1.54,1.55-1.52a3.64,3.64,0,0,0,2.82-1.27.78.78,0,0,0-.15-1.1c-.51-.29-.49-.39,0-.59a2.87,2.87,0,0,0,1.43-1.45c.41-1,1.1-1,2,.08a.66.66,0,0,0,.9.23.71.71,0,0,0,.24-.74.84.84,0,0,0-.6-.58l-1.15-.07-.3-.08c-.15-.25-1.23-1.9-1.53-2.4a7.1,7.1,0,0,1-.72-2.63.34.34,0,0,0-.29-.34c-.5-.13-1-.62-1.52-1.56l-3.34-5.57c-3.33-5.58-5.84-9.77-7.47-12.63-.9-1.5-1.12-2.73-.63-3.62a6.67,6.67,0,0,0,1.17-1.46c.26-1.26.07-1.58-1.15-1.78-.71-.18-1-.15-1.14.09a.61.61,0,0,0,0,.75c.41.69,1,1.2.57,2-.07.3-.1.4-.16.44-1,.7-1.29.69-1.79-.72a.75.75,0,0,0-.61-.31,6.3,6.3,0,0,1-1,.66c-.47.2-.65.05-.91-.39s-.35-.3.1-.82c.13-.08.55-.08.6-.28s-.13-.51-.69-.44a3.58,3.58,0,0,0-1.27.85c-.3.35-.36,1.4-.68,1.43s-1.63-.3-1.85-.25-.43,0-.6-.15-.23-.81-.48-.66-.31.19-.34.29c-.1.4,0,1,.63.9,0,.63-.52,1-1.47,1-.31.18-.46.36-.42.42a4.07,4.07,0,0,1,.78,2.59,15.13,15.13,0,0,1-.71,1.79c-.15.18.24.7.47.65s.41-.16.58-.6a8.37,8.37,0,0,0,.11-1.51c0-.43.31-.61.92-.46-.24.74-.08,1.15.56,1.36.1,0,.16,0,.29-.09-.19-.31-1-.94-.55-1.2l.5-.3c1.09-.31,1.69.69,2.48,2.6a30.21,30.21,0,0,0,1.92,2.34c.37.63,1.12,1.88,2.18,3.8a33.74,33.74,0,0,0,2.28,3.65l3.22,5.39c1.87,3.13,3.3,5.51,4.17,7.12.45.75,1.64,2.16.52,2.58a3.35,3.35,0,0,1-2,0c-1.48,0-2.23-.46-2.26-1.21a1.41,1.41,0,0,0-.13-1.79c-.15-.25.61-.53.43-.85s-.15-.25-.5-.12c-.11,0-.11,0-.17,0-.54.24-1,1.25-1.39,1.51a.9.9,0,0,0-.36,1.24c.18.31,0,.69.25,1.13a5.51,5.51,0,0,1,.74-1c0-.1.21-.21.52-.4.39.36-.2,1.65-.16,2.14,0,.1,0,.23.2.48.15-.18.2-.38.38-.49l.27-.41.3.5a1.88,1.88,0,0,1-.08.72c-.15,1-.11,1.09.83.95a2.58,2.58,0,0,0,.71-.08l-.09.14-.09.13c-.26.42-1.06,1.07-.84,1.44s.42.27,1.09.12c.45-.95.57-1.62.31-2.06a1.56,1.56,0,0,1-.2-.47c-.28-.6-.13-.78.37-.65s.42.69.57.94.25.27.65.37c.1,0,.25-.15.35-.55a2.23,2.23,0,0,1,.65-1.32A1.39,1.39,0,0,1,638.75,700.6Zm-21.28-24.77.68.44c.34.13.86-.43.41-.75C617.71,675.09,617.28,675.51,617.47,675.83Zm3.11,3.07c.56-.34.58-.6,0-.79s-.35-.3.09-.56.55-.5.46-.79a1.68,1.68,0,0,0-.61-1.17c-.51-.29-1-.05-1.62.71a11.49,11.49,0,0,0,.35,2.43C619.44,679.41,620,679.24,620.58,678.9Zm.5,1.83-.08.3.13-.08h.16l.08-.3-.13.08ZM623,679.6c.12-.07.15-.17.11-.24s0-.16-.21-.21l0,.1-.11.24Zm1.77,3.11-.3-.5a7.71,7.71,0,0,0-1.18-.83c-.09,0-.16,0-.35.13.22.21.63.9.88,1.17a7.46,7.46,0,0,0,.71.77.6.6,0,0,0,.33,0,.19.19,0,0,0,.07-.3Zm.52-17.75c0,.1,0,.2,0,.26l.3.08c.23,0,.25-.15,0-.43l-.19.11ZM628,692.9c0-.22-.12-.35-.35-.3l-.12.08c-.19.11,0,.52.22.37Zm2.32-22.56c.38.2.64.21.66.11,1.11.28.91-.2,1-.6s-1.08-.8-1.54,0Zm.32,23.28a.38.38,0,0,0-.1.4c.06,0,.1,0,.14.09a.6.6,0,0,0,.33,0,.35.35,0,0,0,.12-.5C631.11,693.52,630.69,693.52,630.66,693.62Zm.78-28.28c-.07,0-.09.14,0,.33l.24.11c.3.08.5.13.56.09s0-.1,0-.16a.25.25,0,0,0,0-.23C632.14,665.52,631.65,665.13,631.44,665.34Zm1.91,10.6.3.07c0-.06,0-.36,0-.42s-.23-.12-.5-.13A1.12,1.12,0,0,0,633.35,675.94Zm.94-2.69.15.25a6.23,6.23,0,0,0,.77-.72c0-.1,0-.1.09-.13C634.72,672.39,634.34,672.62,634.29,673.25Zm3.16,9.25c.07.13.3.08.61-.11s.28-.25.17-.44-.15-.25-.34-.14a.41.41,0,0,1-.22.21C637.42,682.17,637.34,682.31,637.45,682.5Zm3.83,0c.18-.28-1.06-1.07-1.38-.88s-.3.35,0,.75c.64.21.05,1.5.18,2a3.73,3.73,0,0,0,.59.42C640.78,684.51,640.58,683.18,641.28,682.51Zm4.51,6.82c-.12-.35-.17-.57-.27-.6a2.65,2.65,0,0,0-2.81,1c0,.1,0,.23.11.19s1.91-.8,2.67-.24C645.45,689.62,645.84,689.56,645.79,689.33Zm-1.45-2.7c.24-.32.35-.55.32-.62-.16-.25-.42-.26-.73-.07a2.77,2.77,0,0,0-.76.71,1.26,1.26,0,0,0-.26.58c.13-.08.53,0,.65-.05A4.65,4.65,0,0,1,644.34,686.63Zm2.38,7.67c-.12-.35-.6-1.42-.63-1.49a4.59,4.59,0,0,0,.47-.62c.32-.62.08-1.15-.42-.43a6.08,6.08,0,0,0-1.12,2.12c-.18.7.45,1.17,1.1.7C646.63,694.87,646.86,694.82,646.72,694.3Z"/><path class="cls-1" d="M671.16,658.28c.39,1.31,2.19,2.55,3.06,3.52,0,.06.39.54,1,1.45s1.07,1.3,1.33,1.26a10.94,10.94,0,0,1,2.48,2.88c3.13,4.15,3.06,8.44-.29,12.91a15.52,15.52,0,0,1-1.87,2.17,16.54,16.54,0,0,1-4.29,2.87,9.43,9.43,0,0,1-10.33-1.23,19.29,19.29,0,0,1-2.85-2.64L641.76,661.8a31.55,31.55,0,0,1-2.37-3.07c-2.25-3.28-2.38-6.7-.37-10.36a18.2,18.2,0,0,1,2.94-3.72,14.89,14.89,0,0,1,5.09-3.29,8.8,8.8,0,0,1,10,1.63c1.38,1.21,3.82,3.93,5,5.28,2.06,2.18,5,5.44,8.93,9.84Zm-28.78-4.2-.72,0c0,.05,0,.31.17.74a1.23,1.23,0,0,0,.57,0l0-.31Zm.65-1.46c.08.42.39.54.91.46l.12-.3c-.52,0-.77-.2-.85-.51C643,652.15,643,652.3,643,652.62Zm1.12,5.07a3.07,3.07,0,0,0,1.18.12c.21.11.37-.14.49-.34a.58.58,0,0,0-.6-.44c-.31,0-.89.21-1.25.24Zm.2,1.1c.09.21.19.42.29.43a.42.42,0,0,0,.26,0l0-.41ZM676,671.47c0-.52-.06-.83-.32-.9a1,1,0,0,0-.44,1.47,2.06,2.06,0,0,1-.39,1.43c-.27.25-.47.23-.51-.13,0-1.55-1-1.4-1.22-1.26-.65.49-1.45.13-2.43-1L666.14,666c-3.07-3.43-5.37-6-6.93-7.61-.63-.71-1.65-1.95-3.11-3.69s-2.73-3.14-3.61-4a1,1,0,0,1-.31-.9c0-.1.27-.24.8-.42a1.46,1.46,0,0,0,1.63-1.46l0-.72a2.14,2.14,0,0,1-1-1.81c-.13-.48-.39-.54-.66-.3s-.22.2-.17.25a1.13,1.13,0,0,0,.07.73c.85,1.49-1,1.6-1.43,2.45-.11.2-.17.25-.26.14a.7.7,0,0,1-.19-.32c-.1-.21-.19-.42-.29-.43a2.26,2.26,0,0,0-.63.07,1.22,1.22,0,0,1-1.22-.37.37.37,0,0,0-.46-.08l-1.63.58c-.53.18-.41.86,0,1.4.2.22-.06,1.24-.52,1.16a1.94,1.94,0,0,0-1.62.27.55.55,0,0,0-.09.77,1.5,1.5,0,0,0,.71.15c.11,0,.48-.24.63-.07.34.38.47.75.25,1a11.93,11.93,0,0,0-1.43,1.58c-.11.2,0,.47.27.74.1.11.26,0,.49-.44.93-1,1.57-.43,2.26.33l2.68,3,5.85,6.52c.24.27,1,.73.45,1.26-.39.55-.31.87.3,1,1.35-.13,2.94,2.07,3.68,2.68l2.44,2.72c.78.87,2.13,2.7,2.86,3.51a4.45,4.45,0,0,1,1.37,2.41c.06.83.57,1,1.52.59a5.66,5.66,0,0,0,.64-.37c.47-.13.57,0,.44.38,0,.11.23.58.33.59.46.18,1.09.88,1.47.54s-.48-1.63,0-2.37c.22-.2.65.39.86.4s.78-.11.88-.1c.61.14,1-.1,1-.62.09-.77-.09-1.19-.56-1.27s-.65-.29-.73-.81.3-.66,1-.62,1.34.07,1.49-.85A14.2,14.2,0,0,0,676,671.47Zm-29.17-15.13c0,.1,0,.1,0,.16l.61,0,.18-.45a.83.83,0,0,0-1-.11C646.72,656.07,646.82,656.18,646.86,656.34Zm1.78,7.33.47-.12c.27-.25.33-.4.23-.51s-.19-.22-.65-.4Zm2.41-17.75c-.11,0-.22.09-.37.13l-.16.05a1,1,0,0,0-.13.51,1.88,1.88,0,0,0,.52-.18Zm3.75,23.31c-.81-.35-1.86-1.08-1.67-1.75l.09-.66c-1.38-.23-.71-1.23-1-2.17-.8.52-1.51,1.26-1.07,1.75a23.41,23.41,0,0,1,1.58,2.2C653.25,669.15,653.62,670,654.8,669.23Zm-2.12-20.17a2.47,2.47,0,0,1,.15-.72c.59-.54.8-.52.54.5C653.21,649,652.74,649,652.68,649.06Zm4.22.43a3.14,3.14,0,0,0,.53-.28c.22-.19-.18-.53-.28-.53a4.32,4.32,0,0,0-1.33-.18c-.16,0-.33.3-.61.64-.16.15-.32.29-.33.4C655.85,649.85,656.52,649.83,656.9,649.49Zm2.67,2.32a4.64,4.64,0,0,0-.19-.43l-.26,0,.13.47Zm1.67,4.38-.13-.47c-.44-.49-.76-.2-.32.29Zm3.49,1.38c.2.22.35.27.4.23.22-.2.28-.35.18-.46s-.31-1.88-1.09-2.64c-.44-.49-.84-.72-1.26-.64-.74.27-1.11.41-1.11.51.12.57.91.36,2.28,1.67Zm-1.53,20.7c0,.2,2.28.79,2.3.48a1.35,1.35,0,0,0,.11-1.08c-.23-.58-1.51-.8-2.15-.32A4.84,4.84,0,0,0,663.2,678.27Zm3,1.61h-.1a5.26,5.26,0,0,0-.69.43.24.24,0,0,0,.2.11l.3.12c.05,0,.59-.33.8-.52A1,1,0,0,0,666.21,679.88Zm-.07-21.62c-.16.15-.14.72-.16,1l1.22-.4c.54-.49.66-.89.32-1.27C667.33,657.4,666.37,658,666.14,658.26Zm1.72,22.79a.49.49,0,0,0-.83.06c-.15-.16-.17.25,0,.41s.35.28.72.14C667.93,681.57,667.94,681.37,667.86,681.05Zm2-19.58c.15.06.25.06.31,0s.11-.2.23-.4a1.08,1.08,0,0,1-.51-.13A1.42,1.42,0,0,0,669.9,661.47Zm1,4.44c-.1-.11-.2-.11-.26-.06l-.16.14c.05.06.15.06.35.18.06,0,.06,0,0-.11Zm1,8.48-.36-.07a.37.37,0,0,1,0-.41c.05.06.15.06.31,0C672.06,674.14,672.1,674.3,671.89,674.39Zm.55-10.2.16-1c-.41,0-.62,0-.67,0a3.72,3.72,0,0,0-.42,1Z"/><path class="cls-1" d="M682,651.33a12.83,12.83,0,0,1-1.26,1.42,1.79,1.79,0,0,1-2.51.3,33.48,33.48,0,0,1-3-2.46,6,6,0,0,1-.59-.77,1.47,1.47,0,0,1-.09-1.39l.71-1.21,5.8-7.05.14-.17c1.23-1.16,2-1.28,3.35-.17l2,1.67c1.59,1.4,1.72,2.16.37,3.8Zm-1.42-4.47c.17.14.26,0,.34-.19,0-.06,0-.37-.08-.36a.9.9,0,0,0-.51.05S680.56,646.81,680.62,646.86Zm1.21-2.51c-.27.44-.3.71-.24.75a.44.44,0,0,0,.48.11c.65-.22.88-.5.75-.8,0-.1-.12-.19-.28-.23S682.06,644.07,681.83,644.35Z"/></svg>