<?xml version="1.0" encoding="utf-8"?>
<!-- Generator: Adobe Illustrator 24.3.0, SVG Export Plug-In . SVG Version: 6.00 Build 0)  -->
<svg version="1.1" id="Camada_1" xmlns="http://www.w3.org/2000/svg" xmlns:xlink="http://www.w3.org/1999/xlink" x="0px" y="0px"
	 viewBox="0 0 1080 1080" style="enable-background:new 0 0 1080 1080;" xml:space="preserve">
<style type="text/css">
	.st0{fill:#FFFFFF;}
	.st1{fill:#0068FF;}
	.st2{fill:#598AD1;}
	.st3{fill:#FAB1A5;}
	.st4{fill:#2E706C;}
	.st5{fill:#FDC872;}
	.st6{fill:#DA6668;}
	.st7{fill:#1E1E1E;}
</style>
<g>
	<g>
		<g>
			<path d="M429.78,714.2c0.95-0.93,1.29-2.3,0.88-3.56c-0.41-1.27-1.49-2.17-2.81-2.37l-11.54-1.68c-0.23-0.03-0.42-0.18-0.52-0.38
				l-5.16-10.45c-0.59-1.2-1.78-1.94-3.12-1.94c-1.33,0-2.53,0.74-3.12,1.94l-5.16,10.45c-0.1,0.21-0.3,0.35-0.52,0.38l-11.54,1.68
				c-1.32,0.19-2.39,1.1-2.81,2.37c-0.41,1.27-0.07,2.63,0.88,3.56l8.35,8.14c0.16,0.16,0.24,0.39,0.2,0.62l-1.97,11.49
				c-0.23,1.31,0.3,2.62,1.38,3.4c1.08,0.78,2.48,0.89,3.66,0.26l10.32-5.42c0.2-0.11,0.44-0.11,0.65,0l10.32,5.42
				c0.51,0.27,1.07,0.4,1.62,0.4c0.72,0,1.43-0.22,2.04-0.67c1.08-0.78,1.61-2.09,1.38-3.4l-1.97-11.49
				c-0.04-0.23,0.04-0.46,0.2-0.62L429.78,714.2z"/>
		</g>
	</g>
	<g>
		<g>
			<path d="M496.02,714.2c0.95-0.93,1.29-2.3,0.88-3.56c-0.41-1.27-1.49-2.17-2.81-2.37l-11.54-1.68c-0.23-0.03-0.42-0.18-0.52-0.38
				l-5.16-10.45c-0.59-1.2-1.78-1.94-3.12-1.94c-1.33,0-2.53,0.74-3.12,1.94l-5.16,10.45c-0.1,0.21-0.3,0.35-0.52,0.38l-11.54,1.68
				c-1.32,0.19-2.39,1.1-2.81,2.37s-0.07,2.63,0.88,3.56l8.35,8.14c0.16,0.16,0.24,0.39,0.2,0.62l-1.97,11.49
				c-0.23,1.31,0.3,2.62,1.38,3.4c1.08,0.78,2.48,0.89,3.66,0.26l10.32-5.42c0.2-0.11,0.44-0.11,0.65,0l10.32,5.42
				c0.51,0.27,1.07,0.4,1.62,0.4c0.72,0,1.43-0.22,2.04-0.67c1.08-0.78,1.61-2.09,1.38-3.4l-1.97-11.49
				c-0.04-0.23,0.04-0.46,0.2-0.62L496.02,714.2z"/>
		</g>
	</g>
	<g>
		<g>
			<path d="M562.26,714.2c0.95-0.93,1.29-2.3,0.88-3.56c-0.41-1.27-1.49-2.17-2.81-2.37l-11.54-1.68c-0.23-0.03-0.42-0.18-0.52-0.38
				l-5.16-10.45c-0.59-1.2-1.78-1.94-3.12-1.94s-2.53,0.74-3.12,1.94l-5.16,10.45c-0.1,0.21-0.3,0.35-0.52,0.38l-11.54,1.68
				c-1.32,0.19-2.39,1.1-2.81,2.37s-0.07,2.63,0.88,3.56l8.35,8.14c0.16,0.16,0.24,0.39,0.2,0.62l-1.97,11.49
				c-0.23,1.31,0.3,2.62,1.38,3.4c1.08,0.78,2.48,0.89,3.66,0.26l10.32-5.42c0.2-0.11,0.44-0.11,0.65,0l10.32,5.42
				c0.51,0.27,1.07,0.4,1.62,0.4c0.72,0,1.43-0.22,2.04-0.67c1.08-0.78,1.61-2.09,1.38-3.4l-1.97-11.49
				c-0.04-0.23,0.04-0.46,0.2-0.62L562.26,714.2z"/>
		</g>
	</g>
	<g>
		<g>
			<path d="M628.5,714.2c0.95-0.93,1.29-2.3,0.88-3.56c-0.41-1.27-1.49-2.17-2.81-2.37l-11.54-1.68c-0.23-0.03-0.42-0.18-0.52-0.38
				l-5.16-10.45c-0.59-1.2-1.78-1.94-3.12-1.94s-2.53,0.74-3.12,1.94l-5.16,10.45c-0.1,0.21-0.3,0.35-0.52,0.38l-11.54,1.68
				c-1.32,0.19-2.39,1.1-2.81,2.37s-0.07,2.63,0.88,3.56l8.35,8.14c0.16,0.16,0.24,0.39,0.2,0.62l-1.97,11.49
				c-0.23,1.31,0.3,2.62,1.38,3.4c1.08,0.78,2.48,0.89,3.66,0.26l10.32-5.42c0.2-0.11,0.44-0.11,0.65,0l10.32,5.42
				c0.51,0.27,1.07,0.4,1.62,0.4c0.72,0,1.43-0.22,2.04-0.67c1.08-0.78,1.61-2.09,1.38-3.4l-1.97-11.49
				c-0.04-0.23,0.04-0.46,0.2-0.62L628.5,714.2z"/>
		</g>
	</g>
	<g>
		<g>
			<path d="M694.75,714.2c0.95-0.93,1.29-2.3,0.88-3.56c-0.41-1.27-1.49-2.17-2.81-2.37l-11.54-1.68c-0.23-0.03-0.42-0.18-0.52-0.38
				l-5.16-10.45c-0.59-1.2-1.78-1.94-3.12-1.94s-2.53,0.74-3.12,1.94l-5.16,10.45c-0.1,0.21-0.3,0.35-0.52,0.38l-11.54,1.68
				c-1.32,0.19-2.39,1.1-2.81,2.37c-0.41,1.27-0.08,2.63,0.88,3.56l8.35,8.14c0.16,0.16,0.24,0.39,0.2,0.62l-1.97,11.49
				c-0.23,1.31,0.3,2.62,1.38,3.4c1.08,0.78,2.48,0.89,3.66,0.26l10.32-5.42c0.2-0.11,0.44-0.11,0.65,0l10.32,5.42
				c0.51,0.27,1.07,0.4,1.62,0.4c0.72,0,1.43-0.22,2.04-0.67c1.08-0.78,1.61-2.09,1.38-3.4l-1.97-11.49
				c-0.04-0.23,0.04-0.46,0.2-0.62L694.75,714.2z"/>
		</g>
	</g>
</g>
<g>
	<path class="st2" d="M478.46,649.72l32.22-29.33l8.19,7.78l9.56-5.11l10.47,3.52l13.78-6.19l9.11,8.89l8.7-7.17
		c0,0,32.63,27.39,31.74,27.61c-0.89,0.22-31.74,12.89-31.74,12.89l-58.93,1.11L478.46,649.72z"/>
	<polygon class="st3" points="499.35,465.86 479.8,465.86 473.97,463 473.97,449.58 467.7,445.4 463.34,455.4 427.36,459.65 
		418.09,449.58 415.64,445.4 411.28,438.6 404.17,427.55 410.6,403.88 436.41,384.83 442.63,387.57 467.7,407.29 494.83,379.7 
		505.77,374.16 539.96,407.29 547.35,424.64 539.96,447.75 531.74,465.86 515.76,471.61 	"/>
	<polyline class="st4" points="480.26,576.5 471.8,567.14 465.84,545.84 446.71,534.38 427.36,540.69 411.28,567.14 422.15,596.77 
		441.25,622.11 479.49,649.72 501.66,626.57 523.87,598.99 553.9,598.99 567.13,618.9 605.73,649.72 645.59,614.07 608.57,598.99 
		559.29,588.78 550.91,576.5 540,545.84 531.74,527.83 518.88,514.28 504.88,524.33 491.28,547.82 489.74,570.96 	"/>
	<polygon class="st5" points="540,491.93 540,537.91 559.29,583.26 573.56,587.77 658.98,588.83 666.22,576.5 669.43,555.75 
		649.62,547.82 637.38,534.38 622.69,523.26 617.83,509.56 604.72,496.77 583.38,488.98 	"/>
	<rect x="424.91" y="456.8" class="st6" width="35.44" height="77.58"/>
	<polygon class="st6" points="521.33,466.75 485.89,466.75 485.89,534.38 523.87,516.86 	"/>
	<g>
		<g>
			<path class="st7" d="M558.82,534.38c-2.71,0-4.91,2.2-4.91,4.91v1.25v5.3h9.83v-5.3v-1.25
				C563.73,536.58,561.53,534.38,558.82,534.38z"/>
		</g>
		<g>
			<path class="st7" d="M578.47,534.38c-2.71,0-4.91,2.2-4.91,4.91v1.25v5.3h9.83v-5.3v-1.25
				C583.38,536.58,581.18,534.38,578.47,534.38z"/>
		</g>
		<g>
			<path class="st7" d="M598.12,534.38c-2.71,0-4.91,2.2-4.91,4.91v1.25v5.3h9.83v-5.3v-1.25
				C603.04,536.58,600.84,534.38,598.12,534.38z"/>
		</g>
		<g>
			<path class="st7" d="M617.78,534.38c-2.71,0-4.91,2.2-4.91,4.91v1.25v5.3h9.83v-5.3v-1.25
				C622.69,536.58,620.49,534.38,617.78,534.38z"/>
		</g>
		<g>
			<path class="st7" d="M583.38,572.05c0-2.71-2.2-4.91-4.91-4.91c-2.71,0-4.91,2.2-4.91,4.91v6.55h9.83V572.05z"/>
		</g>
		<g>
			<path class="st7" d="M603.04,572.05c0-2.71-2.2-4.91-4.91-4.91c-2.71,0-4.91,2.2-4.91,4.91v6.55h9.83V572.05z"/>
		</g>
		<g>
			<path class="st7" d="M622.69,572.05c0-2.71-2.2-4.91-4.91-4.91c-2.71,0-4.91,2.2-4.91,4.91v6.55h9.83V572.05z"/>
		</g>
		<g>
			<path class="st7" d="M642.35,572.05c0-2.71-2.2-4.91-4.91-4.91c-2.71,0-4.91,2.2-4.91,4.91v6.55h9.83V572.05z"/>
		</g>
		<g>
			<path class="st7" d="M446.65,479.06v-4.07c0-2.88-2.34-5.22-5.22-5.22c-2.88,0-5.22,2.34-5.22,5.22v4.07v2.89h10.44V479.06z"/>
		</g>
		<g>
			<path class="st7" d="M446.65,494.2c0-2.88-2.34-5.22-5.22-5.22c-2.88,0-5.22,2.34-5.22,5.22v6.96h10.44V494.2z"/>
		</g>
		<g>
			<path class="st7" d="M504.57,479.95c-2.88,0-5.22,2.34-5.22,5.22v6.96h10.44v-6.96C509.79,482.29,507.46,479.95,504.57,479.95z"
				/>
		</g>
		<g>
			<path class="st7" d="M504.57,497.38c-2.88,0-5.22,2.34-5.22,5.22v6.96h10.44v-6.96C509.79,499.72,507.46,497.38,504.57,497.38z"
				/>
		</g>
		<g>
			<path class="st7" d="M446.65,513.41c0-2.88-2.34-5.22-5.22-5.22c-2.88,0-5.22,2.34-5.22,5.22v6.96h10.44V513.41z"/>
		</g>
		<g>
			<path class="st7" d="M646.96,456.54l15.96-27.12l-7.61-4.48l-5.4,9.18c-2.47-2.34-5.11-4.47-7.91-6.37l4.84-8.27l-7.62-4.46
				l-4.85,8.29c-0.51-0.25-6.42-2.79-8.93-3.59l4.4-7.75l-7.68-4.36l-5.65,9.97c-2.1-0.34-4.23-0.58-6.38-0.72v-19.86h7.78v-8.83
				h-7.78v-8.9h-8.83v8.9h-7.78v8.83h7.78v19.86c-2.14,0.14-4.25,0.37-6.33,0.7l-5.61-9.94l-7.69,4.34l4.34,7.69
				c-3.04,0.95-6,2.11-8.84,3.5l-4.29-7.44l-7.65,4.41l4.3,7.45c-2.82,1.91-5.49,4.07-7.99,6.45l-2.73-4.64l-0.65-1.11l0,0l0,0l0,0
				l-2.02-3.43l-2.89,1.7c-0.1-1.61-0.33-3.25-0.69-4.91c-1.27-5.86-4.17-11.99-8.66-18.35c-2.39-3.39-5.24-6.84-8.54-10.35
				c-1.76-1.88-3.65-3.77-5.67-5.68c-6.69-6.32-13.29-11.4-17.58-14.49c0.24-0.76,0.37-1.56,0.37-2.4c0-3.38-2.12-6.26-5.1-7.39
				v-17.89h-5.62v17.89c-2.98,1.13-5.1,4.01-5.1,7.39c0,0.84,0.13,1.64,0.37,2.4c-4.29,3.1-10.9,8.17-17.58,14.49
				c-3.49,3.3-6.6,6.56-9.32,9.76c0,0-0.01,0.01-0.01,0.01c-1.14,0.99-2.19,2.06-3.16,3.18c-0.61-0.69-1.23-1.38-1.88-2.08l0,0
				c-6.8-7.25-14.39-13.08-18.67-16.14c0.02-0.22,0.04-0.45,0.04-0.68c0-2.26-1.23-4.24-3.05-5.31c-0.1-0.06-0.2-0.11-0.3-0.16
				v-13.68h-5.62v13.68c-0.1,0.05-0.2,0.1-0.3,0.16c-1.82,1.07-3.05,3.04-3.05,5.31c0,0.23,0.01,0.46,0.04,0.68
				c-3.35,2.4-8.74,6.5-14.2,11.66c-3.67,3.47-6.8,6.88-9.4,10.22c-6.06,7.8-9.19,15.22-9.32,22.16c-0.14,7.35,3,13.8,9.32,19.23
				c0.49,0.42,1,0.84,1.54,1.25v2.4c0,5.2,2.83,9.74,7.03,12.18v1.37v23.28v44.79h-8.56h-0.01V480.1
				c-6.64,16.51-10.01,33.98-10.01,51.95c0,2.84,0.09,5.68,0.25,8.49c0.53,8.92,1.91,17.69,4.11,26.27
				c1.11,4.34,2.44,8.62,3.98,12.85c0.81,2.23,1.68,4.45,2.61,6.65c7.02,16.6,17.07,31.51,29.87,44.31
				c7.4,7.4,15.5,13.87,24.22,19.38c3.23,2.04,6.55,3.95,9.95,5.72c3.31,1.72,6.69,3.32,10.14,4.78c1.98,0.84,3.97,1.62,5.97,2.36
				c15.43,5.7,31.64,8.59,48.29,8.59c16.65,0,32.87-2.89,48.29-8.59c2-0.74,3.99-1.53,5.97-2.36c3.46-1.46,6.84-3.06,10.14-4.78
				c3.4-1.77,6.72-3.68,9.95-5.72c8.72-5.51,16.82-11.98,24.22-19.38c10.97-10.97,19.91-23.48,26.67-37.28
				c1.13-2.31,2.2-4.65,3.21-7.03c5.06-11.96,8.38-24.44,9.94-37.27c0.34-2.82,0.6-5.65,0.77-8.5c0.17-2.82,0.25-5.65,0.25-8.49
				v-4.22V518v-0.01L646.96,456.54z M635.05,540.54c2.69,3.11,5.53,6.04,8.59,8.64c0.65,0.55,1.3,1.07,1.95,1.58h-98.08
				c-0.05-0.17-0.11-0.33-0.16-0.5v-9.72v-10.01v-2.71h77.77c0.66,0.9,1.33,1.81,2,2.71C629.66,533.95,632.28,537.34,635.05,540.54z
				 M662,575.19v-3.14c0-2.71-2.2-4.91-4.91-4.91c-2.71,0-4.91,2.2-4.91,4.91v6.55h8.56c-0.64,1.65-1.31,3.29-2.02,4.91h-93.43
				c-1.84-1.3-3.52-2.96-5.07-4.91h3.51v-6.55c0-2.71-2.2-4.91-4.91-4.91c-1.76,0-3.29,0.92-4.16,2.31
				c-1.35-2.79-2.59-5.78-3.74-8.86h115.31C665.1,565.56,663.69,570.44,662,575.19z M426.22,452.99c-0.34,0-0.67-0.05-0.98-0.12
				c-1.77-0.44-3.09-2.04-3.09-3.95v-0.32v-2.45h8.04h13.12h17.04v2.45v0.32c0,2.25-1.83,4.07-4.07,4.07h-18.64H426.22z
				 M418.94,409.48c1.39-1.74,2.9-3.45,4.47-5.1c0.46-0.48,0.92-0.95,1.38-1.42l29.93,35.63h-4.14h-6.8h-3.71l-21.99-28.03
				C418.37,410.2,418.65,409.84,418.94,409.48z M528.66,400.44c0.79,0.86,1.55,1.71,2.28,2.56c2.58,2.99,4.76,5.9,6.54,8.72
				c-3.44,6.84-9.9,10.58-35.43,8.73c-17.68-1.28-27.07,4.7-31.82,9.95c-1.33,1.47-2.39,2.96-3.22,4.39
				c-0.82-2.13-1.21-4.37-1.17-6.71c0-0.11,0.01-0.21,0.01-0.32c0.06-1.82,0.38-3.72,0.95-5.69c0.49-1.7,1.16-3.45,2.02-5.24
				c1.46-3.07,3.46-6.28,5.97-9.6c4.55-2,10.39-2.76,17.37-2.25C510.34,406.28,521.39,405.04,528.66,400.44z M552.21,436.24
				l12.32,20.29l0,0.01l-15.18,28.7h-3.89h-3.01h-4.93V518h-3.05h-0.36c-1.55-2.03-3.28-3.71-5.24-4.96v-12.42v-5.26v-9.83v-11.68
				c7.2-0.62,12.87-6.67,12.87-14.02v-8.29c4.86-4.16,8.2-8.79,10-13.86C551.92,437.2,552.07,436.72,552.21,436.24z M483.88,463.9
				c-2.25,0-4.07-1.83-4.07-4.07v-4.42h51.94v4.42c0,2.25-1.83,4.07-4.07,4.07H483.88z M542.35,422.09
				c0.59,2.07,0.92,4.06,0.95,5.97c0.1,5.24-1.96,9.92-6.24,14.19c-1.08,1.07-2.29,2.12-3.65,3.14h-50.47h-7.22
				c-0.05-0.04-0.09-0.07-0.14-0.11c-0.57-0.43-1.1-0.86-1.62-1.3c0.24-1.07,1.16-4.28,4.01-7.25c4.73-4.9,12.8-7.09,23.35-6.33
				c15.81,1.15,26,0.31,33.03-2.73C537.75,426.23,540.33,424.29,542.35,422.09z M567.48,495.07h7.05l0,0h3.12l4.09,0
				c2.04,0,3.99,0.17,5.85,0.48c10.15,1.71,17.83,7.84,24.76,15.74c1.86,2.13,3.68,4.38,5.46,6.71h-70.48v-6.71v-16.22h6.75v0h3.51
				l6.92,0l0,0H567.48z M625.06,511.29c-4.12-5.32-8.51-10.41-13.49-14.64c-0.89-0.76-1.79-1.48-2.7-2.16
				c-3.18-2.39-6.46-4.31-9.85-5.76l4.66-7.99c0.74-1.27,1.42-2.58,2.04-3.91c0.62,1.34,1.3,2.65,2.05,3.93l19.72,33.72
				C626.69,513.41,625.88,512.35,625.06,511.29z M463.34,461.09c2.94-1.72,5.21-4.47,6.29-7.76c0.05,0.04,0.1,0.08,0.16,0.12v6.38
				c0,6.51,4.45,12.01,10.47,13.61v57.1h-16.92V461.09z M491.28,540.54c-1.56,5.02-2.65,10.03-3.64,14.54
				c-1.15,5.29-2.25,10.28-3.68,13.4c-1.19,2.59-1.89,2.51-2.27,2.48c-2.97-0.3-4.71-5.46-7.02-13.29
				c-1.66-5.64-3.54-11.98-6.97-17.12H491.28z M495.86,529.19c-0.23,0.45-0.46,0.89-0.68,1.35h-5.44c0.18-0.35,0.35-0.7,0.53-1.05
				v-55.58h28.61v36.82c-1.81,0.21-3.67,0.73-5.59,1.56C505.01,515.86,499.6,522.08,495.86,529.19z M637.54,435.38
				c2.76,1.93,5.35,4.13,7.76,6.59l0,0l-8.39,14.27L669.43,518h-0.04h-0.76h-9.56l-26.1-49.29c-2.07-3.91-3.17-8.32-3.17-12.75
				c0-4.76,1.26-9.46,3.62-13.56L637.54,435.38z M620.98,427.58c3.08,0.86,6.07,1.97,8.93,3.34l-4.12,7.04
				c-3.15,5.47-4.82,11.69-4.82,18c0,5.86,1.45,11.7,4.2,16.88L649.08,518h-9.31l-24.38-41.7c-3.45-5.89-5.27-12.61-5.27-19.43
				c0-6.64,1.73-13.2,5.01-18.98L620.98,427.58z M605.71,425.53c2.06,0,4.1,0.11,6.1,0.32l-4.36,7.69c-0.63,1.1-1.2,2.23-1.73,3.38
				c-0.53-1.13-1.09-2.25-1.71-3.34l-4.36-7.73C601.64,425.64,603.66,425.53,605.71,425.53z M590.47,427.55l5.85,10.36
				c3.25,5.76,4.97,12.3,4.97,18.91v0.07c0,6.81-1.81,13.51-5.24,19.39l-5.7,9.77c-1.77-0.34-3.58-0.58-5.42-0.71
				c-0.52-0.04-1.04-0.06-1.56-0.08c-0.54-0.02-1.08-0.03-1.63-0.03h-1.99l6.58-12.39c2.75-5.18,4.2-11.02,4.2-16.88
				c0-6.31-1.67-12.53-4.82-18l-4.12-7.13C584.45,429.49,587.41,428.39,590.47,427.55z M573.97,435.25l4.11,7.12
				c2.38,4.13,3.64,8.83,3.64,13.59c0,4.43-1.1,8.83-3.17,12.74l-8.78,16.53h-3.98h-2.94h-3.55l15.3-29.01l-8.44-14.35
				C568.57,439.41,571.18,437.19,573.97,435.25z M486.22,394.65c7.24-6.86,14.54-12.26,18.36-14.95c3.49,2.46,9.9,7.19,16.51,13.23
				c0.04,0.04,0.08,0.07,0.12,0.11c-4.95,2.14-13.23,3.03-28.32,1.94c-2.38-0.17-4.67-0.22-6.87-0.14
				C486.08,394.77,486.15,394.71,486.22,394.65z M457.79,404.99c1.24,1.33,2.39,2.64,3.45,3.94c-1.2,2.39-2.14,4.74-2.87,6.86
				c-0.19,0.48-0.37,0.96-0.53,1.44c-0.85,2.45-1.43,4.86-1.74,7.22c-0.01,0.07-0.02,0.13-0.02,0.2l-23.89-28.44
				c0.73-0.62,1.46-1.21,2.17-1.79c2.15-1.73,4.18-3.25,5.94-4.49C444.14,392.67,451.44,398.22,457.79,404.99 M411.28,426.24
				c0.02-1.26,0.21-2.54,0.54-3.83c0.22-0.85,0.5-1.7,0.83-2.55l14.71,18.75h-9.12c-1.03-0.8-1.94-1.61-2.74-2.45
				C412.61,433.13,411.22,429.86,411.28,426.24z M429.18,465.32V463h1.43h22.73v67.53h-2.21c-1.59-0.14-3.25-0.14-4.99,0h-16.96
				V465.32z M540,661.44c-19.59,0-38.18-4.38-54.84-12.21c4.4-3.23,8.65-6.71,12.74-10.43c3.96-3.61,7.76-7.44,11.39-11.49
				l9.57,7.51l10.52-8.26l10.52,8.25l10.52-8.25l10.52,8.25l9.7-7.61c3.66,4.08,7.49,7.95,11.48,11.59
				c4.08,3.72,8.34,7.2,12.74,10.43C578.18,657.07,559.59,661.44,540,661.44z M515.76,619.67c3.97-4.99,7.71-10.25,11.19-15.76h26.1
				c3.46,5.48,7.17,10.7,11.11,15.65l-3.24,2.54l-10.52-8.25l-10.52,8.25l-10.52-8.25l-10.52,8.26L515.76,619.67z M604.81,644.01
				c-14.08-9.64-30.66-24.71-44.7-47.71l-1.46-2.4h-37.28l-1.46,2.4c-14.04,23.01-30.62,38.07-44.7,47.71
				c-28.56-16.6-50.23-43.8-59.56-76.19c5.68-11.07,15.98-25.83,30.96-27.29h4.07c3.46,0.41,6.06,1.96,8.19,4.82
				c2.9,3.88,4.58,9.6,6.21,15.13c1.34,4.54,2.6,8.83,4.57,12.38c2.69,4.87,6.41,7.57,11.04,8.04c3.73,0.38,8.9-0.75,12.36-8.24
				c1.89-4.1,3.04-9.36,4.37-15.46c1.2-5.51,2.47-11.31,4.37-16.68c1.28-3.61,2.83-7.02,4.85-10.01c2.63-3.9,6.05-7.09,10.62-9.06
				c2.95-1.27,4.55-0.85,5.49-0.42c2.64,1.2,4.96,4.75,7.09,9.48c1.34,2.97,2.6,6.4,3.83,10.01c0.93,2.73,1.83,5.56,2.73,8.37
				c0.2,0.61,0.39,1.23,0.59,1.84c2.89,9.02,6.02,18.45,10.35,26.4c1.23,2.25,2.55,4.39,3.99,6.36c3,4.1,6.51,7.51,10.74,9.83
				c2.15,1.18,4.47,2.08,7.01,2.65c7.99,1.79,16.03,3.26,23.8,4.68c20.01,3.66,39.02,7.15,46.31,14.36
				C629.54,626.57,617.9,636.41,604.81,644.01z M645.35,607.1c-7.8-6.94-21.33-10.59-37.29-13.76h45.87
				C651.36,598.12,648.49,602.71,645.35,607.1z M668.1,550.35c-7.6-1.17-13.83-4.8-19.39-9.81c-3.25-2.94-6.28-6.34-9.21-10.01
				c-0.71-0.89-1.42-1.79-2.12-2.71h31.17v2.71v10.01v6.32C668.42,548.03,668.27,549.19,668.1,550.35z"/>
		</g>
		<g>
			<path class="st7" d="M558.82,501.62c-2.71,0-4.91,2.2-4.91,4.91v6.55h9.83v-1.79v-4.76c0-0.98-0.29-1.9-0.79-2.67
				C562.06,502.52,560.55,501.62,558.82,501.62z"/>
		</g>
		<g>
			<path class="st7" d="M583.38,511.29v-4.76c0-0.93-0.26-1.8-0.71-2.54c-0.86-1.42-2.42-2.38-4.2-2.38c-2.71,0-4.91,2.2-4.91,4.91
				v6.55h9.83V511.29z"/>
		</g>
		<g>
			<path class="st7" d="M603.04,511.29v-4.76c0-2.71-2.2-4.91-4.91-4.91c-2.71,0-4.91,2.2-4.91,4.91v4.76v1.79h9.83V511.29z"/>
		</g>
	</g>
</g>
</svg>
