<?xml version="1.0" encoding="utf-8"?>
<!-- Generator: Adobe Illustrator 24.3.0, SVG Export Plug-In . SVG Version: 6.00 Build 0)  -->
<svg version="1.1" id="Camada_1" xmlns="http://www.w3.org/2000/svg" xmlns:xlink="http://www.w3.org/1999/xlink" x="0px" y="0px"
	 viewBox="0 0 1080 1080" style="enable-background:new 0 0 1080 1080;" xml:space="preserve">
<style type="text/css">
	.st0{fill:#FFFFFF;}
	.st1{fill:#0068FF;}
	.st2{fill:#598AD1;}
	.st3{fill:#FAB1A5;}
	.st4{fill:#2E706C;}
	.st5{fill:#FDC872;}
	.st6{fill:#DA6668;}
	.st7{fill:#1E1E1E;}
</style>
<g>
	<g>
		<g>
			<g>
				<g>
					<path class="st1" d="M558.82,535c-2.71,0-4.91,2.2-4.91,4.91v1.25v5.3h9.83v-5.3v-1.25C563.73,537.2,561.53,535,558.82,535z"/>
				</g>
			</g>
			<g>
				<g>
					<path class="st1" d="M578.47,535c-2.71,0-4.91,2.2-4.91,4.91v1.25v5.3h9.83v-5.3v-1.25C583.38,537.2,581.18,535,578.47,535z"/>
				</g>
			</g>
			<g>
				<g>
					<path class="st1" d="M598.12,535c-2.71,0-4.91,2.2-4.91,4.91v1.25v5.3h9.83v-5.3v-1.25C603.04,537.2,600.84,535,598.12,535z"/>
				</g>
			</g>
			<g>
				<g>
					<path class="st1" d="M617.78,535c-2.71,0-4.91,2.2-4.91,4.91v1.25v5.3h9.83v-5.3v-1.25C622.69,537.2,620.49,535,617.78,535z"/>
				</g>
			</g>
			<g>
				<g>
					<path class="st1" d="M583.38,572.67c0-2.71-2.2-4.91-4.91-4.91c-2.71,0-4.91,2.2-4.91,4.91v6.55h9.83V572.67z"/>
				</g>
			</g>
			<g>
				<g>
					<path class="st1" d="M603.04,572.67c0-2.71-2.2-4.91-4.91-4.91c-2.71,0-4.91,2.2-4.91,4.91v6.55h9.83V572.67z"/>
				</g>
			</g>
			<g>
				<g>
					<path class="st1" d="M622.69,572.67c0-2.71-2.2-4.91-4.91-4.91c-2.71,0-4.91,2.2-4.91,4.91v6.55h9.83V572.67z"/>
				</g>
			</g>
			<g>
				<g>
					<path class="st1" d="M642.35,572.67c0-2.71-2.2-4.91-4.91-4.91c-2.71,0-4.91,2.2-4.91,4.91v6.55h9.83V572.67z"/>
				</g>
			</g>
			<g>
				<g>
					<path class="st1" d="M446.65,479.68v-4.07c0-2.88-2.34-5.22-5.22-5.22c-2.88,0-5.22,2.34-5.22,5.22v4.07v2.89h10.44V479.68z"/>
				</g>
			</g>
			<g>
				<g>
					<path class="st1" d="M446.65,494.82c0-2.88-2.34-5.22-5.22-5.22c-2.88,0-5.22,2.34-5.22,5.22v6.96h10.44V494.82z"/>
				</g>
			</g>
			<g>
				<g>
					<path class="st1" d="M504.57,480.57c-2.88,0-5.22,2.34-5.22,5.22v6.96h10.44v-6.96C509.79,482.91,507.46,480.57,504.57,480.57z
						"/>
				</g>
			</g>
			<g>
				<g>
					<path class="st1" d="M504.57,498.01c-2.88,0-5.22,2.34-5.22,5.22v6.96h10.44v-6.96C509.79,500.35,507.46,498.01,504.57,498.01z
						"/>
				</g>
			</g>
			<g>
				<g>
					<path class="st1" d="M446.65,514.04c0-2.88-2.34-5.22-5.22-5.22c-2.88,0-5.22,2.34-5.22,5.22V521h10.44V514.04z"/>
				</g>
			</g>
			<g>
				<g>
					<path class="st1" d="M646.96,457.17l15.96-27.12l-7.61-4.48l-5.4,9.18c-2.47-2.34-5.11-4.47-7.91-6.37l4.84-8.27l-7.62-4.46
						l-4.85,8.29c-0.51-0.25-6.42-2.79-8.93-3.59l4.4-7.75l-7.68-4.36l-5.65,9.97c-2.1-0.34-4.23-0.58-6.38-0.72v-19.86h7.78v-8.83
						h-7.78v-8.9h-8.83v8.9h-7.78v8.83h7.78v19.86c-2.14,0.14-4.25,0.37-6.33,0.7l-5.61-9.94l-7.69,4.34l4.34,7.69
						c-3.04,0.95-6,2.11-8.84,3.5l-4.29-7.44l-7.65,4.41l4.3,7.45c-2.82,1.91-5.49,4.07-7.99,6.45l-2.73-4.64l-0.65-1.11l0,0l0,0
						l0,0l-2.02-3.43l-2.89,1.7c-0.1-1.61-0.33-3.25-0.69-4.91c-1.27-5.86-4.17-11.99-8.66-18.35c-2.39-3.39-5.24-6.84-8.54-10.35
						c-1.76-1.88-3.65-3.77-5.67-5.68c-6.69-6.32-13.29-11.4-17.58-14.49c0.24-0.76,0.37-1.56,0.37-2.4c0-3.38-2.12-6.26-5.1-7.39
						v-17.89h-5.62v17.89c-2.98,1.13-5.1,4.01-5.1,7.39c0,0.84,0.13,1.64,0.37,2.4c-4.29,3.1-10.9,8.17-17.58,14.49
						c-3.49,3.3-6.6,6.56-9.32,9.76c0,0-0.01,0.01-0.01,0.01c-1.14,0.99-2.19,2.06-3.16,3.18c-0.61-0.69-1.23-1.38-1.88-2.08l0,0
						c-6.8-7.25-14.39-13.08-18.67-16.14c0.02-0.22,0.04-0.45,0.04-0.68c0-2.26-1.23-4.24-3.05-5.31c-0.1-0.06-0.2-0.11-0.3-0.16
						V362.8h-5.62v13.68c-0.1,0.05-0.2,0.1-0.3,0.16c-1.82,1.07-3.05,3.04-3.05,5.31c0,0.23,0.01,0.46,0.04,0.68
						c-3.35,2.4-8.74,6.5-14.2,11.66c-3.67,3.47-6.8,6.88-9.4,10.22c-6.06,7.8-9.19,15.22-9.32,22.16c-0.14,7.35,3,13.8,9.32,19.23
						c0.49,0.42,1,0.84,1.54,1.25v2.4c0,5.2,2.83,9.74,7.03,12.18v1.37v23.28v44.79h-8.56h-0.01v-50.44
						c-6.64,16.51-10.01,33.98-10.01,51.95c0,2.84,0.09,5.68,0.25,8.49c0.53,8.92,1.91,17.69,4.11,26.27
						c1.11,4.34,2.44,8.62,3.98,12.85c0.81,2.23,1.68,4.45,2.61,6.65c7.02,16.6,17.07,31.51,29.87,44.31
						c7.4,7.4,15.5,13.87,24.22,19.38c3.23,2.04,6.55,3.95,9.95,5.72c3.31,1.72,6.69,3.32,10.14,4.78c1.98,0.84,3.97,1.62,5.97,2.36
						c15.43,5.7,31.64,8.59,48.29,8.59c16.65,0,32.87-2.89,48.29-8.59c2-0.74,3.99-1.53,5.97-2.36c3.46-1.46,6.84-3.06,10.14-4.78
						c3.4-1.77,6.72-3.68,9.95-5.72c8.72-5.51,16.82-11.98,24.22-19.38c10.97-10.97,19.91-23.48,26.67-37.28
						c1.13-2.31,2.2-4.65,3.21-7.03c5.06-11.96,8.38-24.44,9.94-37.27c0.34-2.82,0.6-5.65,0.77-8.5c0.17-2.82,0.25-5.65,0.25-8.49
						v-4.22v-9.83v-0.01L646.96,457.17z M635.05,541.17c2.69,3.11,5.53,6.04,8.59,8.64c0.65,0.55,1.3,1.07,1.95,1.58h-98.08
						c-0.05-0.17-0.11-0.33-0.16-0.5v-9.72v-10.01v-2.71h77.77c0.66,0.9,1.33,1.81,2,2.71
						C629.66,534.58,632.28,537.96,635.05,541.17z M662,575.81v-3.14c0-2.71-2.2-4.91-4.91-4.91c-2.71,0-4.91,2.2-4.91,4.91v6.55
						h8.56c-0.64,1.65-1.31,3.29-2.02,4.91h-93.43c-1.84-1.3-3.52-2.96-5.07-4.91h3.51v-6.55c0-2.71-2.2-4.91-4.91-4.91
						c-1.76,0-3.29,0.92-4.16,2.31c-1.35-2.79-2.59-5.78-3.74-8.86h115.31C665.1,566.19,663.69,571.06,662,575.81z M426.22,453.62
						c-0.34,0-0.67-0.05-0.98-0.12c-1.77-0.44-3.09-2.04-3.09-3.95v-0.32v-2.45h8.04h13.12h17.04v2.45v0.32
						c0,2.25-1.83,4.07-4.07,4.07h-18.64H426.22z M418.94,410.1c1.39-1.74,2.9-3.45,4.47-5.1c0.46-0.48,0.92-0.95,1.38-1.42
						l29.93,35.63h-4.14h-6.8h-3.71l-21.99-28.03C418.37,410.83,418.65,410.46,418.94,410.1z M528.66,401.06
						c0.79,0.86,1.55,1.71,2.28,2.56c2.58,2.99,4.76,5.9,6.54,8.72c-3.44,6.84-9.9,10.58-35.43,8.73
						c-17.68-1.28-27.07,4.7-31.82,9.95c-1.33,1.47-2.39,2.96-3.22,4.39c-0.82-2.13-1.21-4.37-1.17-6.71c0-0.11,0.01-0.21,0.01-0.32
						c0.06-1.82,0.38-3.72,0.95-5.69c0.49-1.7,1.16-3.45,2.02-5.24c1.46-3.07,3.46-6.28,5.97-9.6c4.55-2,10.39-2.76,17.37-2.25
						C510.34,406.9,521.39,405.67,528.66,401.06z M552.21,436.87l12.32,20.29l0,0.01l-15.18,28.7h-3.89h-3.01h-4.93v32.76h-3.05
						h-0.36c-1.55-2.03-3.28-3.71-5.24-4.96v-12.42v-5.26v-9.83v-11.68c7.2-0.62,12.87-6.67,12.87-14.02v-8.29
						c4.86-4.16,8.2-8.79,10-13.86C551.92,437.83,552.07,437.35,552.21,436.87z M483.88,464.53c-2.25,0-4.07-1.83-4.07-4.07v-4.42
						h51.94v4.42c0,2.25-1.83,4.07-4.07,4.07H483.88z M542.35,422.72c0.59,2.07,0.92,4.06,0.95,5.97c0.1,5.24-1.96,9.92-6.24,14.19
						c-1.08,1.07-2.29,2.12-3.65,3.14h-50.47h-7.22c-0.05-0.04-0.09-0.07-0.14-0.11c-0.57-0.43-1.1-0.86-1.62-1.3
						c0.24-1.07,1.16-4.28,4.01-7.25c4.73-4.9,12.8-7.09,23.35-6.33c15.81,1.15,26,0.31,33.03-2.73
						C537.75,426.85,540.33,424.91,542.35,422.72z M567.48,495.69h7.05l0,0h3.12l4.09,0c2.04,0,3.99,0.17,5.85,0.48
						c10.15,1.71,17.83,7.84,24.76,15.74c1.86,2.13,3.68,4.38,5.46,6.71h-70.48v-6.71v-16.22h6.75v0h3.51l6.92,0l0,0H567.48z
						 M625.06,511.92c-4.12-5.32-8.51-10.41-13.49-14.64c-0.89-0.76-1.79-1.48-2.7-2.16c-3.18-2.39-6.46-4.31-9.85-5.76l4.66-7.99
						c0.74-1.27,1.42-2.58,2.04-3.91c0.62,1.34,1.3,2.65,2.05,3.93l19.72,33.72C626.69,514.03,625.88,512.97,625.06,511.92z
						 M463.34,461.71c2.94-1.72,5.21-4.47,6.29-7.76c0.05,0.04,0.1,0.08,0.16,0.12v6.38c0,6.51,4.45,12.01,10.47,13.61v57.1h-16.92
						V461.71z M491.28,541.17c-1.56,5.02-2.65,10.03-3.64,14.54c-1.15,5.29-2.25,10.28-3.68,13.4c-1.19,2.59-1.89,2.51-2.27,2.48
						c-2.97-0.3-4.71-5.46-7.02-13.29c-1.66-5.64-3.54-11.98-6.97-17.12H491.28z M495.86,529.81c-0.23,0.45-0.46,0.89-0.68,1.35
						h-5.44c0.18-0.35,0.35-0.7,0.53-1.05v-55.58h28.61v36.82c-1.81,0.21-3.67,0.73-5.59,1.56
						C505.01,516.49,499.6,522.7,495.86,529.81z M637.54,436c2.76,1.93,5.35,4.13,7.76,6.59l0,0l-8.39,14.27l32.53,61.77h-0.04
						h-0.76h-9.56l-26.1-49.29c-2.07-3.91-3.17-8.32-3.17-12.75c0-4.76,1.26-9.46,3.62-13.56L637.54,436z M620.98,428.21
						c3.08,0.86,6.07,1.97,8.93,3.34l-4.12,7.04c-3.15,5.47-4.82,11.69-4.82,18c0,5.86,1.45,11.7,4.2,16.88l23.91,45.15h-9.31
						l-24.38-41.7c-3.45-5.89-5.27-12.61-5.27-19.43c0-6.64,1.73-13.2,5.01-18.98L620.98,428.21z M605.71,426.16
						c2.06,0,4.1,0.11,6.1,0.32l-4.36,7.69c-0.63,1.1-1.2,2.23-1.73,3.38c-0.53-1.13-1.09-2.25-1.71-3.34l-4.36-7.73
						C601.64,426.26,603.66,426.16,605.71,426.16z M590.47,428.17l5.85,10.36c3.25,5.76,4.97,12.3,4.97,18.91v0.07
						c0,6.81-1.81,13.51-5.24,19.39l-5.7,9.77c-1.77-0.34-3.58-0.58-5.42-0.71c-0.52-0.04-1.04-0.06-1.56-0.08
						c-0.54-0.02-1.08-0.03-1.63-0.03h-1.99l6.58-12.39c2.75-5.18,4.2-11.02,4.2-16.88c0-6.31-1.67-12.53-4.82-18l-4.12-7.13
						C584.45,430.11,587.41,429.01,590.47,428.17z M573.97,435.88l4.11,7.12c2.38,4.13,3.64,8.83,3.64,13.59
						c0,4.43-1.1,8.83-3.17,12.74l-8.78,16.53h-3.98h-2.94h-3.55l15.3-29.01l-8.44-14.35C568.57,440.03,571.18,437.82,573.97,435.88
						z M486.22,395.27c7.24-6.86,14.54-12.26,18.36-14.95c3.49,2.46,9.9,7.19,16.51,13.23c0.04,0.04,0.08,0.07,0.12,0.11
						c-4.95,2.14-13.23,3.03-28.32,1.94c-2.38-0.17-4.67-0.22-6.87-0.14C486.08,395.4,486.15,395.34,486.22,395.27z M457.79,405.61
						c1.24,1.33,2.39,2.64,3.45,3.94c-1.2,2.39-2.14,4.74-2.87,6.86c-0.19,0.48-0.37,0.96-0.53,1.44c-0.85,2.45-1.43,4.86-1.74,7.22
						c-0.01,0.07-0.02,0.13-0.02,0.2l-23.89-28.44c0.73-0.62,1.46-1.21,2.17-1.79c2.15-1.73,4.18-3.25,5.94-4.49
						C444.14,393.3,451.44,398.84,457.79,405.61 M411.28,426.86c0.02-1.26,0.21-2.54,0.54-3.83c0.22-0.85,0.5-1.7,0.83-2.55
						l14.71,18.75h-9.12c-1.03-0.8-1.94-1.61-2.74-2.45C412.61,433.76,411.22,430.49,411.28,426.86z M429.18,465.94v-2.32h1.43
						h22.73v67.53h-2.21c-1.59-0.14-3.25-0.14-4.99,0h-16.96V465.94z M540,662.07c-19.59,0-38.18-4.38-54.84-12.21
						c4.4-3.23,8.65-6.71,12.74-10.43c3.96-3.61,7.76-7.44,11.39-11.49l9.57,7.51l10.52-8.26l10.52,8.25l10.52-8.25l10.52,8.25
						l9.7-7.61c3.66,4.08,7.49,7.95,11.48,11.59c4.08,3.72,8.34,7.2,12.74,10.43C578.18,657.69,559.59,662.07,540,662.07z
						 M515.76,620.3c3.97-4.99,7.71-10.25,11.19-15.76h26.1c3.46,5.48,7.17,10.7,11.11,15.65l-3.24,2.54l-10.52-8.25l-10.52,8.25
						l-10.52-8.25l-10.52,8.25L515.76,620.3z M604.81,644.64c-14.08-9.64-30.66-24.71-44.7-47.71l-1.46-2.4h-37.28l-1.46,2.4
						c-14.04,23.01-30.62,38.07-44.7,47.71c-28.56-16.6-50.23-43.8-59.56-76.19c5.68-11.07,15.98-25.83,30.96-27.29h4.07
						c3.46,0.41,6.06,1.96,8.19,4.82c2.9,3.88,4.58,9.6,6.21,15.13c1.34,4.54,2.6,8.83,4.57,12.38c2.69,4.87,6.41,7.57,11.04,8.04
						c3.73,0.38,8.9-0.75,12.36-8.24c1.89-4.1,3.04-9.36,4.37-15.46c1.2-5.51,2.47-11.31,4.37-16.68c1.28-3.61,2.83-7.02,4.85-10.01
						c2.63-3.9,6.05-7.09,10.62-9.06c2.95-1.27,4.55-0.85,5.49-0.42c2.64,1.2,4.96,4.75,7.09,9.48c1.34,2.97,2.6,6.4,3.83,10.01
						c0.93,2.73,1.83,5.56,2.73,8.37c0.2,0.61,0.39,1.23,0.59,1.84c2.89,9.02,6.02,18.45,10.35,26.4c1.23,2.25,2.55,4.39,3.99,6.36
						c3,4.1,6.51,7.51,10.74,9.83c2.15,1.18,4.47,2.08,7.01,2.65c7.99,1.79,16.03,3.26,23.8,4.68c20.01,3.66,39.02,7.15,46.31,14.36
						C629.54,627.2,617.9,637.03,604.81,644.64z M645.35,607.73c-7.8-6.94-21.33-10.59-37.29-13.76h45.87
						C651.36,598.74,648.49,603.34,645.35,607.73z M668.1,550.97c-7.6-1.17-13.83-4.8-19.39-9.81c-3.25-2.94-6.28-6.34-9.21-10.01
						c-0.71-0.89-1.42-1.79-2.12-2.71h31.17v2.71v10.01v6.32C668.42,548.65,668.27,549.82,668.1,550.97z"/>
				</g>
			</g>
			<g>
				<g>
					<path class="st1" d="M558.82,502.24c-2.71,0-4.91,2.2-4.91,4.91v6.55h9.83v-1.79v-4.76c0-0.98-0.29-1.9-0.79-2.67
						C562.06,503.14,560.55,502.24,558.82,502.24z"/>
				</g>
			</g>
			<g>
				<g>
					<path class="st1" d="M583.38,511.92v-4.76c0-0.93-0.26-1.8-0.71-2.54c-0.86-1.42-2.42-2.38-4.2-2.38
						c-2.71,0-4.91,2.2-4.91,4.91v6.55h9.83V511.92z"/>
				</g>
			</g>
			<g>
				<g>
					<path class="st1" d="M603.04,511.92v-4.76c0-2.71-2.2-4.91-4.91-4.91c-2.71,0-4.91,2.2-4.91,4.91v4.76v1.79h9.83V511.92z"/>
				</g>
			</g>
		</g>
	</g>
</g>
<g>
	<g>
		<g>
			<path class="st1" d="M429.78,714.2c0.95-0.93,1.29-2.3,0.88-3.56c-0.41-1.27-1.49-2.17-2.81-2.37l-11.54-1.68
				c-0.23-0.03-0.42-0.18-0.52-0.38l-5.16-10.45c-0.59-1.2-1.78-1.94-3.12-1.94c-1.33,0-2.53,0.74-3.12,1.94l-5.16,10.45
				c-0.1,0.21-0.3,0.35-0.52,0.38l-11.54,1.68c-1.32,0.19-2.39,1.1-2.81,2.37c-0.41,1.27-0.07,2.63,0.88,3.56l8.35,8.14
				c0.16,0.16,0.24,0.39,0.2,0.62l-1.97,11.49c-0.23,1.31,0.3,2.62,1.38,3.4c1.08,0.78,2.48,0.89,3.66,0.26l10.32-5.42
				c0.2-0.11,0.44-0.11,0.65,0l10.32,5.42c0.51,0.27,1.07,0.4,1.62,0.4c0.72,0,1.43-0.22,2.04-0.67c1.08-0.78,1.61-2.09,1.38-3.4
				l-1.97-11.49c-0.04-0.23,0.04-0.46,0.2-0.62L429.78,714.2z"/>
		</g>
	</g>
	<g>
		<g>
			<path class="st1" d="M496.02,714.2c0.95-0.93,1.29-2.3,0.88-3.56c-0.41-1.27-1.49-2.17-2.81-2.37l-11.54-1.68
				c-0.23-0.03-0.42-0.18-0.52-0.38l-5.16-10.45c-0.59-1.2-1.78-1.94-3.12-1.94c-1.33,0-2.53,0.74-3.12,1.94l-5.16,10.45
				c-0.1,0.21-0.3,0.35-0.52,0.38l-11.54,1.68c-1.32,0.19-2.39,1.1-2.81,2.37s-0.07,2.63,0.88,3.56l8.35,8.14
				c0.16,0.16,0.24,0.39,0.2,0.62l-1.97,11.49c-0.23,1.31,0.3,2.62,1.38,3.4c1.08,0.78,2.48,0.89,3.66,0.26l10.32-5.42
				c0.2-0.11,0.44-0.11,0.65,0l10.32,5.42c0.51,0.27,1.07,0.4,1.62,0.4c0.72,0,1.43-0.22,2.04-0.67c1.08-0.78,1.61-2.09,1.38-3.4
				l-1.97-11.49c-0.04-0.23,0.04-0.46,0.2-0.62L496.02,714.2z"/>
		</g>
	</g>
	<g>
		<g>
			<path class="st1" d="M562.26,714.2c0.95-0.93,1.29-2.3,0.88-3.56c-0.41-1.27-1.49-2.17-2.81-2.37l-11.54-1.68
				c-0.23-0.03-0.42-0.18-0.52-0.38l-5.16-10.45c-0.59-1.2-1.78-1.94-3.12-1.94s-2.53,0.74-3.12,1.94l-5.16,10.45
				c-0.1,0.21-0.3,0.35-0.52,0.38l-11.54,1.68c-1.32,0.19-2.39,1.1-2.81,2.37s-0.07,2.63,0.88,3.56l8.35,8.14
				c0.16,0.16,0.24,0.39,0.2,0.62l-1.97,11.49c-0.23,1.31,0.3,2.62,1.38,3.4c1.08,0.78,2.48,0.89,3.66,0.26l10.32-5.42
				c0.2-0.11,0.44-0.11,0.65,0l10.32,5.42c0.51,0.27,1.07,0.4,1.62,0.4c0.72,0,1.43-0.22,2.04-0.67c1.08-0.78,1.61-2.09,1.38-3.4
				l-1.97-11.49c-0.04-0.23,0.04-0.46,0.2-0.62L562.26,714.2z"/>
		</g>
	</g>
	<g>
		<g>
			<path class="st1" d="M628.5,714.2c0.95-0.93,1.29-2.3,0.88-3.56c-0.41-1.27-1.49-2.17-2.81-2.37l-11.54-1.68
				c-0.23-0.03-0.42-0.18-0.52-0.38l-5.16-10.45c-0.59-1.2-1.78-1.94-3.12-1.94s-2.53,0.74-3.12,1.94l-5.16,10.45
				c-0.1,0.21-0.3,0.35-0.52,0.38l-11.54,1.68c-1.32,0.19-2.39,1.1-2.81,2.37s-0.07,2.63,0.88,3.56l8.35,8.14
				c0.16,0.16,0.24,0.39,0.2,0.62l-1.97,11.49c-0.23,1.31,0.3,2.62,1.38,3.4c1.08,0.78,2.48,0.89,3.66,0.26l10.32-5.42
				c0.2-0.11,0.44-0.11,0.65,0l10.32,5.42c0.51,0.27,1.07,0.4,1.62,0.4c0.72,0,1.43-0.22,2.04-0.67c1.08-0.78,1.61-2.09,1.38-3.4
				l-1.97-11.49c-0.04-0.23,0.04-0.46,0.2-0.62L628.5,714.2z"/>
		</g>
	</g>
	<g>
		<g>
			<path class="st1" d="M694.75,714.2c0.95-0.93,1.29-2.3,0.88-3.56c-0.41-1.27-1.49-2.17-2.81-2.37l-11.54-1.68
				c-0.23-0.03-0.42-0.18-0.52-0.38l-5.16-10.45c-0.59-1.2-1.78-1.94-3.12-1.94s-2.53,0.74-3.12,1.94l-5.16,10.45
				c-0.1,0.21-0.3,0.35-0.52,0.38l-11.54,1.68c-1.32,0.19-2.39,1.1-2.81,2.37c-0.41,1.27-0.08,2.63,0.88,3.56l8.35,8.14
				c0.16,0.16,0.24,0.39,0.2,0.62l-1.97,11.49c-0.23,1.31,0.3,2.62,1.38,3.4c1.08,0.78,2.48,0.89,3.66,0.26l10.32-5.42
				c0.2-0.11,0.44-0.11,0.65,0l10.32,5.42c0.51,0.27,1.07,0.4,1.62,0.4c0.72,0,1.43-0.22,2.04-0.67c1.08-0.78,1.61-2.09,1.38-3.4
				l-1.97-11.49c-0.04-0.23,0.04-0.46,0.2-0.62L694.75,714.2z"/>
		</g>
	</g>
</g>
</svg>
