<?xml version="1.0" encoding="UTF-8" standalone="no"?>
<svg
   viewBox="0 0 500.17 500.17"
   version="1.1"
   id="svg2082"
   sodipodi:docname="curadoria-de-viagens-icone-coloridonew.svg"
   inkscape:version="1.1.1 (c3084ef, 2021-09-22)"
   xmlns:inkscape="http://www.inkscape.org/namespaces/inkscape"
   xmlns:sodipodi="http://sodipodi.sourceforge.net/DTD/sodipodi-0.dtd"
   xmlns="http://www.w3.org/2000/svg"
   xmlns:svg="http://www.w3.org/2000/svg"
   xmlns:rdf="http://www.w3.org/1999/02/22-rdf-syntax-ns#"
   xmlns:cc="http://creativecommons.org/ns#"
   xmlns:dc="http://purl.org/dc/elements/1.1/">
  <sodipodi:namedview
     id="namedview2084"
     pagecolor="#ffffff"
     bordercolor="#666666"
     borderopacity="1.0"
     inkscape:pageshadow="2"
     inkscape:pageopacity="0.0"
     inkscape:pagecheckerboard="0"
     showgrid="false"
     inkscape:zoom="0.29060894"
     inkscape:cx="325.17926"
     inkscape:cy="449.05707"
     inkscape:window-width="1280"
     inkscape:window-height="679"
     inkscape:window-x="0"
     inkscape:window-y="23"
     inkscape:window-maximized="0"
     inkscape:current-layer="svg2082" />
  <defs
     id="defs1965">
    <style
       id="style1960">.cls-1{fill:none;}.cls-2{fill:#ff4672;}.cls-3{fill:#1e1e1e;}.cls-4{clip-path:url(#clip-path);}</style>
    <clipPath
       id="clip-path">
      <rect
         class="cls-1"
         x="45.13"
         y="45.21"
         width="409.91"
         height="409.91"
         id="rect1962" />
    </clipPath>
  </defs>
  <title
     id="title1967">rosaAtivo 1</title>
  <style
     type="text/css"
     id="style2499">
	.st0{fill:#FFFFFF;}
	.st1{fill:#0068FF;}
	.st2{fill:#598AD1;}
	.st3{fill:#FAB1A5;}
	.st4{fill:#2E706C;}
	.st5{fill:#FDC872;}
	.st6{fill:#DA6668;}
	.st7{fill:#1E1E1E;}
</style>
  <style
     type="text/css"
     id="style2938">
	.st0{fill:#FFFFFF;}
	.st1{fill:#0068FF;}
	.st2{fill:#598AD1;}
	.st3{fill:#FAB1A5;}
	.st4{fill:#2E706C;}
	.st5{fill:#FDC872;}
	.st6{fill:#DA6668;}
	.st7{fill:#1E1E1E;}
</style>
  <g
     id="g3120"
     transform="matrix(0.3797207,0,0,0.41155003,-88.308111,10.448878)">
    <g
       id="g3054"
       transform="matrix(1.7899111,0,0,1.5588004,-416.19726,-254.76973)">
      <path
         class="st2"
         d="m 478.46,649.72 32.22,-29.33 8.19,7.78 9.56,-5.11 10.47,3.52 13.78,-6.19 9.11,8.89 8.7,-7.17 c 0,0 32.63,27.39 31.74,27.61 -0.89,0.22 -31.74,12.89 -31.74,12.89 l -58.93,1.11 z"
         id="path2972" />
      <polygon
         class="st3"
         points="463.34,455.4 427.36,459.65 418.09,449.58 415.64,445.4 411.28,438.6 404.17,427.55 410.6,403.88 436.41,384.83 442.63,387.57 467.7,407.29 494.83,379.7 505.77,374.16 539.96,407.29 547.35,424.64 539.96,447.75 531.74,465.86 515.76,471.61 499.35,465.86 479.8,465.86 473.97,463 473.97,449.58 467.7,445.4 "
         id="polygon2974" />
      <polyline
         class="st4"
         points="480.26,576.5 471.8,567.14 465.84,545.84 446.71,534.38 427.36,540.69 411.28,567.14 422.15,596.77    441.25,622.11 479.49,649.72 501.66,626.57 523.87,598.99 553.9,598.99 567.13,618.9 605.73,649.72 645.59,614.07 608.57,598.99    559.29,588.78 550.91,576.5 540,545.84 531.74,527.83 518.88,514.28 504.88,524.33 491.28,547.82 489.74,570.96  "
         id="polyline2976" />
      <polygon
         class="st5"
         points="540,537.91 559.29,583.26 573.56,587.77 658.98,588.83 666.22,576.5 669.43,555.75 649.62,547.82 637.38,534.38 622.69,523.26 617.83,509.56 604.72,496.77 583.38,488.98 540,491.93 "
         id="polygon2978" />
      <rect
         x="424.91"
         y="456.79999"
         class="st6"
         width="35.439999"
         height="77.580002"
         id="rect2980" />
      <polygon
         class="st6"
         points="523.87,516.86 521.33,466.75 485.89,466.75 485.89,534.38 "
         id="polygon2982" />
      <g
         id="g3052">
        <g
           id="g2986">
          <path
             class="st7"
             d="m 558.82,534.38 c -2.71,0 -4.91,2.2 -4.91,4.91 v 1.25 5.3 h 9.83 v -5.3 -1.25 c -0.01,-2.71 -2.21,-4.91 -4.92,-4.91 z"
             id="path2984" />
        </g>
        <g
           id="g2990">
          <path
             class="st7"
             d="m 578.47,534.38 c -2.71,0 -4.91,2.2 -4.91,4.91 v 1.25 5.3 h 9.83 v -5.3 -1.25 c -0.01,-2.71 -2.21,-4.91 -4.92,-4.91 z"
             id="path2988" />
        </g>
        <g
           id="g2994">
          <path
             class="st7"
             d="m 598.12,534.38 c -2.71,0 -4.91,2.2 -4.91,4.91 v 1.25 5.3 h 9.83 v -5.3 -1.25 c 0,-2.71 -2.2,-4.91 -4.92,-4.91 z"
             id="path2992" />
        </g>
        <g
           id="g2998">
          <path
             class="st7"
             d="m 617.78,534.38 c -2.71,0 -4.91,2.2 -4.91,4.91 v 1.25 5.3 h 9.83 v -5.3 -1.25 c -0.01,-2.71 -2.21,-4.91 -4.92,-4.91 z"
             id="path2996" />
        </g>
        <g
           id="g3002">
          <path
             class="st7"
             d="m 583.38,572.05 c 0,-2.71 -2.2,-4.91 -4.91,-4.91 -2.71,0 -4.91,2.2 -4.91,4.91 v 6.55 h 9.83 v -6.55 z"
             id="path3000" />
        </g>
        <g
           id="g3006">
          <path
             class="st7"
             d="m 603.04,572.05 c 0,-2.71 -2.2,-4.91 -4.91,-4.91 -2.71,0 -4.91,2.2 -4.91,4.91 v 6.55 h 9.83 v -6.55 z"
             id="path3004" />
        </g>
        <g
           id="g3010">
          <path
             class="st7"
             d="m 622.69,572.05 c 0,-2.71 -2.2,-4.91 -4.91,-4.91 -2.71,0 -4.91,2.2 -4.91,4.91 v 6.55 h 9.83 v -6.55 z"
             id="path3008" />
        </g>
        <g
           id="g3014">
          <path
             class="st7"
             d="m 642.35,572.05 c 0,-2.71 -2.2,-4.91 -4.91,-4.91 -2.71,0 -4.91,2.2 -4.91,4.91 v 6.55 h 9.83 v -6.55 z"
             id="path3012" />
        </g>
        <g
           id="g3018">
          <path
             class="st7"
             d="m 446.65,479.06 v -4.07 c 0,-2.88 -2.34,-5.22 -5.22,-5.22 -2.88,0 -5.22,2.34 -5.22,5.22 v 4.07 2.89 h 10.44 z"
             id="path3016" />
        </g>
        <g
           id="g3022">
          <path
             class="st7"
             d="m 446.65,494.2 c 0,-2.88 -2.34,-5.22 -5.22,-5.22 -2.88,0 -5.22,2.34 -5.22,5.22 v 6.96 h 10.44 z"
             id="path3020" />
        </g>
        <g
           id="g3026">
          <path
             class="st7"
             d="m 504.57,479.95 c -2.88,0 -5.22,2.34 -5.22,5.22 v 6.96 h 10.44 v -6.96 c 0,-2.88 -2.33,-5.22 -5.22,-5.22 z"
             id="path3024" />
        </g>
        <g
           id="g3030">
          <path
             class="st7"
             d="m 504.57,497.38 c -2.88,0 -5.22,2.34 -5.22,5.22 v 6.96 h 10.44 v -6.96 c 0,-2.88 -2.33,-5.22 -5.22,-5.22 z"
             id="path3028" />
        </g>
        <g
           id="g3034">
          <path
             class="st7"
             d="m 446.65,513.41 c 0,-2.88 -2.34,-5.22 -5.22,-5.22 -2.88,0 -5.22,2.34 -5.22,5.22 v 6.96 h 10.44 z"
             id="path3032" />
        </g>
        <g
           id="g3038">
          <path
             class="st7"
             d="m 646.96,456.54 15.96,-27.12 -7.61,-4.48 -5.4,9.18 c -2.47,-2.34 -5.11,-4.47 -7.91,-6.37 l 4.84,-8.27 -7.62,-4.46 -4.85,8.29 c -0.51,-0.25 -6.42,-2.79 -8.93,-3.59 l 4.4,-7.75 -7.68,-4.36 -5.65,9.97 c -2.1,-0.34 -4.23,-0.58 -6.38,-0.72 V 397 h 7.78 v -8.83 h -7.78 v -8.9 h -8.83 v 8.9 h -7.78 V 397 h 7.78 v 19.86 c -2.14,0.14 -4.25,0.37 -6.33,0.7 l -5.61,-9.94 -7.69,4.34 4.34,7.69 c -3.04,0.95 -6,2.11 -8.84,3.5 l -4.29,-7.44 -7.65,4.41 4.3,7.45 c -2.82,1.91 -5.49,4.07 -7.99,6.45 l -2.73,-4.64 -0.65,-1.11 v 0 0 0 l -2.02,-3.43 -2.89,1.7 c -0.1,-1.61 -0.33,-3.25 -0.69,-4.91 -1.27,-5.86 -4.17,-11.99 -8.66,-18.35 -2.39,-3.39 -5.24,-6.84 -8.54,-10.35 -1.76,-1.88 -3.65,-3.77 -5.67,-5.68 -6.69,-6.32 -13.29,-11.4 -17.58,-14.49 0.24,-0.76 0.37,-1.56 0.37,-2.4 0,-3.38 -2.12,-6.26 -5.1,-7.39 v -17.89 h -5.62 v 17.89 c -2.98,1.13 -5.1,4.01 -5.1,7.39 0,0.84 0.13,1.64 0.37,2.4 -4.29,3.1 -10.9,8.17 -17.58,14.49 -3.49,3.3 -6.6,6.56 -9.32,9.76 0,0 -0.01,0.01 -0.01,0.01 -1.14,0.99 -2.19,2.06 -3.16,3.18 -0.61,-0.69 -1.23,-1.38 -1.88,-2.08 v 0 c -6.8,-7.25 -14.39,-13.08 -18.67,-16.14 0.02,-0.22 0.04,-0.45 0.04,-0.68 0,-2.26 -1.23,-4.24 -3.05,-5.31 -0.1,-0.06 -0.2,-0.11 -0.3,-0.16 v -13.68 h -5.62 v 13.68 c -0.1,0.05 -0.2,0.1 -0.3,0.16 -1.82,1.07 -3.05,3.04 -3.05,5.31 0,0.23 0.01,0.46 0.04,0.68 -3.35,2.4 -8.74,6.5 -14.2,11.66 -3.67,3.47 -6.8,6.88 -9.4,10.22 -6.06,7.8 -9.19,15.22 -9.32,22.16 -0.14,7.35 3,13.8 9.32,19.23 0.49,0.42 1,0.84 1.54,1.25 v 2.4 c 0,5.2 2.83,9.74 7.03,12.18 v 1.37 23.28 44.79 h -8.56 -0.01 V 480.1 c -6.64,16.51 -10.01,33.98 -10.01,51.95 0,2.84 0.09,5.68 0.25,8.49 0.53,8.92 1.91,17.69 4.11,26.27 1.11,4.34 2.44,8.62 3.98,12.85 0.81,2.23 1.68,4.45 2.61,6.65 7.02,16.6 17.07,31.51 29.87,44.31 7.4,7.4 15.5,13.87 24.22,19.38 3.23,2.04 6.55,3.95 9.95,5.72 3.31,1.72 6.69,3.32 10.14,4.78 1.98,0.84 3.97,1.62 5.97,2.36 15.43,5.7 31.64,8.59 48.29,8.59 16.65,0 32.87,-2.89 48.29,-8.59 2,-0.74 3.99,-1.53 5.97,-2.36 3.46,-1.46 6.84,-3.06 10.14,-4.78 3.4,-1.77 6.72,-3.68 9.95,-5.72 8.72,-5.51 16.82,-11.98 24.22,-19.38 10.97,-10.97 19.91,-23.48 26.67,-37.28 1.13,-2.31 2.2,-4.65 3.21,-7.03 5.06,-11.96 8.38,-24.44 9.94,-37.27 0.34,-2.82 0.6,-5.65 0.77,-8.5 0.17,-2.82 0.25,-5.65 0.25,-8.49 v -4.22 -9.83 -0.01 z m -11.91,84 c 2.69,3.11 5.53,6.04 8.59,8.64 0.65,0.55 1.3,1.07 1.95,1.58 h -98.08 c -0.05,-0.17 -0.11,-0.33 -0.16,-0.5 v -9.72 -10.01 -2.71 h 77.77 c 0.66,0.9 1.33,1.81 2,2.71 2.54,3.42 5.16,6.81 7.93,10.01 z M 662,575.19 v -3.14 c 0,-2.71 -2.2,-4.91 -4.91,-4.91 -2.71,0 -4.91,2.2 -4.91,4.91 v 6.55 h 8.56 c -0.64,1.65 -1.31,3.29 -2.02,4.91 h -93.43 c -1.84,-1.3 -3.52,-2.96 -5.07,-4.91 h 3.51 v -6.55 c 0,-2.71 -2.2,-4.91 -4.91,-4.91 -1.76,0 -3.29,0.92 -4.16,2.31 -1.35,-2.79 -2.59,-5.78 -3.74,-8.86 h 115.31 c -1.13,4.97 -2.54,9.85 -4.23,14.6 z M 426.22,452.99 c -0.34,0 -0.67,-0.05 -0.98,-0.12 -1.77,-0.44 -3.09,-2.04 -3.09,-3.95 v -0.32 -2.45 h 8.04 13.12 17.04 v 2.45 0.32 c 0,2.25 -1.83,4.07 -4.07,4.07 h -18.64 z m -7.28,-43.51 c 1.39,-1.74 2.9,-3.45 4.47,-5.1 0.46,-0.48 0.92,-0.95 1.38,-1.42 l 29.93,35.63 h -4.14 -6.8 -3.71 l -21.99,-28.03 c 0.29,-0.36 0.57,-0.72 0.86,-1.08 z m 109.72,-9.04 c 0.79,0.86 1.55,1.71 2.28,2.56 2.58,2.99 4.76,5.9 6.54,8.72 -3.44,6.84 -9.9,10.58 -35.43,8.73 -17.68,-1.28 -27.07,4.7 -31.82,9.95 -1.33,1.47 -2.39,2.96 -3.22,4.39 -0.82,-2.13 -1.21,-4.37 -1.17,-6.71 0,-0.11 0.01,-0.21 0.01,-0.32 0.06,-1.82 0.38,-3.72 0.95,-5.69 0.49,-1.7 1.16,-3.45 2.02,-5.24 1.46,-3.07 3.46,-6.28 5.97,-9.6 4.55,-2 10.39,-2.76 17.37,-2.25 18.18,1.3 29.23,0.06 36.5,-4.54 z m 23.55,35.8 12.32,20.29 v 0.01 l -15.18,28.7 h -3.89 -3.01 -4.93 V 518 h -3.05 -0.36 c -1.55,-2.03 -3.28,-3.71 -5.24,-4.96 v -12.42 -5.26 -9.83 -11.68 c 7.2,-0.62 12.87,-6.67 12.87,-14.02 v -8.29 c 4.86,-4.16 8.2,-8.79 10,-13.86 0.18,-0.48 0.33,-0.96 0.47,-1.44 z m -68.33,27.66 c -2.25,0 -4.07,-1.83 -4.07,-4.07 v -4.42 h 51.94 v 4.42 c 0,2.25 -1.83,4.07 -4.07,4.07 z m 58.47,-41.81 c 0.59,2.07 0.92,4.06 0.95,5.97 0.1,5.24 -1.96,9.92 -6.24,14.19 -1.08,1.07 -2.29,2.12 -3.65,3.14 h -50.47 -7.22 c -0.05,-0.04 -0.09,-0.07 -0.14,-0.11 -0.57,-0.43 -1.1,-0.86 -1.62,-1.3 0.24,-1.07 1.16,-4.28 4.01,-7.25 4.73,-4.9 12.8,-7.09 23.35,-6.33 15.81,1.15 26,0.31 33.03,-2.73 3.4,-1.44 5.98,-3.38 8,-5.58 z m 25.13,72.98 h 7.05 v 0 h 3.12 4.09 c 2.04,0 3.99,0.17 5.85,0.48 10.15,1.71 17.83,7.84 24.76,15.74 1.86,2.13 3.68,4.38 5.46,6.71 h -70.48 v -6.71 -16.22 h 6.75 v 0 h 3.51 6.92 v 0 z m 57.58,16.22 c -4.12,-5.32 -8.51,-10.41 -13.49,-14.64 -0.89,-0.76 -1.79,-1.48 -2.7,-2.16 -3.18,-2.39 -6.46,-4.31 -9.85,-5.76 l 4.66,-7.99 c 0.74,-1.27 1.42,-2.58 2.04,-3.91 0.62,1.34 1.3,2.65 2.05,3.93 l 19.72,33.72 c -0.8,-1.07 -1.61,-2.13 -2.43,-3.19 z m -161.72,-50.2 c 2.94,-1.72 5.21,-4.47 6.29,-7.76 0.05,0.04 0.1,0.08 0.16,0.12 v 6.38 c 0,6.51 4.45,12.01 10.47,13.61 v 57.1 h -16.92 z m 27.94,79.45 c -1.56,5.02 -2.65,10.03 -3.64,14.54 -1.15,5.29 -2.25,10.28 -3.68,13.4 -1.19,2.59 -1.89,2.51 -2.27,2.48 -2.97,-0.3 -4.71,-5.46 -7.02,-13.29 -1.66,-5.64 -3.54,-11.98 -6.97,-17.12 h 23.58 z m 4.58,-11.35 c -0.23,0.45 -0.46,0.89 -0.68,1.35 h -5.44 c 0.18,-0.35 0.35,-0.7 0.53,-1.05 v -55.58 h 28.61 v 36.82 c -1.81,0.21 -3.67,0.73 -5.59,1.56 -8.28,3.57 -13.69,9.79 -17.43,16.9 z m 141.68,-93.81 c 2.76,1.93 5.35,4.13 7.76,6.59 v 0 l -8.39,14.27 32.52,61.76 h -0.04 -0.76 -9.56 l -26.1,-49.29 c -2.07,-3.91 -3.17,-8.32 -3.17,-12.75 0,-4.76 1.26,-9.46 3.62,-13.56 z m -16.56,-7.8 c 3.08,0.86 6.07,1.97 8.93,3.34 l -4.12,7.04 c -3.15,5.47 -4.82,11.69 -4.82,18 0,5.86 1.45,11.7 4.2,16.88 L 649.08,518 h -9.31 l -24.38,-41.7 c -3.45,-5.89 -5.27,-12.61 -5.27,-19.43 0,-6.64 1.73,-13.2 5.01,-18.98 z m -15.27,-2.05 c 2.06,0 4.1,0.11 6.1,0.32 l -4.36,7.69 c -0.63,1.1 -1.2,2.23 -1.73,3.38 -0.53,-1.13 -1.09,-2.25 -1.71,-3.34 l -4.36,-7.73 c 1.99,-0.21 4.01,-0.32 6.06,-0.32 z m -15.24,2.02 5.85,10.36 c 3.25,5.76 4.97,12.3 4.97,18.91 v 0.07 c 0,6.81 -1.81,13.51 -5.24,19.39 l -5.7,9.77 c -1.77,-0.34 -3.58,-0.58 -5.42,-0.71 -0.52,-0.04 -1.04,-0.06 -1.56,-0.08 -0.54,-0.02 -1.08,-0.03 -1.63,-0.03 h -1.99 l 6.58,-12.39 c 2.75,-5.18 4.2,-11.02 4.2,-16.88 0,-6.31 -1.67,-12.53 -4.82,-18 l -4.12,-7.13 c 2.86,-1.34 5.82,-2.44 8.88,-3.28 z m -16.5,7.7 4.11,7.12 c 2.38,4.13 3.64,8.83 3.64,13.59 0,4.43 -1.1,8.83 -3.17,12.74 l -8.78,16.53 h -3.98 -2.94 -3.55 l 15.3,-29.01 -8.44,-14.35 c 2.41,-2.46 5.02,-4.68 7.81,-6.62 z m -87.75,-40.6 c 7.24,-6.86 14.54,-12.26 18.36,-14.95 3.49,2.46 9.9,7.19 16.51,13.23 0.04,0.04 0.08,0.07 0.12,0.11 -4.95,2.14 -13.23,3.03 -28.32,1.94 -2.38,-0.17 -4.67,-0.22 -6.87,-0.14 0.06,-0.07 0.13,-0.13 0.2,-0.19 z m -28.43,10.34 c 1.24,1.33 2.39,2.64 3.45,3.94 -1.2,2.39 -2.14,4.74 -2.87,6.86 -0.19,0.48 -0.37,0.96 -0.53,1.44 -0.85,2.45 -1.43,4.86 -1.74,7.22 -0.01,0.07 -0.02,0.13 -0.02,0.2 l -23.89,-28.44 c 0.73,-0.62 1.46,-1.21 2.17,-1.79 2.15,-1.73 4.18,-3.25 5.94,-4.49 3.84,2.74 11.14,8.29 17.49,15.06 m -46.51,21.25 c 0.02,-1.26 0.21,-2.54 0.54,-3.83 0.22,-0.85 0.5,-1.7 0.83,-2.55 l 14.71,18.75 h -9.12 c -1.03,-0.8 -1.94,-1.61 -2.74,-2.45 -2.89,-3.03 -4.28,-6.3 -4.22,-9.92 z m 17.9,39.08 V 463 h 1.43 22.73 v 67.53 h -2.21 c -1.59,-0.14 -3.25,-0.14 -4.99,0 H 429.18 Z M 540,661.44 c -19.59,0 -38.18,-4.38 -54.84,-12.21 4.4,-3.23 8.65,-6.71 12.74,-10.43 3.96,-3.61 7.76,-7.44 11.39,-11.49 l 9.57,7.51 10.52,-8.26 10.52,8.25 10.52,-8.25 10.52,8.25 9.7,-7.61 c 3.66,4.08 7.49,7.95 11.48,11.59 4.08,3.72 8.34,7.2 12.74,10.43 -16.68,7.85 -35.27,12.22 -54.86,12.22 z m -24.24,-41.77 c 3.97,-4.99 7.71,-10.25 11.19,-15.76 h 26.1 c 3.46,5.48 7.17,10.7 11.11,15.65 l -3.24,2.54 -10.52,-8.25 -10.52,8.25 -10.52,-8.25 -10.52,8.26 z m 89.05,24.34 c -14.08,-9.64 -30.66,-24.71 -44.7,-47.71 l -1.46,-2.4 h -37.28 l -1.46,2.4 c -14.04,23.01 -30.62,38.07 -44.7,47.71 -28.56,-16.6 -50.23,-43.8 -59.56,-76.19 5.68,-11.07 15.98,-25.83 30.96,-27.29 h 4.07 c 3.46,0.41 6.06,1.96 8.19,4.82 2.9,3.88 4.58,9.6 6.21,15.13 1.34,4.54 2.6,8.83 4.57,12.38 2.69,4.87 6.41,7.57 11.04,8.04 3.73,0.38 8.9,-0.75 12.36,-8.24 1.89,-4.1 3.04,-9.36 4.37,-15.46 1.2,-5.51 2.47,-11.31 4.37,-16.68 1.28,-3.61 2.83,-7.02 4.85,-10.01 2.63,-3.9 6.05,-7.09 10.62,-9.06 2.95,-1.27 4.55,-0.85 5.49,-0.42 2.64,1.2 4.96,4.75 7.09,9.48 1.34,2.97 2.6,6.4 3.83,10.01 0.93,2.73 1.83,5.56 2.73,8.37 0.2,0.61 0.39,1.23 0.59,1.84 2.89,9.02 6.02,18.45 10.35,26.4 1.23,2.25 2.55,4.39 3.99,6.36 3,4.1 6.51,7.51 10.74,9.83 2.15,1.18 4.47,2.08 7.01,2.65 7.99,1.79 16.03,3.26 23.8,4.68 20.01,3.66 39.02,7.15 46.31,14.36 -9.65,11.56 -21.29,21.4 -34.38,29 z m 40.54,-36.91 c -7.8,-6.94 -21.33,-10.59 -37.29,-13.76 h 45.87 c -2.57,4.78 -5.44,9.37 -8.58,13.76 z m 22.75,-56.75 c -7.6,-1.17 -13.83,-4.8 -19.39,-9.81 -3.25,-2.94 -6.28,-6.34 -9.21,-10.01 -0.71,-0.89 -1.42,-1.79 -2.12,-2.71 h 31.17 v 2.71 10.01 6.32 c -0.13,1.17 -0.28,2.33 -0.45,3.49 z"
             id="path3036" />
        </g>
        <g
           id="g3042">
          <path
             class="st7"
             d="m 558.82,501.62 c -2.71,0 -4.91,2.2 -4.91,4.91 v 6.55 h 9.83 v -1.79 -4.76 c 0,-0.98 -0.29,-1.9 -0.79,-2.67 -0.89,-1.34 -2.4,-2.24 -4.13,-2.24 z"
             id="path3040" />
        </g>
        <g
           id="g3046">
          <path
             class="st7"
             d="m 583.38,511.29 v -4.76 c 0,-0.93 -0.26,-1.8 -0.71,-2.54 -0.86,-1.42 -2.42,-2.38 -4.2,-2.38 -2.71,0 -4.91,2.2 -4.91,4.91 v 6.55 h 9.83 v -1.78 z"
             id="path3044" />
        </g>
        <g
           id="g3050">
          <path
             class="st7"
             d="m 603.04,511.29 v -4.76 c 0,-2.71 -2.2,-4.91 -4.91,-4.91 -2.71,0 -4.91,2.2 -4.91,4.91 v 4.76 1.79 h 9.83 v -1.79 z"
             id="path3048" />
        </g>
      </g>
    </g>
  </g>
  <g
     id="g866"
     transform="matrix(0.51685562,0,0,0.57208167,-7.707068,-82.04195)"
     style="fill:#000000">
    <g
       id="g848"
       style="fill:#000000">
      <path
         class="st2"
         d="m 471.17,553.88 c -3.19,-0.74 -6.21,-1.81 -9.05,-3.2 -2.84,-1.4 -5.45,-3.17 -7.82,-5.32 -2.37,-2.15 -4.4,-4.59 -6.1,-7.31 -1.7,-2.72 -3.02,-5.84 -3.96,-9.36 -0.94,-3.51 -1.41,-7.27 -1.41,-11.27 0,-3.5 0.39,-6.86 1.16,-10.09 0.77,-3.23 1.88,-6.25 3.33,-9.05 1.45,-2.81 3.28,-5.36 5.5,-7.67 2.22,-2.3 4.72,-4.28 7.49,-5.93 2.77,-1.65 5.93,-2.93 9.48,-3.83 3.55,-0.91 7.32,-1.36 11.32,-1.36 5.35,0 10.68,1.18 16.01,3.53 5.33,2.35 9.96,5.9 13.9,10.64 l -14.37,12.31 c -0.84,-0.94 -1.77,-1.82 -2.8,-2.65 -1.03,-0.82 -2.19,-1.62 -3.51,-2.4 -1.31,-0.77 -2.77,-1.39 -4.36,-1.84 -1.6,-0.45 -3.22,-0.68 -4.87,-0.68 -1.82,0 -3.58,0.25 -5.3,0.76 -1.71,0.5 -3.32,1.29 -4.82,2.35 -1.5,1.06 -2.8,2.34 -3.91,3.83 -1.11,1.5 -1.98,3.28 -2.62,5.35 -0.64,2.07 -0.96,4.31 -0.96,6.73 0,2.49 0.4,4.86 1.21,7.11 0.81,2.25 1.95,4.24 3.43,5.95 1.48,1.71 3.34,3.08 5.57,4.09 2.24,1.01 4.7,1.51 7.39,1.51 2.86,0 5.71,-0.69 8.55,-2.07 2.84,-1.38 5.17,-3.18 6.99,-5.4 l 14.37,12.36 c -3.4,4.17 -7.68,7.55 -12.86,10.14 -5.18,2.59 -10.86,3.88 -17.05,3.88 -3.42,-0.01 -6.74,-0.38 -9.93,-1.11 z"
         id="path826"
         style="fill:#000000" />
      <path
         class="st2"
         d="m 566.85,503.34 v 50.59 h -18.51 v -5.4 h -0.2 c -1.71,2.12 -3.76,3.72 -6.13,4.82 -2.37,1.09 -4.92,1.64 -7.64,1.64 -11.94,0 -17.9,-7.35 -17.9,-22.04 v -29.61 h 18.41 v 25.17 c 0,3.6 0.51,6.2 1.54,7.79 1.03,1.6 2.72,2.4 5.07,2.4 2.05,0 3.71,-0.83 4.97,-2.5 1.26,-1.66 1.89,-4.14 1.89,-7.44 v -25.42 z"
         id="path828"
         style="fill:#000000" />
      <path
         class="st2"
         d="M 608.51,502.28 V 522 c -1.01,-0.07 -2.3,-0.1 -3.88,-0.1 -3.43,0 -6.04,0.9 -7.82,2.7 -1.78,1.8 -2.67,4.21 -2.67,7.24 v 22.09 h -18.46 v -50.59 h 18.46 v 6.91 h 0.15 c 1.78,-2.59 3.89,-4.56 6.33,-5.93 2.44,-1.36 5.04,-2.04 7.79,-2.04 z"
         id="path830"
         style="fill:#000000" />
      <path
         class="st2"
         d="m 665.55,503.34 v 50.59 h -17.5 v -4.74 h -0.15 c -3.03,3.87 -7.36,5.8 -13.01,5.8 -3.43,0 -6.6,-0.65 -9.51,-1.94 -2.91,-1.29 -5.39,-3.09 -7.44,-5.37 -2.05,-2.29 -3.66,-5.07 -4.82,-8.35 -1.16,-3.28 -1.74,-6.85 -1.74,-10.72 0,-3.8 0.57,-7.35 1.71,-10.64 1.14,-3.3 2.72,-6.09 4.72,-8.37 2,-2.29 4.38,-4.08 7.14,-5.37 2.76,-1.29 5.7,-1.94 8.83,-1.94 5.25,0 9.62,2.02 13.11,6.05 h 0.15 v -4.99 h 18.51 z m -20.25,32.68 c 1.7,-1.88 2.55,-4.34 2.55,-7.36 0,-2.96 -0.85,-5.39 -2.55,-7.29 -1.7,-1.9 -3.81,-2.85 -6.33,-2.85 -2.62,0 -4.77,0.94 -6.46,2.82 -1.68,1.88 -2.52,4.32 -2.52,7.31 0,3.06 0.84,5.52 2.52,7.39 1.68,1.87 3.83,2.8 6.46,2.8 2.52,0.01 4.63,-0.94 6.33,-2.82 z"
         id="path832"
         style="fill:#000000" />
      <path
         class="st2"
         d="m 726.78,477.87 v 76.06 h -17.5 v -4.74 h -0.2 c -3.13,3.87 -7.6,5.8 -13.42,5.8 -3.43,0 -6.6,-0.65 -9.51,-1.94 -2.91,-1.29 -5.39,-3.09 -7.44,-5.37 -2.05,-2.29 -3.66,-5.07 -4.82,-8.35 -1.16,-3.28 -1.74,-6.85 -1.74,-10.72 0,-3.8 0.57,-7.35 1.71,-10.64 1.14,-3.3 2.72,-6.09 4.72,-8.37 2,-2.29 4.38,-4.08 7.14,-5.37 2.76,-1.29 5.7,-1.94 8.83,-1.94 5.45,0 9.97,2.03 13.57,6.1 h 0.15 v -30.51 h 18.51 z m -20.32,58.18 c 1.75,-1.87 2.62,-4.33 2.62,-7.39 0,-2.99 -0.87,-5.43 -2.62,-7.31 -1.75,-1.88 -3.98,-2.82 -6.71,-2.82 -2.62,0 -4.77,0.94 -6.46,2.82 -1.68,1.88 -2.52,4.32 -2.52,7.31 0,3.06 0.84,5.52 2.52,7.39 1.68,1.87 3.83,2.8 6.46,2.8 2.72,0 4.96,-0.94 6.71,-2.8 z"
         id="path834"
         style="fill:#000000" />
      <path
         class="st2"
         d="m 747.03,551.68 c -4.22,-2.2 -7.5,-5.3 -9.83,-9.31 -2.33,-4.01 -3.51,-8.57 -3.51,-13.72 0,-5.14 1.17,-9.72 3.51,-13.72 2.34,-4 5.62,-7.11 9.83,-9.33 4.22,-2.22 9.02,-3.33 14.4,-3.33 5.38,0 10.17,1.11 14.37,3.33 4.2,2.22 7.48,5.33 9.84,9.33 2.35,4 3.53,8.57 3.53,13.72 0,5.14 -1.18,9.72 -3.53,13.72 -2.35,4 -5.63,7.1 -9.84,9.31 -4.2,2.2 -8.99,3.3 -14.37,3.3 -5.38,0 -10.18,-1.1 -14.4,-3.3 z m 20.96,-15.84 c 1.75,-1.9 2.62,-4.3 2.62,-7.19 0,-2.96 -0.86,-5.37 -2.57,-7.24 -1.71,-1.87 -3.92,-2.8 -6.61,-2.8 -1.31,0 -2.54,0.25 -3.68,0.76 -1.14,0.5 -2.12,1.19 -2.93,2.07 -0.81,0.87 -1.44,1.93 -1.89,3.18 -0.45,1.24 -0.68,2.59 -0.68,4.03 0,1.14 0.15,2.24 0.45,3.28 0.3,1.04 0.73,1.97 1.29,2.77 0.55,0.81 1.21,1.51 1.97,2.12 0.76,0.61 1.6,1.07 2.52,1.39 0.92,0.32 1.91,0.48 2.95,0.48 2.62,0 4.81,-0.95 6.56,-2.85 z"
         id="path836"
         style="fill:#000000" />
      <path
         class="st2"
         d="M 828.92,502.28 V 522 c -1.01,-0.07 -2.3,-0.1 -3.88,-0.1 -3.43,0 -6.04,0.9 -7.82,2.7 -1.78,1.8 -2.67,4.21 -2.67,7.24 v 22.09 h -18.46 v -50.59 h 18.46 v 6.91 h 0.15 c 1.78,-2.59 3.89,-4.56 6.33,-5.93 2.44,-1.36 5.04,-2.04 7.79,-2.04 z"
         id="path838"
         style="fill:#000000" />
      <path
         class="st2"
         d="m 836.63,494.74 c -1.98,-1.9 -2.98,-4.28 -2.98,-7.14 0,-1.82 0.45,-3.47 1.34,-4.97 0.89,-1.5 2.15,-2.68 3.78,-3.56 1.63,-0.87 3.45,-1.31 5.47,-1.31 3.09,0 5.63,0.93 7.62,2.8 1.98,1.87 2.98,4.21 2.98,7.04 0,2.89 -0.99,5.28 -2.98,7.16 -1.98,1.88 -4.52,2.82 -7.62,2.82 -3.1,0 -5.62,-0.94 -7.61,-2.84 z m -1.61,8.6 h 18.41 v 50.59 h -18.41 z"
         id="path840"
         style="fill:#000000" />
      <path
         class="st2"
         d="m 914.86,503.34 v 50.59 h -17.5 v -4.74 h -0.15 c -3.03,3.87 -7.36,5.8 -13.01,5.8 -3.43,0 -6.6,-0.65 -9.51,-1.94 -2.91,-1.29 -5.39,-3.09 -7.44,-5.37 -2.05,-2.29 -3.66,-5.07 -4.82,-8.35 -1.16,-3.28 -1.74,-6.85 -1.74,-10.72 0,-3.8 0.57,-7.35 1.71,-10.64 1.14,-3.3 2.72,-6.09 4.72,-8.37 2,-2.29 4.38,-4.08 7.14,-5.37 2.76,-1.29 5.7,-1.94 8.83,-1.94 5.25,0 9.62,2.02 13.11,6.05 h 0.15 v -4.99 h 18.51 z m -20.25,32.68 c 1.7,-1.88 2.55,-4.34 2.55,-7.36 0,-2.96 -0.85,-5.39 -2.55,-7.29 -1.7,-1.9 -3.81,-2.85 -6.33,-2.85 -2.62,0 -4.77,0.94 -6.46,2.82 -1.68,1.88 -2.52,4.32 -2.52,7.31 0,3.06 0.84,5.52 2.52,7.39 1.68,1.87 3.83,2.8 6.46,2.8 2.52,0.01 4.63,-0.94 6.33,-2.82 z"
         id="path842"
         style="fill:#000000" />
      <path
         class="st2"
         d="m 496.59,569.74 v 76.06 h -17.5 v -4.74 h -0.2 c -3.13,3.87 -7.6,5.8 -13.42,5.8 -3.43,0 -6.6,-0.65 -9.51,-1.94 -2.91,-1.29 -5.39,-3.09 -7.44,-5.37 -2.05,-2.29 -3.66,-5.07 -4.82,-8.35 -1.16,-3.28 -1.74,-6.85 -1.74,-10.72 0,-3.8 0.57,-7.35 1.71,-10.64 1.14,-3.3 2.72,-6.09 4.72,-8.37 2,-2.29 4.38,-4.08 7.14,-5.37 2.76,-1.29 5.7,-1.94 8.83,-1.94 5.45,0 9.97,2.03 13.57,6.1 h 0.15 v -30.51 h 18.51 z m -20.33,58.18 c 1.75,-1.87 2.62,-4.33 2.62,-7.39 0,-2.99 -0.87,-5.43 -2.62,-7.31 -1.75,-1.88 -3.98,-2.82 -6.71,-2.82 -2.62,0 -4.77,0.94 -6.46,2.82 -1.68,1.88 -2.52,4.32 -2.52,7.31 0,3.06 0.84,5.52 2.52,7.39 1.68,1.87 3.83,2.8 6.46,2.8 2.73,0 4.97,-0.93 6.71,-2.8 z"
         id="path844"
         style="fill:#000000" />
      <path
         class="st2"
         d="M 554.69,625.02 H 521.5 c 0.4,2.35 1.55,4.15 3.45,5.4 1.9,1.24 4.25,1.87 7.04,1.87 4.2,0 8.09,-1.87 11.65,-5.6 l 9.53,10.49 c -2.29,2.86 -5.44,5.19 -9.46,6.99 -4.02,1.8 -8.58,2.7 -13.69,2.7 -5.01,0 -9.53,-1.1 -13.57,-3.3 -4.03,-2.2 -7.2,-5.32 -9.51,-9.36 -2.3,-4.03 -3.45,-8.61 -3.45,-13.72 0,-5.04 1.12,-9.57 3.35,-13.57 2.24,-4 5.35,-7.13 9.36,-9.38 4,-2.25 8.51,-3.38 13.52,-3.38 3.6,0 6.98,0.65 10.14,1.94 3.16,1.29 5.86,3.07 8.09,5.32 2.24,2.25 4,5 5.3,8.25 1.29,3.24 1.94,6.73 1.94,10.47 0.01,1.91 -0.16,3.54 -0.5,4.88 z m -30.33,-15 c -1.46,1.19 -2.4,2.85 -2.8,4.97 h 15.74 c -0.24,-1.04 -0.58,-1.98 -1.03,-2.82 -0.45,-0.84 -1,-1.56 -1.64,-2.14 -0.64,-0.59 -1.39,-1.03 -2.24,-1.34 -0.86,-0.3 -1.77,-0.45 -2.75,-0.45 -2.07,-0.01 -3.82,0.58 -5.28,1.78 z"
         id="path846"
         style="fill:#000000" />
    </g>
    <g
       id="g864"
       style="fill:#000000">
      <path
         class="st2"
         d="m 639.3,572.41 -26.68,73.38 h -17.25 l -26.83,-73.38 h 21.33 l 13.92,45.39 h 0.25 l 14.12,-45.39 z"
         id="path850"
         style="fill:#000000" />
      <path
         class="st2"
         d="m 645.4,586.61 c -1.98,-1.9 -2.98,-4.28 -2.98,-7.14 0,-1.82 0.45,-3.47 1.34,-4.97 0.89,-1.5 2.15,-2.68 3.78,-3.56 1.63,-0.87 3.45,-1.31 5.47,-1.31 3.09,0 5.63,0.93 7.62,2.8 1.98,1.87 2.98,4.21 2.98,7.04 0,2.89 -0.99,5.28 -2.98,7.16 -1.98,1.88 -4.52,2.82 -7.62,2.82 -3.1,0 -5.63,-0.94 -7.61,-2.84 z m -1.61,8.6 h 18.41 v 50.59 h -18.41 z"
         id="path852"
         style="fill:#000000" />
      <path
         class="st2"
         d="m 723.63,595.21 v 50.59 h -17.5 v -4.74 h -0.15 c -3.03,3.87 -7.36,5.8 -13.01,5.8 -3.43,0 -6.6,-0.65 -9.51,-1.94 -2.91,-1.29 -5.39,-3.09 -7.44,-5.37 -2.05,-2.29 -3.66,-5.07 -4.82,-8.35 -1.16,-3.28 -1.74,-6.85 -1.74,-10.72 0,-3.8 0.57,-7.35 1.71,-10.64 1.14,-3.3 2.72,-6.09 4.72,-8.37 2,-2.29 4.38,-4.08 7.14,-5.37 2.76,-1.29 5.7,-1.94 8.83,-1.94 5.25,0 9.62,2.02 13.11,6.05 h 0.15 v -4.99 h 18.51 z m -20.25,32.68 c 1.7,-1.88 2.55,-4.34 2.55,-7.36 0,-2.96 -0.85,-5.39 -2.55,-7.29 -1.7,-1.9 -3.81,-2.85 -6.33,-2.85 -2.62,0 -4.77,0.94 -6.46,2.82 -1.68,1.88 -2.52,4.32 -2.52,7.31 0,3.06 0.84,5.52 2.52,7.39 1.68,1.87 3.83,2.8 6.46,2.8 2.52,0.01 4.63,-0.93 6.33,-2.82 z"
         id="path854"
         style="fill:#000000" />
      <path
         class="st2"
         d="m 784.35,595.21 v 43.22 c 0,3.53 -0.29,6.72 -0.86,9.56 -0.57,2.84 -1.53,5.48 -2.87,7.92 -1.35,2.44 -3.08,4.48 -5.19,6.13 -2.12,1.65 -4.78,2.93 -7.99,3.86 -3.21,0.92 -6.9,1.39 -11.07,1.39 -4.34,0 -8.12,-0.35 -11.35,-1.06 -3.23,-0.71 -6.44,-1.9 -9.63,-3.58 l 4.09,-14.53 c 1.82,1.14 4.11,2.11 6.88,2.9 2.77,0.79 5.34,1.19 7.69,1.19 3.9,0 6.93,-0.77 9.08,-2.32 2.15,-1.55 3.23,-3.5 3.23,-5.85 v -4.59 h -0.15 c -3.23,3.53 -7.68,5.3 -13.37,5.3 -4.37,0 -8.29,-1.08 -11.75,-3.25 -3.46,-2.17 -6.14,-5.13 -8.04,-8.88 -1.9,-3.75 -2.85,-7.94 -2.85,-12.58 0,-3.7 0.56,-7.16 1.69,-10.39 1.13,-3.23 2.65,-5.97 4.56,-8.22 1.92,-2.25 4.21,-4.03 6.88,-5.32 2.67,-1.29 5.52,-1.94 8.55,-1.94 5.68,0 10.31,2 13.87,6 h 0.15 v -4.94 h 18.45 z M 764.15,626 c 1.7,-1.66 2.55,-3.82 2.55,-6.48 0,-2.62 -0.86,-4.78 -2.57,-6.48 -1.71,-1.7 -3.83,-2.55 -6.35,-2.55 -2.52,0 -4.65,0.85 -6.38,2.55 -1.73,1.7 -2.6,3.86 -2.6,6.48 0,2.66 0.86,4.82 2.57,6.48 1.71,1.66 3.85,2.5 6.41,2.5 2.56,0 4.67,-0.83 6.37,-2.5 z"
         id="path856"
         style="fill:#000000" />
      <path
         class="st2"
         d="m 842.25,625.02 h -33.19 c 0.4,2.35 1.55,4.15 3.45,5.4 1.9,1.24 4.24,1.87 7.04,1.87 4.2,0 8.09,-1.87 11.65,-5.6 l 9.53,10.49 c -2.29,2.86 -5.44,5.19 -9.46,6.99 -4.02,1.8 -8.58,2.7 -13.69,2.7 -5.01,0 -9.53,-1.1 -13.57,-3.3 -4.03,-2.2 -7.2,-5.32 -9.51,-9.36 -2.3,-4.03 -3.45,-8.61 -3.45,-13.72 0,-5.04 1.12,-9.57 3.35,-13.57 2.24,-4 5.35,-7.13 9.36,-9.38 4,-2.25 8.51,-3.38 13.52,-3.38 3.6,0 6.98,0.65 10.14,1.94 3.16,1.29 5.86,3.07 8.09,5.32 2.24,2.25 4,5 5.3,8.25 1.29,3.24 1.94,6.73 1.94,10.47 0.01,1.9 -0.16,3.53 -0.5,4.88 z m -30.33,-15.01 c -1.46,1.19 -2.4,2.85 -2.8,4.97 h 15.74 c -0.24,-1.04 -0.58,-1.98 -1.03,-2.82 -0.45,-0.84 -1,-1.56 -1.64,-2.14 -0.64,-0.59 -1.39,-1.03 -2.24,-1.34 -0.86,-0.3 -1.77,-0.45 -2.75,-0.45 -2.07,-0.01 -3.82,0.59 -5.28,1.78 z"
         id="path858"
         style="fill:#000000" />
      <path
         class="st2"
         d="m 887.37,594.58 c 1.5,0.29 2.93,0.75 4.31,1.39 1.38,0.64 2.59,1.5 3.63,2.57 1.04,1.08 1.95,2.38 2.72,3.91 0.77,1.53 1.36,3.36 1.77,5.5 0.4,2.14 0.6,4.55 0.6,7.24 v 30.61 h -18.46 v -26.18 c 0,-2.35 -0.24,-4.2 -0.73,-5.55 -0.49,-1.34 -1.19,-2.28 -2.12,-2.8 -0.92,-0.52 -2.18,-0.78 -3.76,-0.78 -2.29,0 -4.09,0.82 -5.4,2.45 -1.31,1.63 -1.97,4.11 -1.97,7.44 V 645.8 H 849.5 v -50.59 h 18.46 v 5.55 h 0.1 c 1.85,-2.15 4.02,-3.79 6.51,-4.92 2.49,-1.13 5.11,-1.69 7.87,-1.69 1.79,0 3.43,0.14 4.93,0.43 z"
         id="path860"
         style="fill:#000000" />
      <path
         class="st2"
         d="m 905.3,639.29 8.37,-11.4 c 4.4,3.83 8.62,5.75 12.66,5.75 2.49,0 3.73,-0.69 3.73,-2.07 0,-0.47 -0.13,-0.87 -0.4,-1.18 -0.27,-0.32 -0.92,-0.71 -1.94,-1.19 -1.03,-0.47 -2.55,-0.99 -4.56,-1.56 -1.82,-0.54 -3.47,-1.12 -4.97,-1.74 -1.5,-0.62 -2.95,-1.4 -4.36,-2.35 -1.41,-0.94 -2.6,-1.98 -3.56,-3.13 -0.96,-1.14 -1.72,-2.5 -2.29,-4.09 -0.57,-1.58 -0.86,-3.31 -0.86,-5.19 0,-2.69 0.51,-5.13 1.54,-7.31 1.03,-2.19 2.43,-3.98 4.21,-5.37 1.78,-1.4 3.84,-2.46 6.18,-3.2 2.34,-0.74 4.83,-1.11 7.49,-1.11 2.69,0 5.19,0.25 7.49,0.76 2.3,0.5 4.4,1.2 6.3,2.09 1.9,0.89 3.89,2.08 5.98,3.56 l -8.52,12.26 c -1.61,-1.61 -3.38,-2.88 -5.3,-3.81 -1.92,-0.92 -3.7,-1.39 -5.35,-1.39 -0.87,0 -1.62,0.18 -2.24,0.53 -0.62,0.35 -0.93,0.87 -0.93,1.54 0,0.54 0.44,1.07 1.31,1.59 0.87,0.52 2.52,1.17 4.94,1.94 2.49,0.81 4.56,1.56 6.23,2.24 1.66,0.69 3.24,1.5 4.72,2.45 1.48,0.94 2.64,1.97 3.48,3.08 0.84,1.11 1.5,2.42 1.97,3.93 0.47,1.51 0.71,3.24 0.71,5.19 0,2.49 -0.45,4.75 -1.34,6.78 -0.89,2.03 -2.2,3.8 -3.93,5.3 -1.73,1.5 -3.97,2.65 -6.71,3.45 -2.74,0.81 -5.86,1.21 -9.36,1.21 -8.12,0.01 -15.01,-2.51 -20.69,-7.56 z"
         id="path862"
         style="fill:#000000" />
    </g>
  </g>
  <metadata
     id="metadata1709">
    <rdf:RDF>
      <cc:Work
         rdf:about="">
        <dc:title>rosaAtivo 1</dc:title>
      </cc:Work>
    </rdf:RDF>
  </metadata>
</svg>
