<?xml version="1.0" encoding="utf-8"?>
<!-- Generator: Adobe Illustrator 24.3.0, SVG Export Plug-In . SVG Version: 6.00 Build 0)  -->
<svg version="1.1" id="Camada_1" xmlns="http://www.w3.org/2000/svg" xmlns:xlink="http://www.w3.org/1999/xlink" x="0px" y="0px"
	 viewBox="0 0 1080 1080" style="enable-background:new 0 0 1080 1080;" xml:space="preserve">
<style type="text/css">
	.st0{fill:#1E1E1E;}
	.st1{fill:#FFFFFF;}
	.st2{fill:#0068FF;}
</style>
<g>
	<g>
		<g>
			<g>
				<g>
					<path class="st0" d="M332.33,654.19c-3.19-0.74-6.21-1.81-9.05-3.2c-2.84-1.4-5.45-3.17-7.82-5.32
						c-2.37-2.15-4.4-4.59-6.1-7.31c-1.7-2.72-3.02-5.84-3.96-9.36c-0.94-3.51-1.41-7.27-1.41-11.27c0-3.5,0.39-6.86,1.16-10.09
						c0.77-3.23,1.88-6.25,3.33-9.05c1.45-2.81,3.28-5.36,5.5-7.67c2.22-2.3,4.72-4.28,7.49-5.93c2.77-1.65,5.93-2.93,9.48-3.83
						c3.55-0.91,7.32-1.36,11.32-1.36c5.35,0,10.68,1.18,16.01,3.53c5.33,2.35,9.96,5.9,13.9,10.64l-14.37,12.31
						c-0.84-0.94-1.77-1.82-2.8-2.65c-1.03-0.82-2.19-1.62-3.51-2.4c-1.31-0.77-2.77-1.39-4.36-1.84c-1.6-0.45-3.22-0.68-4.87-0.68
						c-1.82,0-3.58,0.25-5.3,0.76c-1.71,0.5-3.32,1.29-4.82,2.35c-1.5,1.06-2.8,2.34-3.91,3.83c-1.11,1.5-1.98,3.28-2.62,5.35
						c-0.64,2.07-0.96,4.31-0.96,6.73c0,2.49,0.4,4.86,1.21,7.11c0.81,2.25,1.95,4.24,3.43,5.95c1.48,1.71,3.34,3.08,5.57,4.09
						c2.24,1.01,4.7,1.51,7.39,1.51c2.86,0,5.71-0.69,8.55-2.07c2.84-1.38,5.17-3.18,6.99-5.4l14.37,12.36
						c-3.4,4.17-7.68,7.55-12.86,10.14c-5.18,2.59-10.86,3.88-17.05,3.88C338.83,655.3,335.52,654.93,332.33,654.19z"/>
					<path class="st0" d="M428.01,603.65v50.59H409.5v-5.4h-0.2c-1.71,2.12-3.76,3.72-6.13,4.82c-2.37,1.09-4.92,1.64-7.64,1.64
						c-11.94,0-17.9-7.35-17.9-22.04v-29.61h18.41v25.17c0,3.6,0.51,6.2,1.54,7.79s2.72,2.4,5.07,2.4c2.05,0,3.71-0.83,4.97-2.5
						c1.26-1.66,1.89-4.14,1.89-7.44v-25.42H428.01z"/>
					<path class="st0" d="M469.67,602.59v19.72c-1.01-0.07-2.3-0.1-3.88-0.1c-3.43,0-6.04,0.9-7.82,2.7
						c-1.78,1.8-2.67,4.21-2.67,7.24v22.09h-18.46v-50.59h18.46v6.91h0.15c1.78-2.59,3.89-4.56,6.33-5.93
						c2.44-1.36,5.04-2.04,7.79-2.04H469.67z"/>
					<path class="st0" d="M526.71,603.65v50.59h-17.5v-4.74h-0.15c-3.03,3.87-7.36,5.8-13.01,5.8c-3.43,0-6.6-0.65-9.51-1.94
						c-2.91-1.29-5.39-3.09-7.44-5.37c-2.05-2.29-3.66-5.07-4.82-8.35c-1.16-3.28-1.74-6.85-1.74-10.72c0-3.8,0.57-7.35,1.71-10.64
						c1.14-3.3,2.72-6.09,4.72-8.37c2-2.29,4.38-4.08,7.14-5.37c2.76-1.29,5.7-1.94,8.83-1.94c5.25,0,9.62,2.02,13.11,6.05h0.15
						v-4.99H526.71z M506.46,636.34c1.7-1.88,2.55-4.34,2.55-7.36c0-2.96-0.85-5.39-2.55-7.29c-1.7-1.9-3.81-2.85-6.33-2.85
						c-2.62,0-4.77,0.94-6.46,2.82c-1.68,1.88-2.52,4.32-2.52,7.31c0,3.06,0.84,5.52,2.52,7.39c1.68,1.87,3.83,2.8,6.46,2.8
						C502.65,639.16,504.76,638.22,506.46,636.34z"/>
					<path class="st0" d="M587.94,578.18v76.06h-17.5v-4.74h-0.2c-3.13,3.87-7.6,5.8-13.42,5.8c-3.43,0-6.6-0.65-9.51-1.94
						c-2.91-1.29-5.39-3.09-7.44-5.37c-2.05-2.29-3.66-5.07-4.82-8.35c-1.16-3.28-1.74-6.85-1.74-10.72c0-3.8,0.57-7.35,1.71-10.64
						c1.14-3.3,2.72-6.09,4.72-8.37c2-2.29,4.38-4.08,7.14-5.37s5.7-1.94,8.83-1.94c5.45,0,9.97,2.03,13.57,6.1h0.15v-30.51H587.94z
						 M567.61,636.36c1.75-1.87,2.62-4.33,2.62-7.39c0-2.99-0.87-5.43-2.62-7.31c-1.75-1.88-3.98-2.82-6.71-2.82
						c-2.62,0-4.77,0.94-6.46,2.82c-1.68,1.88-2.52,4.32-2.52,7.31c0,3.06,0.84,5.52,2.52,7.39c1.68,1.87,3.83,2.8,6.46,2.8
						C563.63,639.16,565.87,638.23,567.61,636.36z"/>
					<path class="st0" d="M608.19,652c-4.22-2.2-7.5-5.3-9.83-9.31c-2.34-4-3.51-8.57-3.51-13.72c0-5.14,1.17-9.72,3.51-13.72
						c2.34-4,5.62-7.11,9.83-9.33c4.22-2.22,9.02-3.33,14.4-3.33c5.38,0,10.17,1.11,14.37,3.33c4.2,2.22,7.48,5.33,9.84,9.33
						c2.35,4,3.53,8.57,3.53,13.72c0,5.14-1.18,9.72-3.53,13.72c-2.35,4-5.63,7.1-9.84,9.31c-4.2,2.2-8.99,3.3-14.37,3.3
						C617.21,655.3,612.41,654.2,608.19,652z M629.15,636.16c1.75-1.9,2.62-4.3,2.62-7.19c0-2.96-0.86-5.37-2.57-7.24
						c-1.71-1.87-3.92-2.8-6.61-2.8c-1.31,0-2.54,0.25-3.68,0.76c-1.14,0.5-2.12,1.19-2.93,2.07c-0.81,0.87-1.44,1.93-1.89,3.18
						c-0.45,1.24-0.68,2.59-0.68,4.03c0,1.14,0.15,2.24,0.45,3.28c0.3,1.04,0.73,1.97,1.29,2.77c0.55,0.81,1.21,1.51,1.97,2.12
						s1.6,1.07,2.52,1.39c0.92,0.32,1.91,0.48,2.95,0.48C625.21,639.01,627.4,638.06,629.15,636.16z"/>
					<path class="st0" d="M690.07,602.59v19.72c-1.01-0.07-2.3-0.1-3.88-0.1c-3.43,0-6.04,0.9-7.82,2.7
						c-1.78,1.8-2.67,4.21-2.67,7.24v22.09h-18.46v-50.59h18.46v6.91h0.15c1.78-2.59,3.89-4.56,6.33-5.93
						c2.44-1.36,5.04-2.04,7.79-2.04H690.07z"/>
					<path class="st0" d="M697.79,595.05c-1.98-1.9-2.98-4.28-2.98-7.14c0-1.82,0.45-3.47,1.34-4.97c0.89-1.5,2.15-2.68,3.78-3.56
						c1.63-0.87,3.45-1.31,5.47-1.31c3.09,0,5.63,0.93,7.62,2.8c1.98,1.87,2.98,4.21,2.98,7.04c0,2.89-0.99,5.28-2.98,7.16
						c-1.98,1.88-4.52,2.82-7.62,2.82S699.77,596.95,697.79,595.05z M696.18,603.65h18.41v50.59h-18.41V603.65z"/>
					<path class="st0" d="M776.02,603.65v50.59h-17.5v-4.74h-0.15c-3.03,3.87-7.36,5.8-13.01,5.8c-3.43,0-6.6-0.65-9.51-1.94
						c-2.91-1.29-5.39-3.09-7.44-5.37c-2.05-2.29-3.66-5.07-4.82-8.35c-1.16-3.28-1.74-6.85-1.74-10.72c0-3.8,0.57-7.35,1.71-10.64
						c1.14-3.3,2.72-6.09,4.72-8.37c2-2.29,4.38-4.08,7.14-5.37c2.76-1.29,5.7-1.94,8.83-1.94c5.25,0,9.62,2.02,13.11,6.05h0.15
						v-4.99H776.02z M755.77,636.34c1.7-1.88,2.55-4.34,2.55-7.36c0-2.96-0.85-5.39-2.55-7.29c-1.7-1.9-3.81-2.85-6.33-2.85
						c-2.62,0-4.77,0.94-6.46,2.82c-1.68,1.88-2.52,4.32-2.52,7.31c0,3.06,0.84,5.52,2.52,7.39c1.68,1.87,3.83,2.8,6.46,2.8
						C751.96,639.16,754.07,638.22,755.77,636.34z"/>
				</g>
			</g>
		</g>
		<g>
			<path class="st0" d="M341.95,670.06v76.06h-17.5v-4.74h-0.2c-3.13,3.87-7.6,5.8-13.42,5.8c-3.43,0-6.6-0.65-9.51-1.94
				c-2.91-1.29-5.39-3.09-7.44-5.37c-2.05-2.29-3.66-5.07-4.82-8.35c-1.16-3.28-1.74-6.85-1.74-10.72c0-3.8,0.57-7.35,1.71-10.64
				c1.14-3.3,2.72-6.09,4.72-8.37c2-2.29,4.38-4.08,7.14-5.37s5.7-1.94,8.83-1.94c5.45,0,9.97,2.03,13.57,6.1h0.15v-30.51H341.95z
				 M321.62,728.24c1.75-1.87,2.62-4.33,2.62-7.39c0-2.99-0.87-5.43-2.62-7.31c-1.75-1.88-3.98-2.82-6.71-2.82
				c-2.62,0-4.77,0.94-6.46,2.82c-1.68,1.88-2.52,4.32-2.52,7.31c0,3.06,0.84,5.52,2.52,7.39c1.68,1.87,3.83,2.8,6.46,2.8
				C317.64,731.03,319.88,730.1,321.62,728.24z"/>
			<path class="st0" d="M400.05,725.34h-33.19c0.4,2.35,1.55,4.15,3.45,5.4c1.9,1.24,4.25,1.87,7.04,1.87c4.2,0,8.09-1.87,11.65-5.6
				l9.53,10.49c-2.29,2.86-5.44,5.19-9.46,6.99c-4.02,1.8-8.58,2.7-13.69,2.7c-5.01,0-9.53-1.1-13.57-3.3
				c-4.03-2.2-7.2-5.32-9.51-9.36c-2.3-4.03-3.45-8.61-3.45-13.72c0-5.04,1.12-9.57,3.35-13.57c2.24-4,5.35-7.13,9.36-9.38
				c4-2.25,8.51-3.38,13.52-3.38c3.6,0,6.98,0.65,10.14,1.94c3.16,1.29,5.86,3.07,8.09,5.32c2.24,2.25,4,5,5.3,8.25
				c1.29,3.24,1.94,6.73,1.94,10.47C400.56,722.36,400.39,723.99,400.05,725.34z M369.72,710.33c-1.46,1.19-2.4,2.85-2.8,4.97h15.74
				c-0.24-1.04-0.58-1.98-1.03-2.82c-0.45-0.84-1-1.56-1.64-2.14c-0.64-0.59-1.39-1.03-2.24-1.34c-0.86-0.3-1.77-0.45-2.75-0.45
				C372.94,708.54,371.18,709.14,369.72,710.33z"/>
			<g>
				<path class="st0" d="M484.66,672.73l-26.68,73.38h-17.25l-26.83-73.38h21.33l13.92,45.39h0.25l14.12-45.39H484.66z"/>
				<path class="st0" d="M490.76,686.93c-1.98-1.9-2.98-4.28-2.98-7.14c0-1.82,0.45-3.47,1.34-4.97c0.89-1.5,2.15-2.68,3.78-3.56
					c1.63-0.87,3.45-1.31,5.47-1.31c3.09,0,5.63,0.93,7.62,2.8c1.98,1.87,2.98,4.21,2.98,7.04c0,2.89-0.99,5.28-2.98,7.16
					c-1.98,1.88-4.52,2.82-7.62,2.82S492.74,688.83,490.76,686.93z M489.15,695.53h18.41v50.59h-18.41V695.53z"/>
				<path class="st0" d="M568.99,695.53v50.59h-17.5v-4.74h-0.15c-3.03,3.87-7.36,5.8-13.01,5.8c-3.43,0-6.6-0.65-9.51-1.94
					c-2.91-1.29-5.39-3.09-7.44-5.37c-2.05-2.29-3.66-5.07-4.82-8.35c-1.16-3.28-1.74-6.85-1.74-10.72c0-3.8,0.57-7.35,1.71-10.64
					c1.14-3.3,2.72-6.09,4.72-8.37c2-2.29,4.38-4.08,7.14-5.37c2.76-1.29,5.7-1.94,8.83-1.94c5.25,0,9.62,2.02,13.11,6.05h0.15
					v-4.99H568.99z M548.74,728.21c1.7-1.88,2.55-4.34,2.55-7.36c0-2.96-0.85-5.39-2.55-7.29s-3.81-2.85-6.33-2.85
					c-2.62,0-4.77,0.94-6.46,2.82c-1.68,1.88-2.52,4.32-2.52,7.31c0,3.06,0.84,5.52,2.52,7.39c1.68,1.87,3.83,2.8,6.46,2.8
					C544.93,731.03,547.04,730.09,548.74,728.21z"/>
				<path class="st0" d="M629.71,695.53v43.22c0,3.53-0.29,6.72-0.86,9.56c-0.57,2.84-1.53,5.48-2.87,7.92
					c-1.35,2.44-3.08,4.48-5.19,6.13c-2.12,1.65-4.78,2.93-7.99,3.86c-3.21,0.92-6.9,1.39-11.07,1.39c-4.34,0-8.12-0.35-11.35-1.06
					s-6.44-1.9-9.63-3.58l4.09-14.53c1.82,1.14,4.11,2.11,6.88,2.9c2.77,0.79,5.34,1.19,7.69,1.19c3.9,0,6.93-0.77,9.08-2.32
					c2.15-1.55,3.23-3.5,3.23-5.85v-4.59h-0.15c-3.23,3.53-7.68,5.3-13.37,5.3c-4.37,0-8.29-1.08-11.75-3.25
					c-3.46-2.17-6.14-5.13-8.04-8.88c-1.9-3.75-2.85-7.94-2.85-12.58c0-3.7,0.56-7.16,1.69-10.39s2.65-5.97,4.56-8.22
					c1.92-2.25,4.21-4.03,6.88-5.32c2.67-1.29,5.52-1.94,8.55-1.94c5.68,0,10.31,2,13.87,6h0.15v-4.94H629.71z M609.51,726.32
					c1.7-1.66,2.55-3.82,2.55-6.48c0-2.62-0.86-4.78-2.57-6.48c-1.71-1.7-3.83-2.55-6.35-2.55s-4.65,0.85-6.38,2.55
					c-1.73,1.7-2.6,3.86-2.6,6.48c0,2.66,0.86,4.82,2.57,6.48c1.71,1.66,3.85,2.5,6.41,2.5S607.81,727.98,609.51,726.32z"/>
				<path class="st0" d="M687.61,725.33h-33.19c0.4,2.35,1.55,4.15,3.45,5.4c1.9,1.24,4.25,1.87,7.04,1.87
					c4.2,0,8.09-1.87,11.65-5.6l9.53,10.49c-2.29,2.86-5.44,5.19-9.46,6.99c-4.02,1.8-8.58,2.7-13.69,2.7
					c-5.01,0-9.53-1.1-13.57-3.3c-4.03-2.2-7.2-5.32-9.51-9.36c-2.3-4.03-3.45-8.61-3.45-13.72c0-5.04,1.12-9.57,3.35-13.57
					c2.24-4,5.35-7.13,9.36-9.38c4-2.25,8.51-3.38,13.52-3.38c3.6,0,6.98,0.65,10.14,1.94c3.16,1.29,5.86,3.07,8.09,5.32
					c2.24,2.25,4,5,5.3,8.25c1.29,3.24,1.94,6.73,1.94,10.47C688.12,722.36,687.95,723.99,687.61,725.33z M657.28,710.33
					c-1.46,1.19-2.4,2.85-2.8,4.97h15.74c-0.24-1.04-0.58-1.98-1.03-2.82c-0.45-0.84-1-1.56-1.64-2.14
					c-0.64-0.59-1.39-1.03-2.24-1.34c-0.86-0.3-1.77-0.45-2.75-0.45C660.49,708.54,658.74,709.13,657.28,710.33z"/>
				<path class="st0" d="M732.73,694.9c1.5,0.29,2.93,0.75,4.31,1.39c1.38,0.64,2.59,1.5,3.63,2.57c1.04,1.08,1.95,2.38,2.72,3.91
					c0.77,1.53,1.36,3.36,1.77,5.5c0.4,2.14,0.6,4.55,0.6,7.24v30.61h-18.46v-26.18c0-2.35-0.24-4.2-0.73-5.55
					c-0.49-1.34-1.19-2.28-2.12-2.8c-0.92-0.52-2.18-0.78-3.76-0.78c-2.29,0-4.09,0.82-5.4,2.45c-1.31,1.63-1.97,4.11-1.97,7.44
					v25.42h-18.46v-50.59h18.46v5.55h0.1c1.85-2.15,4.02-3.79,6.51-4.92c2.49-1.13,5.11-1.69,7.87-1.69
					C729.59,694.47,731.23,694.61,732.73,694.9z"/>
				<path class="st0" d="M750.66,739.61l8.37-11.4c4.4,3.83,8.62,5.75,12.66,5.75c2.49,0,3.73-0.69,3.73-2.07
					c0-0.47-0.13-0.87-0.4-1.18c-0.27-0.32-0.92-0.71-1.94-1.19c-1.03-0.47-2.55-0.99-4.56-1.56c-1.82-0.54-3.47-1.12-4.97-1.74
					c-1.5-0.62-2.95-1.4-4.36-2.35c-1.41-0.94-2.6-1.98-3.56-3.13c-0.96-1.14-1.72-2.5-2.29-4.09c-0.57-1.58-0.86-3.31-0.86-5.19
					c0-2.69,0.51-5.13,1.54-7.31c1.03-2.19,2.43-3.98,4.21-5.37c1.78-1.4,3.84-2.46,6.18-3.2c2.34-0.74,4.83-1.11,7.49-1.11
					c2.69,0,5.19,0.25,7.49,0.76s4.4,1.2,6.3,2.09c1.9,0.89,3.89,2.08,5.98,3.56l-8.52,12.26c-1.61-1.61-3.38-2.88-5.3-3.81
					c-1.92-0.92-3.7-1.39-5.35-1.39c-0.87,0-1.62,0.18-2.24,0.53c-0.62,0.35-0.93,0.87-0.93,1.54c0,0.54,0.44,1.07,1.31,1.59
					c0.87,0.52,2.52,1.17,4.94,1.94c2.49,0.81,4.56,1.56,6.23,2.24c1.66,0.69,3.24,1.5,4.72,2.45c1.48,0.94,2.64,1.97,3.48,3.08
					c0.84,1.11,1.5,2.42,1.97,3.93c0.47,1.51,0.71,3.24,0.71,5.19c0,2.49-0.45,4.75-1.34,6.78c-0.89,2.03-2.2,3.8-3.93,5.3
					c-1.73,1.5-3.97,2.65-6.71,3.45c-2.74,0.81-5.86,1.21-9.36,1.21C763.23,747.17,756.34,744.65,750.66,739.61z"/>
			</g>
		</g>
	</g>
	<g>
		<g>
			<g>
				<path class="st0" d="M554.25,455.78c-2.06,0-3.72,1.67-3.72,3.72v0.95v4.02h7.44v-4.02v-0.95
					C557.97,457.45,556.31,455.78,554.25,455.78z"/>
			</g>
			<g>
				<path class="st0" d="M569.14,455.78c-2.06,0-3.72,1.67-3.72,3.72v0.95v4.02h7.44v-4.02v-0.95
					C572.86,457.45,571.2,455.78,569.14,455.78z"/>
			</g>
			<g>
				<path class="st0" d="M584.03,455.78c-2.06,0-3.72,1.67-3.72,3.72v0.95v4.02h7.44v-4.02v-0.95
					C587.75,457.45,586.08,455.78,584.03,455.78z"/>
			</g>
			<g>
				<path class="st0" d="M598.92,455.78c-2.06,0-3.72,1.67-3.72,3.72v0.95v4.02h7.44v-4.02v-0.95
					C602.64,457.45,600.97,455.78,598.92,455.78z"/>
			</g>
			<g>
				<path class="st0" d="M572.86,484.31c0-2.06-1.67-3.72-3.72-3.72c-2.06,0-3.72,1.67-3.72,3.72v4.96h7.44V484.31z"/>
			</g>
			<g>
				<path class="st0" d="M587.75,484.31c0-2.06-1.67-3.72-3.72-3.72c-2.06,0-3.72,1.67-3.72,3.72v4.96h7.44V484.31z"/>
			</g>
			<g>
				<path class="st0" d="M602.64,484.31c0-2.06-1.67-3.72-3.72-3.72c-2.06,0-3.72,1.67-3.72,3.72v4.96h7.44V484.31z"/>
			</g>
			<g>
				<path class="st0" d="M617.53,484.31c0-2.06-1.67-3.72-3.72-3.72c-2.06,0-3.72,1.67-3.72,3.72v4.96h7.44V484.31z"/>
			</g>
			<g>
				<path class="st0" d="M469.29,413.88v-3.09c0-2.18-1.77-3.95-3.95-3.95c-2.18,0-3.95,1.77-3.95,3.95v3.09v2.19h7.91V413.88z"/>
			</g>
			<g>
				<path class="st0" d="M469.29,425.34c0-2.18-1.77-3.95-3.95-3.95c-2.18,0-3.95,1.77-3.95,3.95v5.27h7.91V425.34z"/>
			</g>
			<g>
				<path class="st0" d="M513.17,414.55c-2.18,0-3.95,1.77-3.95,3.95v5.27h7.91v-5.27C517.12,416.32,515.35,414.55,513.17,414.55z"
					/>
			</g>
			<g>
				<path class="st0" d="M513.17,427.76c-2.18,0-3.95,1.77-3.95,3.95v5.27h7.91v-5.27C517.12,429.53,515.35,427.76,513.17,427.76z"
					/>
			</g>
			<g>
				<path class="st0" d="M469.29,439.9c0-2.18-1.77-3.95-3.95-3.95c-2.18,0-3.95,1.77-3.95,3.95v5.27h7.91V439.9z"/>
			</g>
			<g>
				<path class="st0" d="M621.02,396.82l12.09-20.54l-5.76-3.39l-4.09,6.95c-1.87-1.77-3.87-3.39-5.99-4.83l3.67-6.27l-5.77-3.38
					l-3.68,6.28c-0.38-0.19-4.86-2.11-6.77-2.72l3.33-5.87l-5.82-3.3l-4.28,7.55c-1.59-0.26-3.2-0.44-4.83-0.55v-15.04h5.89v-6.69
					h-5.89v-6.74h-6.69v6.74h-5.89v6.69h5.89v15.04c-1.62,0.1-3.22,0.28-4.79,0.53l-4.25-7.53l-5.82,3.29l3.29,5.83
					c-2.31,0.72-4.54,1.6-6.69,2.65l-3.25-5.63l-5.79,3.34l3.26,5.65c-2.13,1.45-4.16,3.08-6.05,4.89l-2.07-3.51l-0.49-0.84l0,0l0,0
					l0,0l-1.53-2.6l-2.19,1.29c-0.08-1.22-0.25-2.46-0.52-3.72c-0.96-4.44-3.16-9.09-6.56-13.9c-1.81-2.56-3.97-5.18-6.47-7.84
					c-1.33-1.42-2.76-2.85-4.29-4.3c-5.07-4.79-10.07-8.63-13.32-10.98c0.18-0.57,0.28-1.18,0.28-1.82c0-2.56-1.61-4.74-3.86-5.6
					V312.4h-4.25v13.55c-2.26,0.86-3.86,3.04-3.86,5.6c0,0.63,0.1,1.24,0.28,1.82c-3.25,2.35-8.25,6.19-13.32,10.98
					c-2.65,2.5-5,4.97-7.06,7.39c0,0-0.01,0.01-0.01,0.01c-0.86,0.75-1.66,1.56-2.39,2.41c-0.46-0.52-0.93-1.05-1.42-1.57l0,0
					c-5.15-5.49-10.9-9.91-14.14-12.22c0.02-0.17,0.03-0.34,0.03-0.51c0-1.72-0.93-3.21-2.31-4.02c-0.07-0.04-0.15-0.08-0.22-0.12
					v-10.37h-4.25v10.37c-0.08,0.04-0.15,0.08-0.22,0.12c-1.38,0.81-2.31,2.3-2.31,4.02c0,0.17,0.01,0.35,0.03,0.52
					c-2.54,1.82-6.62,4.93-10.75,8.83c-2.78,2.63-5.15,5.21-7.12,7.74c-4.59,5.91-6.96,11.53-7.06,16.78
					c-0.1,5.57,2.27,10.46,7.06,14.57c0.37,0.32,0.76,0.64,1.16,0.95v1.81c0,3.94,2.14,7.38,5.32,9.23v1.04v17.63v33.93h-6.48h-0.01
					v-38.21c-5.03,12.51-7.58,25.74-7.58,39.35c0,2.15,0.06,4.3,0.19,6.43c0.4,6.76,1.44,13.4,3.11,19.9
					c0.84,3.29,1.85,6.53,3.01,9.73c0.62,1.69,1.28,3.37,1.98,5.04c5.32,12.57,12.93,23.87,22.63,33.56
					c5.6,5.6,11.74,10.51,18.35,14.68c2.45,1.55,4.96,2.99,7.54,4.33c2.5,1.3,5.06,2.51,7.68,3.62c1.5,0.63,3,1.23,4.52,1.79
					c11.68,4.32,23.97,6.51,36.58,6.51s24.9-2.19,36.58-6.51c1.52-0.56,3.02-1.16,4.52-1.79c2.62-1.11,5.18-2.32,7.68-3.62
					c2.57-1.34,5.09-2.79,7.54-4.33c6.61-4.17,12.74-9.08,18.35-14.68c8.31-8.31,15.08-17.79,20.2-28.24
					c0.86-1.75,1.67-3.52,2.43-5.32c3.83-9.06,6.35-18.52,7.53-28.23c0.26-2.13,0.45-4.28,0.58-6.44c0.13-2.13,0.19-4.28,0.19-6.43
					v-3.2v-7.44v-0.01L621.02,396.82z M612,460.45c2.04,2.35,4.19,4.57,6.51,6.54c0.49,0.42,0.98,0.81,1.48,1.2h-74.29
					c-0.04-0.13-0.08-0.25-0.12-0.38v-7.36v-7.58v-2.05h58.91c0.5,0.68,1.01,1.37,1.52,2.05C607.91,455.46,609.9,458.02,612,460.45z
					 M632.41,486.69v-2.38c0-2.06-1.67-3.72-3.72-3.72c-2.06,0-3.72,1.67-3.72,3.72v4.96h6.48c-0.48,1.25-0.99,2.49-1.53,3.72
					h-70.77c-1.39-0.98-2.67-2.25-3.84-3.72h2.66v-4.96c0-2.06-1.67-3.72-3.72-3.72c-1.33,0-2.49,0.7-3.15,1.75
					c-1.02-2.11-1.96-4.37-2.84-6.71h87.35C634.76,479.4,633.69,483.1,632.41,486.69z M453.81,394.13c-0.26,0-0.51-0.04-0.74-0.09
					c-1.34-0.33-2.34-1.55-2.34-2.99v-0.24v-1.85h6.09h9.94h12.91v1.85v0.24c0,1.7-1.38,3.09-3.09,3.09h-14.12H453.81z
					 M448.3,361.17c1.05-1.32,2.2-2.61,3.39-3.86c0.34-0.36,0.69-0.72,1.05-1.07l22.67,26.99h-3.13h-5.15h-2.81l-16.66-21.23
					C447.87,361.72,448.08,361.44,448.3,361.17z M531.41,354.32c0.6,0.65,1.18,1.3,1.73,1.94c1.95,2.26,3.6,4.47,4.96,6.6
					c-2.61,5.18-7.5,8.01-26.83,6.61c-13.39-0.97-20.5,3.56-24.11,7.53c-1.01,1.11-1.81,2.25-2.44,3.32
					c-0.62-1.62-0.92-3.31-0.89-5.08c0-0.08,0.01-0.16,0.01-0.24c0.05-1.38,0.29-2.82,0.72-4.31c0.37-1.29,0.88-2.61,1.53-3.97
					c1.11-2.33,2.62-4.76,4.52-7.27c3.45-1.51,7.87-2.09,13.16-1.7C517.53,358.75,525.91,357.81,531.41,354.32z M549.25,381.45
					l9.33,15.37l0,0.01l-11.5,21.74h-2.95h-2.28h-3.73v24.81h-2.31h-0.27c-1.18-1.54-2.48-2.81-3.97-3.76v-9.41v-3.98v-7.44v-8.85
					c5.45-0.47,9.75-5.05,9.75-10.62v-6.28c3.68-3.15,6.21-6.66,7.57-10.5C549.03,382.17,549.14,381.81,549.25,381.45z
					 M497.49,402.4c-1.7,0-3.09-1.38-3.09-3.09v-3.35h39.34v3.35c0,1.7-1.38,3.09-3.09,3.09H497.49z M541.78,370.73
					c0.45,1.57,0.7,3.08,0.72,4.52c0.07,3.97-1.48,7.52-4.73,10.75c-0.81,0.81-1.73,1.61-2.76,2.38h-38.23h-5.47
					c-0.04-0.03-0.07-0.05-0.1-0.08c-0.43-0.33-0.83-0.66-1.22-0.99c0.18-0.81,0.88-3.24,3.04-5.49c3.58-3.71,9.69-5.37,17.69-4.79
					c11.98,0.87,19.7,0.23,25.02-2.07C538.3,373.86,540.25,372.39,541.78,370.73z M560.82,426h5.34l0,0h2.37l3.1,0
					c1.55,0,3.02,0.13,4.43,0.36c7.69,1.3,13.51,5.94,18.76,11.92c1.41,1.61,2.78,3.32,4.14,5.08h-53.39v-5.08V426h5.12v0h2.66
					l5.24,0l0,0H560.82z M604.43,438.29c-3.12-4.03-6.45-7.89-10.22-11.09c-0.68-0.57-1.36-1.12-2.05-1.64
					c-2.41-1.81-4.89-3.26-7.46-4.37l3.53-6.05c0.56-0.96,1.08-1.95,1.54-2.96c0.47,1.01,0.99,2.01,1.56,2.98l14.93,25.54
					C605.66,439.9,605.05,439.09,604.43,438.29z M481.93,400.27c2.23-1.3,3.94-3.39,4.77-5.88c0.04,0.03,0.08,0.06,0.12,0.09v4.83
					c0,4.93,3.37,9.1,7.93,10.31v43.25h-12.82V400.27z M503.09,460.45c-1.18,3.8-2.01,7.6-2.76,11.01
					c-0.87,4.01-1.7,7.79-2.79,10.15c-0.9,1.96-1.43,1.9-1.72,1.88c-2.25-0.23-3.57-4.13-5.32-10.07
					c-1.26-4.27-2.68-9.08-5.28-12.97H503.09z M506.57,451.85c-0.18,0.34-0.35,0.68-0.52,1.02h-4.12c0.13-0.27,0.27-0.53,0.4-0.8
					v-42.1H524v27.89c-1.37,0.16-2.78,0.55-4.23,1.18C513.49,441.76,509.4,446.46,506.57,451.85z M613.88,380.79
					c2.09,1.46,4.05,3.13,5.88,4.99l0,0l-6.36,10.81l24.64,46.79h-0.03h-0.58h-7.24l-19.77-37.34c-1.57-2.96-2.4-6.3-2.4-9.65
					c0-3.61,0.95-7.17,2.74-10.27L613.88,380.79z M601.34,374.89c2.34,0.65,4.6,1.49,6.76,2.53l-3.12,5.33
					c-2.39,4.14-3.65,8.86-3.65,13.64c0,4.44,1.1,8.86,3.18,12.79l18.11,34.2h-7.05l-18.47-31.59c-2.61-4.46-3.99-9.55-3.99-14.72
					c0-5.03,1.31-10,3.79-14.38L601.34,374.89z M589.77,373.33c1.56,0,3.1,0.08,4.62,0.24l-3.3,5.82c-0.47,0.84-0.91,1.69-1.31,2.56
					c-0.4-0.86-0.83-1.7-1.29-2.53l-3.31-5.86C586.69,373.41,588.22,373.33,589.77,373.33z M578.23,374.86l4.43,7.85
					c2.46,4.36,3.77,9.32,3.77,14.33v0.05c0,5.16-1.37,10.23-3.97,14.69l-4.32,7.4c-1.34-0.26-2.71-0.44-4.1-0.53
					c-0.39-0.03-0.79-0.05-1.18-0.06c-0.41-0.01-0.82-0.02-1.24-0.02h-1.51l4.99-9.39c2.08-3.92,3.18-8.35,3.18-12.79
					c0-4.78-1.26-9.49-3.65-13.64l-3.12-5.4C573.67,376.33,575.91,375.5,578.23,374.86z M565.73,380.7l3.11,5.39
					c1.8,3.13,2.76,6.69,2.76,10.29c0,3.35-0.83,6.69-2.4,9.65l-6.65,12.52h-3.01h-2.23h-2.69l11.59-21.97l-6.39-10.87
					C561.64,383.84,563.62,382.17,565.73,380.7z M499.26,349.94c5.48-5.19,11.01-9.29,13.91-11.32c2.65,1.86,7.5,5.45,12.51,10.02
					c0.03,0.03,0.06,0.06,0.09,0.08c-3.75,1.62-10.02,2.3-21.45,1.47c-1.8-0.13-3.54-0.16-5.2-0.1
					C499.16,350.03,499.21,349.99,499.26,349.94z M477.73,357.77c0.94,1.01,1.81,2,2.61,2.98c-0.91,1.81-1.62,3.59-2.18,5.2
					c-0.14,0.36-0.28,0.73-0.4,1.09c-0.64,1.86-1.08,3.68-1.32,5.47c-0.01,0.05-0.01,0.1-0.02,0.15l-18.1-21.54
					c0.55-0.47,1.1-0.92,1.64-1.35c1.63-1.31,3.17-2.46,4.5-3.4C467.39,348.44,472.92,352.64,477.73,357.77 M442.5,373.87
					c0.02-0.95,0.16-1.92,0.41-2.9c0.16-0.64,0.38-1.29,0.63-1.94l11.14,14.2h-6.91c-0.78-0.6-1.47-1.22-2.07-1.85
					C443.51,379.09,442.45,376.61,442.5,373.87z M456.05,403.47v-1.75h1.09h17.22v51.15h-1.67c-1.2-0.11-2.47-0.11-3.78,0h-12.85
					V403.47z M540,552.03c-14.84,0-28.92-3.32-41.54-9.25c3.33-2.45,6.56-5.09,9.65-7.9c3-2.73,5.88-5.64,8.63-8.7l7.25,5.69
					l7.97-6.25l7.97,6.25l7.97-6.25l7.97,6.25l7.34-5.76c2.77,3.09,5.68,6.02,8.7,8.78c3.09,2.82,6.32,5.46,9.65,7.9
					C568.92,548.71,554.84,552.03,540,552.03z M521.64,520.39c3.01-3.78,5.84-7.76,8.48-11.94h19.77c2.62,4.15,5.43,8.1,8.42,11.86
					l-2.45,1.92l-7.97-6.25l-7.97,6.25l-7.97-6.25l-7.97,6.25L521.64,520.39z M589.09,538.83c-10.66-7.3-23.23-18.72-33.86-36.14
					l-1.11-1.82h-28.24l-1.11,1.82c-10.63,17.43-23.2,28.84-33.86,36.14c-21.63-12.57-38.05-33.18-45.11-57.71
					c4.31-8.39,12.11-19.57,23.45-20.67h3.08c2.62,0.31,4.59,1.49,6.21,3.65c2.19,2.94,3.47,7.27,4.71,11.46
					c1.01,3.44,1.97,6.69,3.46,9.38c2.04,3.69,4.86,5.74,8.37,6.09c2.82,0.29,6.74-0.57,9.36-6.24c1.43-3.11,2.3-7.09,3.31-11.71
					c0.91-4.18,1.87-8.57,3.31-12.63c0.97-2.73,2.15-5.32,3.67-7.58c1.99-2.95,4.58-5.37,8.05-6.86c2.23-0.96,3.44-0.64,4.16-0.32
					c2,0.91,3.76,3.6,5.37,7.18c1.01,2.25,1.97,4.84,2.9,7.58c0.7,2.07,1.39,4.21,2.07,6.34c0.15,0.46,0.3,0.93,0.45,1.4
					c2.19,6.83,4.56,13.97,7.84,20c0.93,1.71,1.93,3.32,3.03,4.82c2.27,3.11,4.93,5.69,8.13,7.44c1.63,0.89,3.39,1.58,5.31,2.01
					c6.06,1.35,12.14,2.47,18.03,3.55c15.16,2.78,29.56,5.41,35.08,10.88C607.82,525.61,599,533.06,589.09,538.83z M619.8,510.87
					c-5.91-5.26-16.16-8.02-28.24-10.42h34.75C624.35,504.06,622.18,507.54,619.8,510.87z M637.04,467.88
					c-5.76-0.88-10.48-3.63-14.69-7.43c-2.46-2.22-4.75-4.8-6.98-7.58c-0.54-0.67-1.07-1.36-1.61-2.05h23.61v2.05v7.58v4.79
					C637.27,466.12,637.16,467,637.04,467.88z"/>
			</g>
			<g>
				<path class="st0" d="M554.25,430.97c-2.06,0-3.72,1.67-3.72,3.72v4.96h7.44v-1.36v-3.6c0-0.75-0.22-1.44-0.6-2.02
					C556.71,431.65,555.56,430.97,554.25,430.97z"/>
			</g>
			<g>
				<path class="st0" d="M572.86,438.29v-3.6c0-0.7-0.2-1.36-0.54-1.92c-0.65-1.08-1.83-1.8-3.18-1.8c-2.06,0-3.72,1.67-3.72,3.72
					v4.96h7.44V438.29z"/>
			</g>
			<g>
				<path class="st0" d="M587.75,438.29v-3.6c0-2.06-1.67-3.72-3.72-3.72c-2.06,0-3.72,1.67-3.72,3.72v3.6v1.36h7.44V438.29z"/>
			</g>
		</g>
	</g>
</g>
</svg>
