<?xml version="1.0" encoding="utf-8"?>
<!-- Generator: Adobe Illustrator 24.3.0, SVG Export Plug-In . SVG Version: 6.00 Build 0)  -->
<svg version="1.1" id="Camada_1" xmlns="http://www.w3.org/2000/svg" xmlns:xlink="http://www.w3.org/1999/xlink" x="0px" y="0px"
	 viewBox="0 0 1080 1080" style="enable-background:new 0 0 1080 1080;" xml:space="preserve">
<style type="text/css">
	.st0{fill:#1E1E1E;}
	.st1{fill:#FFFFFF;}
	.st2{fill:#0068FF;}
</style>
<g>
	<g>
		<g>
			<path class="st1" d="M471.17,553.88c-3.19-0.74-6.21-1.81-9.05-3.2c-2.84-1.4-5.45-3.17-7.82-5.32c-2.37-2.15-4.4-4.59-6.1-7.31
				c-1.7-2.72-3.02-5.84-3.96-9.36c-0.94-3.51-1.41-7.27-1.41-11.27c0-3.5,0.39-6.86,1.16-10.09c0.77-3.23,1.88-6.25,3.33-9.05
				c1.45-2.81,3.28-5.36,5.5-7.67c2.22-2.3,4.72-4.28,7.49-5.93c2.77-1.65,5.93-2.93,9.48-3.83c3.55-0.91,7.32-1.36,11.32-1.36
				c5.35,0,10.68,1.18,16.01,3.53c5.33,2.35,9.96,5.9,13.9,10.64l-14.37,12.31c-0.84-0.94-1.77-1.82-2.8-2.65
				c-1.03-0.82-2.19-1.62-3.51-2.4c-1.31-0.77-2.77-1.39-4.36-1.84c-1.6-0.45-3.22-0.68-4.87-0.68c-1.82,0-3.58,0.25-5.3,0.76
				c-1.71,0.5-3.32,1.29-4.82,2.35s-2.8,2.34-3.91,3.83c-1.11,1.5-1.98,3.28-2.62,5.35c-0.64,2.07-0.96,4.31-0.96,6.73
				c0,2.49,0.4,4.86,1.21,7.11c0.81,2.25,1.95,4.24,3.43,5.95c1.48,1.71,3.34,3.08,5.57,4.09c2.24,1.01,4.7,1.51,7.39,1.51
				c2.86,0,5.71-0.69,8.55-2.07c2.84-1.38,5.17-3.18,6.99-5.4l14.37,12.36c-3.4,4.17-7.68,7.55-12.86,10.14
				c-5.18,2.59-10.86,3.88-17.05,3.88C477.68,554.98,474.36,554.61,471.17,553.88z"/>
			<path class="st1" d="M566.85,503.34v50.59h-18.51v-5.4h-0.2c-1.71,2.12-3.76,3.72-6.13,4.82c-2.37,1.09-4.92,1.64-7.64,1.64
				c-11.94,0-17.9-7.35-17.9-22.04v-29.61h18.41v25.17c0,3.6,0.51,6.2,1.54,7.79c1.03,1.6,2.72,2.4,5.07,2.4
				c2.05,0,3.71-0.83,4.97-2.5c1.26-1.66,1.89-4.14,1.89-7.44v-25.42H566.85z"/>
			<path class="st1" d="M608.51,502.28V522c-1.01-0.07-2.3-0.1-3.88-0.1c-3.43,0-6.04,0.9-7.82,2.7c-1.78,1.8-2.67,4.21-2.67,7.24
				v22.09h-18.46v-50.59h18.46v6.91h0.15c1.78-2.59,3.89-4.56,6.33-5.93c2.44-1.36,5.04-2.04,7.79-2.04H608.51z"/>
			<path class="st1" d="M665.55,503.34v50.59h-17.5v-4.74h-0.15c-3.03,3.87-7.36,5.8-13.01,5.8c-3.43,0-6.6-0.65-9.51-1.94
				c-2.91-1.29-5.39-3.09-7.44-5.37c-2.05-2.29-3.66-5.07-4.82-8.35c-1.16-3.28-1.74-6.85-1.74-10.72c0-3.8,0.57-7.35,1.71-10.64
				c1.14-3.3,2.72-6.09,4.72-8.37c2-2.29,4.38-4.08,7.14-5.37c2.76-1.29,5.7-1.94,8.83-1.94c5.25,0,9.62,2.02,13.11,6.05h0.15v-4.99
				H665.55z M645.3,536.02c1.7-1.88,2.55-4.34,2.55-7.36c0-2.96-0.85-5.39-2.55-7.29c-1.7-1.9-3.81-2.85-6.33-2.85
				c-2.62,0-4.77,0.94-6.46,2.82c-1.68,1.88-2.52,4.32-2.52,7.31c0,3.06,0.84,5.52,2.52,7.39c1.68,1.87,3.83,2.8,6.46,2.8
				C641.49,538.85,643.6,537.9,645.3,536.02z"/>
			<path class="st1" d="M726.78,477.87v76.06h-17.5v-4.74h-0.2c-3.13,3.87-7.6,5.8-13.42,5.8c-3.43,0-6.6-0.65-9.51-1.94
				c-2.91-1.29-5.39-3.09-7.44-5.37c-2.05-2.29-3.66-5.07-4.82-8.35c-1.16-3.28-1.74-6.85-1.74-10.72c0-3.8,0.57-7.35,1.71-10.64
				c1.14-3.3,2.72-6.09,4.72-8.37c2-2.29,4.38-4.08,7.14-5.37c2.76-1.29,5.7-1.94,8.83-1.94c5.45,0,9.97,2.03,13.57,6.1h0.15v-30.51
				H726.78z M706.46,536.05c1.75-1.87,2.62-4.33,2.62-7.39c0-2.99-0.87-5.43-2.62-7.31c-1.75-1.88-3.98-2.82-6.71-2.82
				c-2.62,0-4.77,0.94-6.46,2.82c-1.68,1.88-2.52,4.32-2.52,7.31c0,3.06,0.84,5.52,2.52,7.39c1.68,1.87,3.83,2.8,6.46,2.8
				C702.47,538.85,704.71,537.91,706.46,536.05z"/>
			<path class="st1" d="M747.03,551.68c-4.22-2.2-7.5-5.3-9.83-9.31s-3.51-8.57-3.51-13.72c0-5.14,1.17-9.72,3.51-13.72
				c2.34-4,5.62-7.11,9.83-9.33c4.22-2.22,9.02-3.33,14.4-3.33s10.17,1.11,14.37,3.33c4.2,2.22,7.48,5.33,9.84,9.33
				c2.35,4,3.53,8.57,3.53,13.72c0,5.14-1.18,9.72-3.53,13.72c-2.35,4-5.63,7.1-9.84,9.31c-4.2,2.2-8.99,3.3-14.37,3.3
				S751.25,553.88,747.03,551.68z M767.99,535.84c1.75-1.9,2.62-4.3,2.62-7.19c0-2.96-0.86-5.37-2.57-7.24
				c-1.71-1.87-3.92-2.8-6.61-2.8c-1.31,0-2.54,0.25-3.68,0.76c-1.14,0.5-2.12,1.19-2.93,2.07c-0.81,0.87-1.44,1.93-1.89,3.18
				c-0.45,1.24-0.68,2.59-0.68,4.03c0,1.14,0.15,2.24,0.45,3.28c0.3,1.04,0.73,1.97,1.29,2.77c0.55,0.81,1.21,1.51,1.97,2.12
				c0.76,0.61,1.6,1.07,2.52,1.39c0.92,0.32,1.91,0.48,2.95,0.48C764.05,538.69,766.24,537.74,767.99,535.84z"/>
			<path class="st1" d="M828.92,502.28V522c-1.01-0.07-2.3-0.1-3.88-0.1c-3.43,0-6.04,0.9-7.82,2.7c-1.78,1.8-2.67,4.21-2.67,7.24
				v22.09h-18.46v-50.59h18.46v6.91h0.15c1.78-2.59,3.89-4.56,6.33-5.93c2.44-1.36,5.04-2.04,7.79-2.04H828.92z"/>
			<path class="st1" d="M836.63,494.74c-1.98-1.9-2.98-4.28-2.98-7.14c0-1.82,0.45-3.47,1.34-4.97c0.89-1.5,2.15-2.68,3.78-3.56
				c1.63-0.87,3.45-1.31,5.47-1.31c3.09,0,5.63,0.93,7.62,2.8c1.98,1.87,2.98,4.21,2.98,7.04c0,2.89-0.99,5.28-2.98,7.16
				c-1.98,1.88-4.52,2.82-7.62,2.82S838.62,496.64,836.63,494.74z M835.02,503.34h18.41v50.59h-18.41V503.34z"/>
			<path class="st1" d="M914.86,503.34v50.59h-17.5v-4.74h-0.15c-3.03,3.87-7.36,5.8-13.01,5.8c-3.43,0-6.6-0.65-9.51-1.94
				c-2.91-1.29-5.39-3.09-7.44-5.37c-2.05-2.29-3.66-5.07-4.82-8.35c-1.16-3.28-1.74-6.85-1.74-10.72c0-3.8,0.57-7.35,1.71-10.64
				c1.14-3.3,2.72-6.09,4.72-8.37c2-2.29,4.38-4.08,7.14-5.37c2.76-1.29,5.7-1.94,8.83-1.94c5.25,0,9.62,2.02,13.11,6.05h0.15v-4.99
				H914.86z M894.61,536.02c1.7-1.88,2.55-4.34,2.55-7.36c0-2.96-0.85-5.39-2.55-7.29c-1.7-1.9-3.81-2.85-6.33-2.85
				c-2.62,0-4.77,0.94-6.46,2.82c-1.68,1.88-2.52,4.32-2.52,7.31c0,3.06,0.84,5.52,2.52,7.39c1.68,1.87,3.83,2.8,6.46,2.8
				C890.8,538.85,892.91,537.9,894.61,536.02z"/>
			<path class="st1" d="M496.59,569.74v76.06h-17.5v-4.74h-0.2c-3.13,3.87-7.6,5.8-13.42,5.8c-3.43,0-6.6-0.65-9.51-1.94
				c-2.91-1.29-5.39-3.09-7.44-5.37c-2.05-2.29-3.66-5.07-4.82-8.35c-1.16-3.28-1.74-6.85-1.74-10.72c0-3.8,0.57-7.35,1.71-10.64
				c1.14-3.3,2.72-6.09,4.72-8.37c2-2.29,4.38-4.08,7.14-5.37c2.76-1.29,5.7-1.94,8.83-1.94c5.45,0,9.97,2.03,13.57,6.1h0.15v-30.51
				H496.59z M476.26,627.92c1.75-1.87,2.62-4.33,2.62-7.39c0-2.99-0.87-5.43-2.62-7.31c-1.75-1.88-3.98-2.82-6.71-2.82
				c-2.62,0-4.77,0.94-6.46,2.82c-1.68,1.88-2.52,4.32-2.52,7.31c0,3.06,0.84,5.52,2.52,7.39c1.68,1.87,3.83,2.8,6.46,2.8
				C472.28,630.72,474.52,629.79,476.26,627.92z"/>
			<path class="st1" d="M554.69,625.02h-33.19c0.4,2.35,1.55,4.15,3.45,5.4c1.9,1.24,4.25,1.87,7.04,1.87c4.2,0,8.09-1.87,11.65-5.6
				l9.53,10.49c-2.29,2.86-5.44,5.19-9.46,6.99c-4.02,1.8-8.58,2.7-13.69,2.7c-5.01,0-9.53-1.1-13.57-3.3
				c-4.03-2.2-7.2-5.32-9.51-9.36c-2.3-4.03-3.45-8.61-3.45-13.72c0-5.04,1.12-9.57,3.35-13.57c2.24-4,5.35-7.13,9.36-9.38
				c4-2.25,8.51-3.38,13.52-3.38c3.6,0,6.98,0.65,10.14,1.94c3.16,1.29,5.86,3.07,8.09,5.32c2.24,2.25,4,5,5.3,8.25
				c1.29,3.24,1.94,6.73,1.94,10.47C555.2,622.05,555.03,623.68,554.69,625.02z M524.36,610.02c-1.46,1.19-2.4,2.85-2.8,4.97h15.74
				c-0.24-1.04-0.58-1.98-1.03-2.82c-0.45-0.84-1-1.56-1.64-2.14c-0.64-0.59-1.39-1.03-2.24-1.34c-0.86-0.3-1.77-0.45-2.75-0.45
				C527.57,608.23,525.82,608.82,524.36,610.02z"/>
		</g>
		<g>
			<path class="st1" d="M639.3,572.41l-26.68,73.38h-17.25l-26.83-73.38h21.33l13.92,45.39h0.25l14.12-45.39H639.3z"/>
			<path class="st1" d="M645.4,586.61c-1.98-1.9-2.98-4.28-2.98-7.14c0-1.82,0.45-3.47,1.34-4.97c0.89-1.5,2.15-2.68,3.78-3.56
				c1.63-0.87,3.45-1.31,5.47-1.31c3.09,0,5.63,0.93,7.62,2.8c1.98,1.87,2.98,4.21,2.98,7.04c0,2.89-0.99,5.28-2.98,7.16
				c-1.98,1.88-4.52,2.82-7.62,2.82S647.38,588.51,645.4,586.61z M643.79,595.21h18.41v50.59h-18.41V595.21z"/>
			<path class="st1" d="M723.63,595.21v50.59h-17.5v-4.74h-0.15c-3.03,3.87-7.36,5.8-13.01,5.8c-3.43,0-6.6-0.65-9.51-1.94
				c-2.91-1.29-5.39-3.09-7.44-5.37c-2.05-2.29-3.66-5.07-4.82-8.35c-1.16-3.28-1.74-6.85-1.74-10.72c0-3.8,0.57-7.35,1.71-10.64
				c1.14-3.3,2.72-6.09,4.72-8.37c2-2.29,4.38-4.08,7.14-5.37c2.76-1.29,5.7-1.94,8.83-1.94c5.25,0,9.62,2.02,13.11,6.05h0.15v-4.99
				H723.63z M703.38,627.89c1.7-1.88,2.55-4.34,2.55-7.36c0-2.96-0.85-5.39-2.55-7.29c-1.7-1.9-3.81-2.85-6.33-2.85
				c-2.62,0-4.77,0.94-6.46,2.82c-1.68,1.88-2.52,4.32-2.52,7.31c0,3.06,0.84,5.52,2.52,7.39c1.68,1.87,3.83,2.8,6.46,2.8
				C699.57,630.72,701.68,629.78,703.38,627.89z"/>
			<path class="st1" d="M784.35,595.21v43.22c0,3.53-0.29,6.72-0.86,9.56c-0.57,2.84-1.53,5.48-2.87,7.92
				c-1.35,2.44-3.08,4.48-5.19,6.13c-2.12,1.65-4.78,2.93-7.99,3.86c-3.21,0.92-6.9,1.39-11.07,1.39c-4.34,0-8.12-0.35-11.35-1.06
				c-3.23-0.71-6.44-1.9-9.63-3.58l4.09-14.53c1.82,1.14,4.11,2.11,6.88,2.9c2.77,0.79,5.34,1.19,7.69,1.19
				c3.9,0,6.93-0.77,9.08-2.32c2.15-1.55,3.23-3.5,3.23-5.85v-4.59h-0.15c-3.23,3.53-7.68,5.3-13.37,5.3
				c-4.37,0-8.29-1.08-11.75-3.25c-3.46-2.17-6.14-5.13-8.04-8.88c-1.9-3.75-2.85-7.94-2.85-12.58c0-3.7,0.56-7.16,1.69-10.39
				c1.13-3.23,2.65-5.97,4.56-8.22c1.92-2.25,4.21-4.03,6.88-5.32c2.67-1.29,5.52-1.94,8.55-1.94c5.68,0,10.31,2,13.87,6h0.15v-4.94
				H784.35z M764.15,626c1.7-1.66,2.55-3.82,2.55-6.48c0-2.62-0.86-4.78-2.57-6.48c-1.71-1.7-3.83-2.55-6.35-2.55
				s-4.65,0.85-6.38,2.55c-1.73,1.7-2.6,3.86-2.6,6.48c0,2.66,0.86,4.82,2.57,6.48c1.71,1.66,3.85,2.5,6.41,2.5
				S762.45,627.67,764.15,626z"/>
			<path class="st1" d="M842.25,625.02h-33.19c0.4,2.35,1.55,4.15,3.45,5.4c1.9,1.24,4.24,1.87,7.04,1.87c4.2,0,8.09-1.87,11.65-5.6
				l9.53,10.49c-2.29,2.86-5.44,5.19-9.46,6.99c-4.02,1.8-8.58,2.7-13.69,2.7c-5.01,0-9.53-1.1-13.57-3.3
				c-4.03-2.2-7.2-5.32-9.51-9.36c-2.3-4.03-3.45-8.61-3.45-13.72c0-5.04,1.12-9.57,3.35-13.57c2.24-4,5.35-7.13,9.36-9.38
				c4-2.25,8.51-3.38,13.52-3.38c3.6,0,6.98,0.65,10.14,1.94s5.86,3.07,8.09,5.32c2.24,2.25,4,5,5.3,8.25
				c1.29,3.24,1.94,6.73,1.94,10.47C842.76,622.04,842.59,623.67,842.25,625.02z M811.92,610.01c-1.46,1.19-2.4,2.85-2.8,4.97h15.74
				c-0.24-1.04-0.58-1.98-1.03-2.82c-0.45-0.84-1-1.56-1.64-2.14c-0.64-0.59-1.39-1.03-2.24-1.34c-0.86-0.3-1.77-0.45-2.75-0.45
				C815.13,608.22,813.38,608.82,811.92,610.01z"/>
			<path class="st1" d="M887.37,594.58c1.5,0.29,2.93,0.75,4.31,1.39c1.38,0.64,2.59,1.5,3.63,2.57c1.04,1.08,1.95,2.38,2.72,3.91
				c0.77,1.53,1.36,3.36,1.77,5.5c0.4,2.14,0.6,4.55,0.6,7.24v30.61h-18.46v-26.18c0-2.35-0.24-4.2-0.73-5.55
				c-0.49-1.34-1.19-2.28-2.12-2.8c-0.92-0.52-2.18-0.78-3.76-0.78c-2.29,0-4.09,0.82-5.4,2.45c-1.31,1.63-1.97,4.11-1.97,7.44
				v25.42h-18.46v-50.59h18.46v5.55h0.1c1.85-2.15,4.02-3.79,6.51-4.92c2.49-1.13,5.11-1.69,7.87-1.69
				C884.23,594.15,885.87,594.29,887.37,594.58z"/>
			<path class="st1" d="M905.3,639.29l8.37-11.4c4.4,3.83,8.62,5.75,12.66,5.75c2.49,0,3.73-0.69,3.73-2.07
				c0-0.47-0.13-0.87-0.4-1.18c-0.27-0.32-0.92-0.71-1.94-1.19c-1.03-0.47-2.55-0.99-4.56-1.56c-1.82-0.54-3.47-1.12-4.97-1.74
				c-1.5-0.62-2.95-1.4-4.36-2.35c-1.41-0.94-2.6-1.98-3.56-3.13c-0.96-1.14-1.72-2.5-2.29-4.09c-0.57-1.58-0.86-3.31-0.86-5.19
				c0-2.69,0.51-5.13,1.54-7.31c1.03-2.19,2.43-3.98,4.21-5.37c1.78-1.4,3.84-2.46,6.18-3.2c2.34-0.74,4.83-1.11,7.49-1.11
				c2.69,0,5.19,0.25,7.49,0.76c2.3,0.5,4.4,1.2,6.3,2.09c1.9,0.89,3.89,2.08,5.98,3.56l-8.52,12.26c-1.61-1.61-3.38-2.88-5.3-3.81
				c-1.92-0.92-3.7-1.39-5.35-1.39c-0.87,0-1.62,0.18-2.24,0.53c-0.62,0.35-0.93,0.87-0.93,1.54c0,0.54,0.44,1.07,1.31,1.59
				c0.87,0.52,2.52,1.17,4.94,1.94c2.49,0.81,4.56,1.56,6.23,2.24c1.66,0.69,3.24,1.5,4.72,2.45c1.48,0.94,2.64,1.97,3.48,3.08
				c0.84,1.11,1.5,2.42,1.97,3.93c0.47,1.51,0.71,3.24,0.71,5.19c0,2.49-0.45,4.75-1.34,6.78c-0.89,2.03-2.2,3.8-3.93,5.3
				c-1.73,1.5-3.97,2.65-6.71,3.45c-2.74,0.81-5.86,1.21-9.36,1.21C917.87,646.86,910.98,644.34,905.3,639.29z"/>
		</g>
	</g>
	<g>
		<g>
			<path class="st1" d="M290.91,566.11c-2.71,0-4.91,2.2-4.91,4.91v1.25v5.3h9.83v-5.3v-1.25
				C295.82,568.31,293.62,566.11,290.91,566.11z"/>
		</g>
		<g>
			<path class="st1" d="M310.56,566.11c-2.71,0-4.91,2.2-4.91,4.91v1.25v5.3h9.83v-5.3v-1.25
				C315.47,568.31,313.28,566.11,310.56,566.11z"/>
		</g>
		<g>
			<path class="st1" d="M330.22,566.11c-2.71,0-4.91,2.2-4.91,4.91v1.25v5.3h9.83v-5.3v-1.25
				C335.13,568.31,332.93,566.11,330.22,566.11z"/>
		</g>
		<g>
			<path class="st1" d="M349.87,566.11c-2.71,0-4.91,2.2-4.91,4.91v1.25v5.3h9.83v-5.3v-1.25
				C354.78,568.31,352.58,566.11,349.87,566.11z"/>
		</g>
		<g>
			<path class="st1" d="M315.47,603.78c0-2.71-2.2-4.91-4.91-4.91c-2.71,0-4.91,2.2-4.91,4.91v6.55h9.83V603.78z"/>
		</g>
		<g>
			<path class="st1" d="M335.13,603.78c0-2.71-2.2-4.91-4.91-4.91c-2.71,0-4.91,2.2-4.91,4.91v6.55h9.83V603.78z"/>
		</g>
		<g>
			<path class="st1" d="M354.78,603.78c0-2.71-2.2-4.91-4.91-4.91c-2.71,0-4.91,2.2-4.91,4.91v6.55h9.83V603.78z"/>
		</g>
		<g>
			<path class="st1" d="M374.44,603.78c0-2.71-2.2-4.91-4.91-4.91c-2.71,0-4.91,2.2-4.91,4.91v6.55h9.83V603.78z"/>
		</g>
		<g>
			<path class="st1" d="M178.74,510.79v-4.07c0-2.88-2.34-5.22-5.22-5.22c-2.88,0-5.22,2.34-5.22,5.22v4.07v2.89h10.44V510.79z"/>
		</g>
		<g>
			<path class="st1" d="M178.74,525.93c0-2.88-2.34-5.22-5.22-5.22c-2.88,0-5.22,2.34-5.22,5.22v6.96h10.44V525.93z"/>
		</g>
		<g>
			<path class="st1" d="M236.67,511.68c-2.88,0-5.22,2.34-5.22,5.22v6.96h10.44v-6.96C241.89,514.01,239.55,511.68,236.67,511.68z"
				/>
		</g>
		<g>
			<path class="st1" d="M236.67,529.11c-2.88,0-5.22,2.34-5.22,5.22v6.96h10.44v-6.96C241.89,531.45,239.55,529.11,236.67,529.11z"
				/>
		</g>
		<g>
			<path class="st1" d="M178.74,545.14c0-2.88-2.34-5.22-5.22-5.22c-2.88,0-5.22,2.34-5.22,5.22v6.96h10.44V545.14z"/>
		</g>
		<g>
			<path class="st1" d="M379.05,488.27l15.96-27.12l-7.61-4.48l-5.4,9.18c-2.47-2.34-5.11-4.47-7.91-6.37l4.84-8.27l-7.62-4.46
				l-4.85,8.29c-0.51-0.25-6.42-2.79-8.93-3.59l4.4-7.75l-7.68-4.36l-5.65,9.97c-2.1-0.34-4.23-0.58-6.38-0.72v-19.86h7.78v-8.83
				h-7.78v-8.9h-8.83v8.9h-7.78v8.83h7.78v19.86c-2.14,0.14-4.25,0.37-6.33,0.7l-5.61-9.94l-7.69,4.34l4.34,7.69
				c-3.04,0.95-6,2.11-8.84,3.5l-4.29-7.44l-7.65,4.41l4.3,7.45c-2.82,1.91-5.49,4.07-7.99,6.45l-2.73-4.64l-0.65-1.11l0,0l0,0l0,0
				l-2.02-3.43l-2.89,1.7c-0.1-1.61-0.33-3.25-0.69-4.91c-1.27-5.86-4.17-11.99-8.66-18.35c-2.39-3.39-5.24-6.84-8.54-10.35
				c-1.76-1.88-3.65-3.77-5.67-5.68c-6.69-6.32-13.29-11.4-17.58-14.49c0.24-0.76,0.37-1.56,0.37-2.4c0-3.38-2.12-6.26-5.1-7.39
				v-17.89h-5.62v17.89c-2.98,1.13-5.1,4.01-5.1,7.39c0,0.84,0.13,1.64,0.37,2.4c-4.29,3.1-10.9,8.17-17.58,14.49
				c-3.49,3.3-6.6,6.56-9.32,9.76c0,0-0.01,0.01-0.01,0.01c-1.14,0.99-2.19,2.06-3.16,3.18c-0.61-0.69-1.23-1.38-1.88-2.08l0,0
				c-6.8-7.25-14.39-13.08-18.67-16.14c0.02-0.22,0.04-0.45,0.04-0.68c0-2.26-1.23-4.24-3.05-5.31c-0.1-0.06-0.2-0.11-0.3-0.16
				V393.9h-5.62v13.68c-0.1,0.05-0.2,0.1-0.3,0.16c-1.82,1.07-3.05,3.04-3.05,5.31c0,0.23,0.01,0.46,0.04,0.68
				c-3.35,2.4-8.74,6.5-14.2,11.66c-3.67,3.47-6.8,6.88-9.4,10.22c-6.06,7.8-9.19,15.22-9.32,22.16c-0.14,7.35,3,13.8,9.32,19.23
				c0.49,0.42,1,0.84,1.54,1.25v2.4c0,5.2,2.83,9.74,7.03,12.18v1.37v23.28v44.79h-8.56h-0.01v-50.44
				c-6.64,16.51-10.01,33.98-10.01,51.95c0,2.84,0.09,5.67,0.25,8.49c0.53,8.92,1.91,17.69,4.11,26.27
				c1.11,4.34,2.44,8.62,3.98,12.85c0.81,2.23,1.68,4.45,2.61,6.65c7.02,16.6,17.07,31.51,29.87,44.31
				c7.4,7.4,15.5,13.87,24.22,19.38c3.23,2.04,6.55,3.95,9.95,5.72c3.31,1.72,6.69,3.32,10.14,4.78c1.98,0.84,3.97,1.62,5.97,2.36
				c15.43,5.7,31.64,8.59,48.29,8.59s32.87-2.89,48.29-8.59c2-0.74,3.99-1.53,5.97-2.36c3.46-1.46,6.84-3.06,10.14-4.78
				c3.4-1.77,6.72-3.68,9.95-5.72c8.72-5.51,16.82-11.98,24.22-19.38c10.97-10.97,19.91-23.48,26.67-37.28
				c1.13-2.31,2.2-4.65,3.21-7.03c5.06-11.96,8.38-24.44,9.94-37.27c0.34-2.82,0.6-5.65,0.77-8.5c0.17-2.82,0.25-5.65,0.25-8.49
				v-4.22v-9.83v-0.01L379.05,488.27z M367.14,572.27c2.69,3.11,5.53,6.04,8.59,8.64c0.65,0.55,1.3,1.07,1.95,1.58H279.6
				c-0.05-0.17-0.11-0.33-0.16-0.5v-9.72v-10.01v-2.71h77.77c0.66,0.9,1.33,1.81,2,2.71C361.75,565.68,364.37,569.07,367.14,572.27z
				 M394.09,606.91v-3.14c0-2.71-2.2-4.91-4.91-4.91c-2.71,0-4.91,2.2-4.91,4.91v6.55h8.56c-0.64,1.65-1.31,3.29-2.02,4.91h-93.43
				c-1.84-1.3-3.52-2.96-5.07-4.91h3.51v-6.55c0-2.71-2.2-4.91-4.91-4.91c-1.76,0-3.29,0.92-4.16,2.31
				c-1.35-2.79-2.59-5.78-3.74-8.86h115.31C397.19,597.29,395.78,602.17,394.09,606.91z M158.31,484.72c-0.34,0-0.67-0.05-0.98-0.12
				c-1.77-0.44-3.09-2.04-3.09-3.95v-0.32v-2.45h8.04h13.12h17.04v2.45v0.32c0,2.25-1.83,4.07-4.07,4.07h-18.64H158.31z
				 M151.03,441.2c1.39-1.74,2.9-3.45,4.47-5.1c0.46-0.48,0.92-0.95,1.38-1.42l29.93,35.63h-4.14h-6.8h-3.71l-21.99-28.03
				C150.46,441.93,150.74,441.56,151.03,441.2z M260.75,432.16c0.79,0.86,1.55,1.71,2.28,2.56c2.58,2.99,4.76,5.9,6.54,8.72
				c-3.44,6.84-9.9,10.58-35.43,8.73c-17.68-1.28-27.07,4.7-31.82,9.95c-1.33,1.47-2.39,2.96-3.22,4.39
				c-0.82-2.13-1.21-4.37-1.17-6.71c0-0.11,0.01-0.21,0.01-0.32c0.06-1.82,0.38-3.72,0.95-5.69c0.49-1.7,1.16-3.45,2.02-5.24
				c1.46-3.07,3.46-6.28,5.97-9.6c4.55-2,10.39-2.76,17.37-2.25C242.43,438.01,253.48,436.77,260.75,432.16z M284.3,467.97
				l12.32,20.29l0,0.01l-15.18,28.7h-3.89h-3.01h-4.93v32.76h-3.05h-0.36c-1.55-2.03-3.28-3.71-5.24-4.96v-12.42v-5.26v-9.83v-11.68
				c7.2-0.62,12.87-6.67,12.87-14.02v-8.29c4.86-4.16,8.2-8.79,10-13.86C284.01,468.93,284.16,468.45,284.3,467.97z M215.97,495.63
				c-2.25,0-4.07-1.83-4.07-4.07v-4.42h51.94v4.42c0,2.25-1.83,4.07-4.07,4.07H215.97z M274.44,453.82
				c0.59,2.07,0.92,4.06,0.95,5.97c0.1,5.24-1.96,9.92-6.24,14.19c-1.08,1.07-2.29,2.12-3.65,3.14h-50.47h-7.22
				c-0.05-0.04-0.09-0.07-0.14-0.11c-0.57-0.43-1.1-0.86-1.62-1.3c0.24-1.07,1.16-4.28,4.01-7.25c4.73-4.9,12.8-7.09,23.35-6.33
				c15.81,1.15,26,0.31,33.03-2.73C269.85,457.96,272.42,456.01,274.44,453.82z M299.57,526.8h7.05l0,0h3.12l4.09,0
				c2.04,0,3.99,0.17,5.85,0.48c10.15,1.71,17.83,7.84,24.76,15.74c1.86,2.13,3.68,4.38,5.46,6.71h-70.48v-6.71V526.8h6.75v0h3.51
				l6.92,0l0,0H299.57z M357.15,543.02c-4.12-5.32-8.51-10.41-13.49-14.64c-0.89-0.76-1.79-1.48-2.7-2.16
				c-3.18-2.39-6.46-4.31-9.85-5.76l4.66-7.99c0.74-1.27,1.42-2.58,2.04-3.91c0.62,1.34,1.3,2.65,2.05,3.93l19.72,33.72
				C358.78,545.14,357.97,544.07,357.15,543.02z M195.43,492.82c2.94-1.72,5.21-4.47,6.29-7.76c0.05,0.04,0.1,0.08,0.16,0.12v6.38
				c0,6.51,4.45,12.01,10.47,13.61v57.1h-16.92V492.82z M223.37,572.27c-1.56,5.02-2.65,10.03-3.64,14.54
				c-1.15,5.29-2.25,10.28-3.68,13.4c-1.19,2.59-1.89,2.51-2.27,2.48c-2.97-0.3-4.71-5.46-7.02-13.29
				c-1.66-5.64-3.54-11.98-6.97-17.12H223.37z M227.95,560.92c-0.23,0.45-0.46,0.89-0.68,1.35h-5.44c0.18-0.35,0.35-0.7,0.53-1.05
				v-55.58h28.61v36.82c-1.81,0.21-3.67,0.73-5.59,1.56C237.1,547.59,231.69,553.81,227.95,560.92z M369.63,467.11
				c2.76,1.93,5.35,4.13,7.76,6.59l0,0l-8.39,14.27l32.53,61.77h-0.04h-0.76h-9.56l-26.1-49.29c-2.07-3.91-3.17-8.32-3.17-12.75
				c0-4.76,1.26-9.46,3.62-13.56L369.63,467.11z M353.07,459.31c3.08,0.86,6.07,1.97,8.93,3.34l-4.12,7.04
				c-3.15,5.47-4.82,11.69-4.82,18c0,5.86,1.45,11.7,4.2,16.88l23.91,45.15h-9.31l-24.38-41.7c-3.45-5.89-5.27-12.61-5.27-19.43
				c0-6.64,1.73-13.2,5.01-18.98L353.07,459.31z M337.8,457.26c2.06,0,4.1,0.11,6.1,0.32l-4.36,7.69c-0.63,1.1-1.2,2.23-1.73,3.38
				c-0.53-1.13-1.09-2.25-1.71-3.34l-4.36-7.73C333.73,457.37,335.75,457.26,337.8,457.26z M322.57,459.28l5.85,10.36
				c3.25,5.76,4.97,12.3,4.97,18.91v0.07c0,6.81-1.81,13.51-5.24,19.39l-5.7,9.77c-1.77-0.34-3.58-0.58-5.42-0.71
				c-0.52-0.03-1.04-0.06-1.56-0.08c-0.54-0.02-1.08-0.03-1.63-0.03h-1.99l6.58-12.39c2.75-5.18,4.2-11.02,4.2-16.88
				c0-6.31-1.67-12.53-4.82-18l-4.12-7.13C316.54,461.21,319.5,460.12,322.57,459.28z M306.06,466.98l4.11,7.12
				c2.38,4.13,3.64,8.83,3.64,13.59c0,4.43-1.1,8.83-3.17,12.74l-8.78,16.53h-3.98h-2.94h-3.55l15.3-29.01l-8.44-14.35
				C300.66,471.14,303.27,468.92,306.06,466.98z M218.31,426.37c7.24-6.86,14.54-12.26,18.36-14.95c3.49,2.46,9.9,7.19,16.51,13.23
				c0.04,0.04,0.08,0.07,0.12,0.11c-4.95,2.14-13.23,3.03-28.32,1.94c-2.38-0.17-4.67-0.22-6.87-0.14
				C218.18,426.5,218.24,426.44,218.31,426.37z M189.88,436.72c1.24,1.33,2.39,2.64,3.45,3.94c-1.2,2.39-2.14,4.74-2.87,6.86
				c-0.19,0.48-0.37,0.96-0.53,1.44c-0.85,2.45-1.43,4.86-1.74,7.22c-0.01,0.07-0.02,0.13-0.02,0.2l-23.89-28.44
				c0.73-0.62,1.46-1.21,2.17-1.79c2.15-1.73,4.18-3.25,5.94-4.49C176.23,424.4,183.53,429.95,189.88,436.72 M143.38,457.96
				c0.02-1.26,0.21-2.54,0.54-3.83c0.22-0.85,0.5-1.7,0.83-2.55l14.71,18.75h-9.12c-1.03-0.8-1.94-1.61-2.74-2.45
				C144.7,464.86,143.31,461.59,143.38,457.96z M161.27,497.04v-2.32h1.43h22.73v67.53h-2.21c-1.59-0.14-3.25-0.14-4.99,0h-16.96
				V497.04z M272.09,693.17c-19.59,0-38.18-4.38-54.84-12.21c4.4-3.23,8.65-6.71,12.74-10.43c3.96-3.61,7.76-7.44,11.39-11.49
				l9.57,7.51l10.52-8.26l10.52,8.25l10.52-8.25l10.52,8.25l9.7-7.61c3.66,4.08,7.49,7.95,11.48,11.59
				c4.08,3.72,8.34,7.2,12.74,10.43C310.27,688.79,291.68,693.17,272.09,693.17z M247.85,651.4c3.97-4.99,7.71-10.25,11.19-15.76
				h26.1c3.46,5.48,7.17,10.7,11.11,15.65l-3.24,2.54l-10.52-8.25l-10.52,8.25l-10.52-8.25l-10.52,8.25L247.85,651.4z M336.9,675.74
				c-14.08-9.64-30.66-24.71-44.7-47.71l-1.46-2.4h-37.28l-1.46,2.4c-14.04,23.01-30.62,38.07-44.7,47.71
				c-28.56-16.6-50.23-43.8-59.56-76.19c5.68-11.07,15.98-25.83,30.96-27.29h4.07c3.46,0.41,6.06,1.96,8.19,4.82
				c2.9,3.88,4.58,9.6,6.21,15.13c1.34,4.54,2.6,8.83,4.57,12.38c2.69,4.87,6.41,7.57,11.04,8.04c3.73,0.38,8.9-0.75,12.36-8.24
				c1.89-4.1,3.04-9.36,4.37-15.46c1.2-5.51,2.47-11.31,4.37-16.68c1.28-3.61,2.83-7.02,4.85-10.01c2.63-3.9,6.05-7.09,10.62-9.06
				c2.95-1.27,4.55-0.85,5.49-0.42c2.64,1.2,4.96,4.75,7.09,9.48c1.34,2.97,2.6,6.4,3.83,10.01c0.93,2.73,1.83,5.56,2.73,8.37
				c0.2,0.61,0.39,1.23,0.59,1.84c2.89,9.02,6.02,18.45,10.35,26.4c1.23,2.25,2.55,4.39,3.99,6.36c3,4.1,6.51,7.51,10.74,9.83
				c2.15,1.18,4.47,2.08,7.01,2.65c7.99,1.79,16.03,3.26,23.8,4.68c20.01,3.66,39.02,7.15,46.31,14.36
				C361.63,658.3,349.99,668.14,336.9,675.74z M377.44,638.83c-7.8-6.94-21.33-10.59-37.29-13.76h45.87
				C383.45,629.84,380.58,634.44,377.44,638.83z M400.2,582.08c-7.6-1.17-13.83-4.8-19.39-9.81c-3.25-2.94-6.28-6.34-9.21-10.01
				c-0.71-0.89-1.42-1.79-2.12-2.71h31.17v2.71v10.01v6.32C400.51,579.75,400.36,580.92,400.2,582.08z"/>
		</g>
		<g>
			<path class="st1" d="M290.91,533.35c-2.71,0-4.91,2.2-4.91,4.91v6.55h9.83v-1.79v-4.76c0-0.98-0.29-1.9-0.79-2.67
				C294.15,534.24,292.64,533.35,290.91,533.35z"/>
		</g>
		<g>
			<path class="st1" d="M315.47,543.02v-4.76c0-0.93-0.26-1.8-0.71-2.54c-0.86-1.42-2.42-2.38-4.2-2.38c-2.71,0-4.91,2.2-4.91,4.91
				v6.55h9.83V543.02z"/>
		</g>
		<g>
			<path class="st1" d="M335.13,543.02v-4.76c0-2.71-2.2-4.91-4.91-4.91c-2.71,0-4.91,2.2-4.91,4.91v4.76v1.79h9.83V543.02z"/>
		</g>
	</g>
</g>
</svg>
