<?xml version="1.0" encoding="utf-8"?>
<!-- Generator: Adobe Illustrator 24.3.0, SVG Export Plug-In . SVG Version: 6.00 Build 0)  -->
<svg version="1.1" id="Camada_1" xmlns="http://www.w3.org/2000/svg" xmlns:xlink="http://www.w3.org/1999/xlink" x="0px" y="0px"
	 viewBox="0 0 1080 1080" style="enable-background:new 0 0 1080 1080;" xml:space="preserve">
<style type="text/css">
	.st0{fill:#1E1E1E;}
	.st1{fill:#FFFFFF;}
	.st2{fill:#0068FF;}
</style>
<g>
	<g>
		<g>
			<g>
				<path class="st0" d="M332.33,521.35c-3.19-0.74-6.21-1.81-9.05-3.2c-2.84-1.4-5.45-3.17-7.82-5.32c-2.37-2.15-4.4-4.59-6.1-7.31
					c-1.7-2.72-3.02-5.84-3.96-9.36c-0.94-3.51-1.41-7.27-1.41-11.27c0-3.5,0.39-6.86,1.16-10.09c0.77-3.23,1.88-6.25,3.33-9.05
					c1.45-2.81,3.28-5.36,5.5-7.67c2.22-2.3,4.72-4.28,7.49-5.93c2.77-1.65,5.93-2.93,9.48-3.83c3.55-0.91,7.32-1.36,11.32-1.36
					c5.35,0,10.68,1.18,16.01,3.53c5.33,2.35,9.96,5.9,13.9,10.64l-14.37,12.31c-0.84-0.94-1.77-1.82-2.8-2.65
					c-1.03-0.82-2.19-1.62-3.51-2.4c-1.31-0.77-2.77-1.39-4.36-1.84c-1.6-0.45-3.22-0.68-4.87-0.68c-1.82,0-3.58,0.25-5.3,0.76
					c-1.71,0.5-3.32,1.29-4.82,2.35c-1.5,1.06-2.8,2.34-3.91,3.83c-1.11,1.5-1.98,3.28-2.62,5.35c-0.64,2.07-0.96,4.31-0.96,6.73
					c0,2.49,0.4,4.86,1.21,7.11c0.81,2.25,1.95,4.24,3.43,5.95c1.48,1.71,3.34,3.08,5.57,4.09c2.24,1.01,4.7,1.51,7.39,1.51
					c2.86,0,5.71-0.69,8.55-2.07c2.84-1.38,5.17-3.18,6.99-5.4l14.37,12.36c-3.4,4.17-7.68,7.55-12.86,10.14
					c-5.18,2.59-10.86,3.88-17.05,3.88C338.83,522.46,335.52,522.09,332.33,521.35z"/>
				<path class="st0" d="M428.01,470.81v50.59H409.5V516h-0.2c-1.71,2.12-3.76,3.72-6.13,4.82c-2.37,1.09-4.92,1.64-7.64,1.64
					c-11.94,0-17.9-7.35-17.9-22.04v-29.61h18.41v25.17c0,3.6,0.51,6.2,1.54,7.79s2.72,2.4,5.07,2.4c2.05,0,3.71-0.83,4.97-2.5
					c1.26-1.66,1.89-4.14,1.89-7.44v-25.42H428.01z"/>
				<path class="st0" d="M469.67,469.75v19.72c-1.01-0.07-2.3-0.1-3.88-0.1c-3.43,0-6.04,0.9-7.82,2.7
					c-1.78,1.8-2.67,4.21-2.67,7.24v22.09h-18.46v-50.59h18.46v6.91h0.15c1.78-2.59,3.89-4.56,6.33-5.93
					c2.44-1.36,5.04-2.04,7.79-2.04H469.67z"/>
				<path class="st0" d="M526.71,470.81v50.59h-17.5v-4.74h-0.15c-3.03,3.87-7.36,5.8-13.01,5.8c-3.43,0-6.6-0.65-9.51-1.94
					c-2.91-1.29-5.39-3.09-7.44-5.37c-2.05-2.29-3.66-5.07-4.82-8.35c-1.16-3.28-1.74-6.85-1.74-10.72c0-3.8,0.57-7.35,1.71-10.64
					c1.14-3.3,2.72-6.09,4.72-8.37c2-2.29,4.38-4.08,7.14-5.37c2.76-1.29,5.7-1.94,8.83-1.94c5.25,0,9.62,2.02,13.11,6.05h0.15
					v-4.99H526.71z M506.46,503.5c1.7-1.88,2.55-4.34,2.55-7.36c0-2.96-0.85-5.39-2.55-7.29c-1.7-1.9-3.81-2.85-6.33-2.85
					c-2.62,0-4.77,0.94-6.46,2.82c-1.68,1.88-2.52,4.32-2.52,7.31c0,3.06,0.84,5.52,2.52,7.39c1.68,1.87,3.83,2.8,6.46,2.8
					C502.65,506.32,504.76,505.38,506.46,503.5z"/>
				<path class="st0" d="M587.94,445.34v76.06h-17.5v-4.74h-0.2c-3.13,3.87-7.6,5.8-13.42,5.8c-3.43,0-6.6-0.65-9.51-1.94
					c-2.91-1.29-5.39-3.09-7.44-5.37c-2.05-2.29-3.66-5.07-4.82-8.35c-1.16-3.28-1.74-6.85-1.74-10.72c0-3.8,0.57-7.35,1.71-10.64
					c1.14-3.3,2.72-6.09,4.72-8.37c2-2.29,4.38-4.08,7.14-5.37s5.7-1.94,8.83-1.94c5.45,0,9.97,2.03,13.57,6.1h0.15v-30.51H587.94z
					 M567.61,503.52c1.75-1.87,2.62-4.33,2.62-7.39c0-2.99-0.87-5.43-2.62-7.31c-1.75-1.88-3.98-2.82-6.71-2.82
					c-2.62,0-4.77,0.94-6.46,2.82c-1.68,1.88-2.52,4.32-2.52,7.31c0,3.06,0.84,5.52,2.52,7.39c1.68,1.87,3.83,2.8,6.46,2.8
					C563.63,506.32,565.87,505.39,567.61,503.52z"/>
				<path class="st0" d="M608.19,519.16c-4.22-2.2-7.5-5.3-9.83-9.31c-2.34-4-3.51-8.57-3.51-13.72c0-5.14,1.17-9.72,3.51-13.72
					c2.34-4,5.62-7.11,9.83-9.33c4.22-2.22,9.02-3.33,14.4-3.33c5.38,0,10.17,1.11,14.37,3.33c4.2,2.22,7.48,5.33,9.84,9.33
					c2.35,4,3.53,8.57,3.53,13.72c0,5.14-1.18,9.72-3.53,13.72c-2.35,4-5.63,7.1-9.84,9.31c-4.2,2.2-8.99,3.3-14.37,3.3
					C617.21,522.46,612.41,521.36,608.19,519.16z M629.15,503.32c1.75-1.9,2.62-4.3,2.62-7.19c0-2.96-0.86-5.37-2.57-7.24
					c-1.71-1.87-3.92-2.8-6.61-2.8c-1.31,0-2.54,0.25-3.68,0.76c-1.14,0.5-2.12,1.19-2.93,2.07c-0.81,0.87-1.44,1.93-1.89,3.18
					c-0.45,1.24-0.68,2.59-0.68,4.03c0,1.14,0.15,2.24,0.45,3.28c0.3,1.04,0.73,1.97,1.29,2.77c0.55,0.81,1.21,1.51,1.97,2.12
					s1.6,1.07,2.52,1.39c0.92,0.32,1.91,0.48,2.95,0.48C625.21,506.17,627.4,505.22,629.15,503.32z"/>
				<path class="st0" d="M690.07,469.75v19.72c-1.01-0.07-2.3-0.1-3.88-0.1c-3.43,0-6.04,0.9-7.82,2.7
					c-1.78,1.8-2.67,4.21-2.67,7.24v22.09h-18.46v-50.59h18.46v6.91h0.15c1.78-2.59,3.89-4.56,6.33-5.93
					c2.44-1.36,5.04-2.04,7.79-2.04H690.07z"/>
				<path class="st0" d="M697.79,462.21c-1.98-1.9-2.98-4.28-2.98-7.14c0-1.82,0.45-3.47,1.34-4.97s2.15-2.68,3.78-3.56
					c1.63-0.87,3.45-1.31,5.47-1.31c3.09,0,5.63,0.93,7.62,2.8c1.98,1.87,2.98,4.21,2.98,7.04c0,2.89-0.99,5.28-2.98,7.16
					c-1.98,1.88-4.52,2.82-7.62,2.82S699.77,464.11,697.79,462.21z M696.18,470.81h18.41v50.59h-18.41V470.81z"/>
				<path class="st0" d="M776.02,470.81v50.59h-17.5v-4.74h-0.15c-3.03,3.87-7.36,5.8-13.01,5.8c-3.43,0-6.6-0.65-9.51-1.94
					c-2.91-1.29-5.39-3.09-7.44-5.37c-2.05-2.29-3.66-5.07-4.82-8.35c-1.16-3.28-1.74-6.85-1.74-10.72c0-3.8,0.57-7.35,1.71-10.64
					c1.14-3.3,2.72-6.09,4.72-8.37c2-2.29,4.38-4.08,7.14-5.37c2.76-1.29,5.7-1.94,8.83-1.94c5.25,0,9.62,2.02,13.11,6.05h0.15
					v-4.99H776.02z M755.77,503.5c1.7-1.88,2.55-4.34,2.55-7.36c0-2.96-0.85-5.39-2.55-7.29c-1.7-1.9-3.81-2.85-6.33-2.85
					c-2.62,0-4.77,0.94-6.46,2.82c-1.68,1.88-2.52,4.32-2.52,7.31c0,3.06,0.84,5.52,2.52,7.39c1.68,1.87,3.83,2.8,6.46,2.8
					C751.96,506.32,754.07,505.38,755.77,503.5z"/>
			</g>
		</g>
	</g>
	<g>
		<path class="st0" d="M341.95,537.22v76.06h-17.5v-4.74h-0.2c-3.13,3.87-7.6,5.8-13.42,5.8c-3.43,0-6.6-0.65-9.51-1.94
			c-2.91-1.29-5.39-3.09-7.44-5.37c-2.05-2.29-3.66-5.07-4.82-8.35c-1.16-3.28-1.74-6.85-1.74-10.72c0-3.8,0.57-7.35,1.71-10.64
			c1.14-3.3,2.72-6.09,4.72-8.37c2-2.29,4.38-4.08,7.14-5.37s5.7-1.94,8.83-1.94c5.45,0,9.97,2.03,13.57,6.1h0.15v-30.51H341.95z
			 M321.62,595.4c1.75-1.87,2.62-4.33,2.62-7.39c0-2.99-0.87-5.43-2.62-7.31c-1.75-1.88-3.98-2.82-6.71-2.82
			c-2.62,0-4.77,0.94-6.46,2.82c-1.68,1.88-2.52,4.32-2.52,7.31c0,3.06,0.84,5.52,2.52,7.39c1.68,1.87,3.83,2.8,6.46,2.8
			C317.64,598.19,319.88,597.26,321.62,595.4z"/>
		<path class="st0" d="M400.05,592.5h-33.19c0.4,2.35,1.55,4.15,3.45,5.4c1.9,1.24,4.25,1.87,7.04,1.87c4.2,0,8.09-1.87,11.65-5.6
			l9.53,10.49c-2.29,2.86-5.44,5.19-9.46,6.99c-4.02,1.8-8.58,2.7-13.69,2.7c-5.01,0-9.53-1.1-13.57-3.3
			c-4.03-2.2-7.2-5.32-9.51-9.36c-2.3-4.03-3.45-8.61-3.45-13.72c0-5.04,1.12-9.57,3.35-13.57c2.24-4,5.35-7.13,9.36-9.38
			c4-2.25,8.51-3.38,13.52-3.38c3.6,0,6.98,0.65,10.14,1.94c3.16,1.29,5.86,3.07,8.09,5.32c2.24,2.25,4,5,5.3,8.25
			c1.29,3.24,1.94,6.73,1.94,10.47C400.56,589.52,400.39,591.15,400.05,592.5z M369.72,577.49c-1.46,1.19-2.4,2.85-2.8,4.97h15.74
			c-0.24-1.04-0.58-1.98-1.03-2.82c-0.45-0.84-1-1.56-1.64-2.14c-0.64-0.59-1.39-1.03-2.24-1.34c-0.86-0.3-1.77-0.45-2.75-0.45
			C372.94,575.7,371.18,576.3,369.72,577.49z"/>
		<g>
			<path class="st0" d="M484.66,539.89l-26.68,73.38h-17.25l-26.83-73.38h21.33l13.92,45.39h0.25l14.12-45.39H484.66z"/>
			<path class="st0" d="M490.76,554.09c-1.98-1.9-2.98-4.28-2.98-7.14c0-1.82,0.45-3.47,1.34-4.97c0.89-1.5,2.15-2.68,3.78-3.56
				c1.63-0.87,3.45-1.31,5.47-1.31c3.09,0,5.63,0.93,7.62,2.8c1.98,1.87,2.98,4.21,2.98,7.04c0,2.89-0.99,5.28-2.98,7.16
				c-1.98,1.88-4.52,2.82-7.62,2.82S492.74,555.99,490.76,554.09z M489.15,562.69h18.41v50.59h-18.41V562.69z"/>
			<path class="st0" d="M568.99,562.69v50.59h-17.5v-4.74h-0.15c-3.03,3.87-7.36,5.8-13.01,5.8c-3.43,0-6.6-0.65-9.51-1.94
				c-2.91-1.29-5.39-3.09-7.44-5.37c-2.05-2.29-3.66-5.07-4.82-8.35c-1.16-3.28-1.74-6.85-1.74-10.72c0-3.8,0.57-7.35,1.71-10.64
				c1.14-3.3,2.72-6.09,4.72-8.37c2-2.29,4.38-4.08,7.14-5.37c2.76-1.29,5.7-1.94,8.83-1.94c5.25,0,9.62,2.02,13.11,6.05h0.15v-4.99
				H568.99z M548.74,595.37c1.7-1.88,2.55-4.34,2.55-7.36c0-2.96-0.85-5.39-2.55-7.29s-3.81-2.85-6.33-2.85
				c-2.62,0-4.77,0.94-6.46,2.82c-1.68,1.88-2.52,4.32-2.52,7.31c0,3.06,0.84,5.52,2.52,7.39c1.68,1.87,3.83,2.8,6.46,2.8
				C544.93,598.19,547.04,597.25,548.74,595.37z"/>
			<path class="st0" d="M629.71,562.69v43.22c0,3.53-0.29,6.72-0.86,9.56c-0.57,2.84-1.53,5.48-2.87,7.92
				c-1.35,2.44-3.08,4.48-5.19,6.13c-2.12,1.65-4.78,2.93-7.99,3.86c-3.21,0.92-6.9,1.39-11.07,1.39c-4.34,0-8.12-0.35-11.35-1.06
				c-3.23-0.71-6.44-1.9-9.63-3.58l4.09-14.53c1.82,1.14,4.11,2.11,6.88,2.9c2.77,0.79,5.34,1.19,7.69,1.19
				c3.9,0,6.93-0.77,9.08-2.32c2.15-1.55,3.23-3.5,3.23-5.85v-4.59h-0.15c-3.23,3.53-7.68,5.3-13.37,5.3
				c-4.37,0-8.29-1.08-11.75-3.25c-3.46-2.17-6.14-5.13-8.04-8.88c-1.9-3.75-2.85-7.94-2.85-12.58c0-3.7,0.56-7.16,1.69-10.39
				c1.13-3.23,2.65-5.97,4.56-8.22c1.92-2.25,4.21-4.03,6.88-5.32c2.67-1.29,5.52-1.94,8.55-1.94c5.68,0,10.31,2,13.87,6h0.15v-4.94
				H629.71z M609.51,593.48c1.7-1.66,2.55-3.82,2.55-6.48c0-2.62-0.86-4.78-2.57-6.48c-1.71-1.7-3.83-2.55-6.35-2.55
				s-4.65,0.85-6.38,2.55c-1.73,1.7-2.6,3.86-2.6,6.48c0,2.66,0.86,4.82,2.57,6.48c1.71,1.66,3.85,2.5,6.41,2.5
				S607.81,595.14,609.51,593.48z"/>
			<path class="st0" d="M687.61,592.49h-33.19c0.4,2.35,1.55,4.15,3.45,5.4c1.9,1.24,4.25,1.87,7.04,1.87c4.2,0,8.09-1.87,11.65-5.6
				l9.53,10.49c-2.29,2.86-5.44,5.19-9.46,6.99c-4.02,1.8-8.58,2.7-13.69,2.7c-5.01,0-9.53-1.1-13.57-3.3
				c-4.03-2.2-7.2-5.32-9.51-9.36c-2.3-4.03-3.45-8.61-3.45-13.72c0-5.04,1.12-9.57,3.35-13.57c2.24-4,5.35-7.13,9.36-9.38
				c4-2.25,8.51-3.38,13.52-3.38c3.6,0,6.98,0.65,10.14,1.94c3.16,1.29,5.86,3.07,8.09,5.32c2.24,2.25,4,5,5.3,8.25
				c1.29,3.24,1.94,6.73,1.94,10.47C688.12,589.52,687.95,591.15,687.61,592.49z M657.28,577.49c-1.46,1.19-2.4,2.85-2.8,4.97h15.74
				c-0.24-1.04-0.58-1.98-1.03-2.82c-0.45-0.84-1-1.56-1.64-2.14c-0.64-0.59-1.39-1.03-2.24-1.34c-0.86-0.3-1.77-0.45-2.75-0.45
				C660.49,575.7,658.74,576.29,657.28,577.49z"/>
			<path class="st0" d="M732.73,562.05c1.5,0.29,2.93,0.75,4.31,1.39c1.38,0.64,2.59,1.5,3.63,2.57c1.04,1.08,1.95,2.38,2.72,3.91
				c0.77,1.53,1.36,3.36,1.77,5.5c0.4,2.14,0.6,4.55,0.6,7.24v30.61h-18.46V587.1c0-2.35-0.24-4.2-0.73-5.55
				c-0.49-1.34-1.19-2.28-2.12-2.8c-0.92-0.52-2.18-0.78-3.76-0.78c-2.29,0-4.09,0.82-5.4,2.45c-1.31,1.63-1.97,4.11-1.97,7.44
				v25.42h-18.46v-50.59h18.46v5.55h0.1c1.85-2.15,4.02-3.79,6.51-4.92c2.49-1.13,5.11-1.69,7.87-1.69
				C729.59,561.63,731.23,561.77,732.73,562.05z"/>
			<path class="st0" d="M750.66,606.77l8.37-11.4c4.4,3.83,8.62,5.75,12.66,5.75c2.49,0,3.73-0.69,3.73-2.07
				c0-0.47-0.13-0.87-0.4-1.18c-0.27-0.32-0.92-0.71-1.94-1.19c-1.03-0.47-2.55-0.99-4.56-1.56c-1.82-0.54-3.47-1.12-4.97-1.74
				c-1.5-0.62-2.95-1.4-4.36-2.35c-1.41-0.94-2.6-1.98-3.56-3.13c-0.96-1.14-1.72-2.5-2.29-4.09c-0.57-1.58-0.86-3.31-0.86-5.19
				c0-2.69,0.51-5.13,1.54-7.31c1.03-2.19,2.43-3.98,4.21-5.37c1.78-1.4,3.84-2.46,6.18-3.2c2.34-0.74,4.83-1.11,7.49-1.11
				c2.69,0,5.19,0.25,7.49,0.76s4.4,1.2,6.3,2.09c1.9,0.89,3.89,2.08,5.98,3.56l-8.52,12.26c-1.61-1.61-3.38-2.88-5.3-3.81
				c-1.92-0.92-3.7-1.39-5.35-1.39c-0.87,0-1.62,0.18-2.24,0.53c-0.62,0.35-0.93,0.87-0.93,1.54c0,0.54,0.44,1.07,1.31,1.59
				c0.87,0.52,2.52,1.17,4.94,1.94c2.49,0.81,4.56,1.56,6.23,2.24c1.66,0.69,3.24,1.5,4.72,2.45c1.48,0.94,2.64,1.97,3.48,3.08
				c0.84,1.11,1.5,2.42,1.97,3.93c0.47,1.51,0.71,3.24,0.71,5.19c0,2.49-0.45,4.75-1.34,6.78c-0.89,2.03-2.2,3.8-3.93,5.3
				c-1.73,1.5-3.97,2.65-6.71,3.45c-2.74,0.81-5.86,1.21-9.36,1.21C763.23,614.33,756.34,611.81,750.66,606.77z"/>
		</g>
	</g>
</g>
</svg>
