<svg xmlns="http://www.w3.org/2000/svg" xmlns:xlink="http://www.w3.org/1999/xlink" viewBox="0 0 500.17 500.17"><defs><style>.cls-1{fill:none;}.cls-2{fill:#ff4672;}.cls-3{fill:#1e1e1e;}.cls-4{clip-path:url(#clip-path);}</style><clipPath id="clip-path"><rect class="cls-1" x="45.13" y="45.21" width="409.91" height="409.91"/></clipPath></defs><title>rosaAtivo 1</title><g id="Camada_2" data-name="Camada 2"><g id="Layer_1" data-name="Layer 1"><g id="Layer_1-2" data-name="Layer 1"><rect class="cls-2" width="500.17" height="500.17"/><path class="cls-3" d="M467.11,31.5V468.83h-434V31.5h434m6-6h-446V474.83h446Z"/><g class="cls-4"><path class="cls-3" d="M87.71,206.64a6.53,6.53,0,0,0,3.68-.78,2.7,2.7,0,0,0,1.09-2.35,2.47,2.47,0,0,0-.9-1.91A13.16,13.16,0,0,0,88,199.68q-5.79-2.19-10.13-4.18a31.67,31.67,0,0,1-7.2-4.42,15.53,15.53,0,0,1-4.26-5.67A19.76,19.76,0,0,1,65,177.55a21.31,21.31,0,0,1,1.37-7.86,14.13,14.13,0,0,1,4.46-5.95A21.49,21.49,0,0,1,79,160a52.56,52.56,0,0,1,12.63-1.29,57.09,57.09,0,0,1,12.83,1.37,36.78,36.78,0,0,1,10,3.63v14H98a3.45,3.45,0,0,0-1.25-3.09,5.5,5.5,0,0,0-3.06-.82,7.64,7.64,0,0,0-3.71.67,2.44,2.44,0,0,0-1.13,2.3,2.06,2.06,0,0,0,1.21,2,26.21,26.21,0,0,0,3.63,1.41c3,1,5.88,2,8.57,3.13a29,29,0,0,1,7.08,4.06,17.74,17.74,0,0,1,4.81,5.87,18.36,18.36,0,0,1,1.76,8.44q0,10.17-6.57,15.14t-19.24,5a74.8,74.8,0,0,1-13.85-1.26,51.1,51.1,0,0,1-10.63-3V202h17.2a5.45,5.45,0,0,0,.94,3.48C84.43,206.26,85.73,206.64,87.71,206.64Z"/><path class="cls-3" d="M174.85,198.82a28.61,28.61,0,0,1-1.76,10.68,17.74,17.74,0,0,1-5.05,7.07,20,20,0,0,1-7.94,4,40.67,40.67,0,0,1-10.36,1.22,42.54,42.54,0,0,1-10.6-1.22,20.33,20.33,0,0,1-8-4A17.93,17.93,0,0,1,126,209.5a27.42,27.42,0,0,1-1.84-10.68v-26.2h-4.7V159.79h29.72v12.83H146v30.19a5.35,5.35,0,0,0,1.13,3.83,5.54,5.54,0,0,0,6.81,0,5.41,5.41,0,0,0,1.13-3.83V172.62h-3.13V159.79h27.61v12.83h-4.69Z"/><path class="cls-3" d="M229.62,159.79H257v12.83h-4.7v48h-22l-22.91-35.27v22.44h4.69v12.83H184.73V207.81h4.69V172.62h-4.69V159.79h29l20.57,31.44V172.62h-4.69Z"/><path class="cls-3" d="M262,159.79h32.54a39.81,39.81,0,0,1,11.22,1.53,21.88,21.88,0,0,1,9,5.12,24.53,24.53,0,0,1,6,9.42A41.26,41.26,0,0,1,323,190.22a41.15,41.15,0,0,1-2.19,14.39,24.43,24.43,0,0,1-6,9.38,22,22,0,0,1-9,5.13,39.8,39.8,0,0,1-11.22,1.52H262V207.81h4.69V172.62H262Zm31.13,48a5.34,5.34,0,0,0,4-1.36,6.24,6.24,0,0,0,1.33-4.42v-23.6a6,6,0,0,0-1.41-4.42,5.41,5.41,0,0,0-3.91-1.37H288.6v35.19Z"/><path class="cls-3" d="M353.21,207.81h4.69l-1.33-6.18H346l-1.25,6.18h4.69v12.83H322.71V207.81h3.12l13.22-48h28.47l13.22,48h3.13v12.83H353.21Zm-5.48-14.47h7.2l-3.21-15.64h-.78Z"/><path class="cls-3" d="M407.06,172.62h-2.74l4.61,13.69h.79l4.61-13.69h-2.74V159.79h23.62v12.83h-2.73l-15.1,27.06v8.13h4.69v12.83H390.79V207.81h4.69v-8.13l-15.56-27.06H377.1V159.79h30Z"/><path class="cls-3" d="M100.15,264.67h18.77v20.26a41.49,41.49,0,0,1-3.79,2A32.1,32.1,0,0,1,110,288.8a55.46,55.46,0,0,1-6.64,1.37,58,58,0,0,1-8.33.55A42.5,42.5,0,0,1,82.55,289a23.48,23.48,0,0,1-9.46-5.48,24.52,24.52,0,0,1-6-9.74,51.38,51.38,0,0,1,0-29.13,25,25,0,0,1,6-9.78,23.13,23.13,0,0,1,9.42-5.47,41.71,41.71,0,0,1,12.36-1.72,57.13,57.13,0,0,1,8.37.55,54.94,54.94,0,0,1,6.61,1.36,33.87,33.87,0,0,1,5.16,1.88c1.49.71,2.8,1.37,4,2V253H100.15v-5.63A6.21,6.21,0,0,0,98.82,243a6.49,6.49,0,0,0-8,0c-.89.91-1.33,2.38-1.33,4.42V271a6.22,6.22,0,0,0,1.33,4.42,6.49,6.49,0,0,0,8,0,6.24,6.24,0,0,0,1.33-4.42Z"/><path class="cls-3" d="M183.37,259.2a44,44,0,0,1-2.11,14.58,24.74,24.74,0,0,1-6,9.74,23.19,23.19,0,0,1-9.43,5.48,45.3,45.3,0,0,1-24.71,0,23.19,23.19,0,0,1-9.43-5.48,24.74,24.74,0,0,1-6-9.74,51.38,51.38,0,0,1,0-29.13,25,25,0,0,1,6-9.78,23.17,23.17,0,0,1,9.43-5.47,45.3,45.3,0,0,1,24.71,0,23.17,23.17,0,0,1,9.43,5.47,25,25,0,0,1,6,9.78A44.34,44.34,0,0,1,183.37,259.2Zm-29.88,17.6a5.3,5.3,0,0,0,4-1.37c.89-.91,1.33-2.39,1.33-4.42V247.39a6.22,6.22,0,0,0-1.33-4.42,6.49,6.49,0,0,0-8,0c-.89.91-1.33,2.38-1.33,4.42V271a6.22,6.22,0,0,0,1.33,4.42,5.33,5.33,0,0,0,4,1.38Z"/><path class="cls-3" d="M247.36,259.2a44,44,0,0,1-2.11,14.58,24.74,24.74,0,0,1-6,9.74,23.19,23.19,0,0,1-9.43,5.48,45.3,45.3,0,0,1-24.71,0,23.19,23.19,0,0,1-9.43-5.48,24.74,24.74,0,0,1-6-9.74,51.38,51.38,0,0,1,0-29.13,25,25,0,0,1,6-9.78,23.17,23.17,0,0,1,9.43-5.47,45.3,45.3,0,0,1,24.71,0,23.17,23.17,0,0,1,9.43,5.47,25,25,0,0,1,6,9.78A44.34,44.34,0,0,1,247.36,259.2Zm-29.88,17.6a5.3,5.3,0,0,0,4-1.37c.89-.91,1.33-2.39,1.33-4.42V247.39a6.22,6.22,0,0,0-1.33-4.42,6.49,6.49,0,0,0-8,0c-.89.91-1.33,2.38-1.33,4.42V271a6.22,6.22,0,0,0,1.33,4.42,5.33,5.33,0,0,0,4,1.38Z"/><path class="cls-3" d="M307.66,241.6l-12.28,15.8,13.46,19.4H312v12.82H288.66L276.3,268.19v21.43H249.71V276.8h4.69V241.6h-4.69V228.77H276.3v21l14.31-21h20.18V241.6Z"/><path class="cls-3" d="M339,275.62a6.53,6.53,0,0,0,3.68-.78,2.7,2.7,0,0,0,1.09-2.35,2.47,2.47,0,0,0-.9-1.91,13.17,13.17,0,0,0-3.63-1.92q-5.79-2.19-10.13-4.18a31,31,0,0,1-7.2-4.42,15.53,15.53,0,0,1-4.26-5.67,19.76,19.76,0,0,1-1.41-7.86,21.31,21.31,0,0,1,1.37-7.86,14.19,14.19,0,0,1,4.46-5.95,21.38,21.38,0,0,1,8.21-3.75,52.56,52.56,0,0,1,12.63-1.29,58.27,58.27,0,0,1,12.83,1.37,36.78,36.78,0,0,1,10,3.63v14H349.29a3.4,3.4,0,0,0-1.26-3.09,5.47,5.47,0,0,0-3-.82,7.64,7.64,0,0,0-3.71.67,2.44,2.44,0,0,0-1.14,2.31,2.06,2.06,0,0,0,1.22,1.95,24.57,24.57,0,0,0,3.63,1.41c3,1,5.88,2,8.57,3.13a29,29,0,0,1,7.08,4.06,18,18,0,0,1,4.81,5.87,18.4,18.4,0,0,1,1.76,8.45q0,10.17-6.57,15.13t-19.24,5a75.66,75.66,0,0,1-13.85-1.25,51.81,51.81,0,0,1-10.64-3V271h17.21a5.39,5.39,0,0,0,.94,3.48C335.68,275.24,337,275.62,339,275.62Z"/><path class="cls-3" d="M74.46,67.77h3.11l7.32,20.75.08-.07-.11-5.52V67.77h2.47V92.44h-3.1L76.9,71.65l-.07.08.11,5.58V92.44H74.46Z"/><path class="cls-3" d="M96,84.82l-1.92,8.1-2.44-.67,6.25-24.48h3l6.25,24.48-2.44.67-1.92-8.1Zm3.41-13.76h-.08L96.62,82.6h5.54Z"/><path class="cls-3" d="M121.43,67.77h3.11l.74,24.67h-2.63l-.48-20.57h-.07l-4.22,12.4-4.21-12.4h-.08l-.48,20.57h-2.59l.74-24.67h3.07l3.55,10.47Z"/><path class="cls-3" d="M131.08,67.77h12V70h-9.54v8.14h7.88v2.22h-7.88v9.87h9.54v2.22h-12Z"/><path class="cls-3" d="M87.74,117.07c0,3.11.11,12.69-6.84,12.69s-6.84-9.51-6.84-12.69c0-4.07.26-12.65,6.84-12.65C87.85,104.42,87.74,113.81,87.74,117.07Zm-11.09,0c0,6.66.77,10.36,4.25,10.36,4.29,0,4.25-6.07,4.25-10.36,0-4.66.11-10.32-4.25-10.32S76.65,113.44,76.65,117.07Z"/><path class="cls-3" d="M94.8,104.75h12.14V107H97.28v8.14h8.1v2.22h-8.1v12.09H94.8Z"/><path class="cls-3" d="M133.75,129.42h-2.48V104.75h5.36c4.37,0,6.81,2.33,6.81,6.55,0,4.59-2.59,7.14-6,7.14h-3.7Zm0-13.2h3.47c2.3,0,3.63-1.77,3.63-4.88s-1.59-4.33-4.26-4.33h-2.84Z"/><path class="cls-3" d="M151.5,121.8l-1.93,8.1-2.44-.66,6.25-24.49h3l6.25,24.49-2.44.66-1.92-8.1Zm3.4-13.8h-.07l-2.74,11.54h5.55Z"/><path class="cls-3" d="M176.91,110.37c-.41-1.81-1.3-3.62-3.41-3.62-2.33,0-3.25,1.89-3.25,4s.4,2.62,4.29,5c3,1.82,5.1,3.33,5.1,7.14s-2.07,7-6.21,7c-4.37,0-6-2.89-6.33-6.81l2.48-.33c.34,2.73.93,4.81,3.92,4.81,2.15,0,3.66-1.45,3.66-4.41,0-3.25-2.1-4.36-4.66-5.84-2.84-1.66-4.73-2.85-4.73-6.47,0-3.33,2.22-6.29,5.73-6.29s5.18,2.48,5.81,5.58Z"/><path class="cls-3" d="M195.4,110.37c-.41-1.81-1.3-3.62-3.41-3.62-2.33,0-3.25,1.89-3.25,4s.41,2.62,4.29,5c3,1.82,5.1,3.33,5.1,7.14s-2.07,7-6.21,7c-4.36,0-5.95-2.89-6.32-6.81l2.47-.33c.34,2.73.93,4.81,3.92,4.81,2.15,0,3.67-1.45,3.67-4.41,0-3.25-2.11-4.36-4.66-5.84-2.85-1.66-4.74-2.85-4.74-6.47,0-3.33,2.22-6.29,5.73-6.29s5.18,2.48,5.81,5.58Z"/><path class="cls-3" d="M205.05,104.75h12V107h-9.54v8.14h7.87v2.22h-7.87v9.87h9.54v2.22h-12Z"/><path class="cls-3" d="M222.39,104.75h3.11l7.32,20.75.08-.07-.11-5.51V104.75h2.47v24.67h-3.1l-7.33-20.78-.07.07.11,5.59v15.12h-2.48Z"/><path class="cls-3" d="M253.83,127.61a9.31,9.31,0,0,1-5.73,2.15c-6.37,0-7.48-7.7-7.48-12.62,0-4.62,1.08-12.72,7.22-12.72,2.77,0,4.81,1.7,6.17,4l-2.18,1.33c-.89-1.59-2.18-3-4.14-3-4.11,0-4.48,7.55-4.48,10.47,0,8.47,2.48,10.21,4.92,10.21a5.51,5.51,0,0,0,3.22-1.15v-7.43h-4.62v-2.22h7.1Z"/><path class="cls-3" d="M260.52,104.75h12V107H263v8.14h7.88v2.22H263v9.87h9.54v2.22h-12Z"/><path class="cls-3" d="M279.2,104.75h6.66c2.44,0,5.51,2.11,5.51,6.55,0,3-1.22,5.92-4.26,7l5.11,10.58-2.22,1-5.55-11.46h-2.77v11H279.2Zm2.48,11.47h3.62c2.15,0,3.48-1.59,3.48-4.92s-1.56-4.33-4.07-4.33h-3Z"/><path class="cls-3" d="M87.82,367.91c-1.45,2.33-3.59,4-6.4,4-6.44,0-7.4-7.77-7.4-12.65s1-12.69,7.4-12.69c2.81,0,4.73,1.63,6,4l-2.11,1.25c-.78-1.55-2-2.92-3.92-2.92-4.51,0-4.81,7.1-4.81,10.36s.3,10.32,4.81,10.32c1.92,0,3.44-1.59,4.36-3.11Z"/><path class="cls-3" d="M96,364l-1.93,8.1-2.44-.67,6.25-24.49h3l6.25,24.49-2.44.67-1.92-8.1Zm3.4-13.76h-.08l-2.73,11.54h5.55Z"/><path class="cls-3" d="M112.78,346.93h6.66c2.44,0,5.51,2.11,5.51,6.55,0,3-1.22,5.92-4.26,6.95L125.8,371l-2.22,1.08L118,360.62h-2.77v11h-2.48Zm2.48,11.47h3.62c2.15,0,3.48-1.59,3.48-4.92s-1.56-4.33-4.07-4.33h-3Z"/><path class="cls-3" d="M131.27,346.93h6.66c2.44,0,5.51,2.11,5.51,6.55,0,3-1.22,5.92-4.26,6.95L144.29,371l-2.22,1.08-5.55-11.47h-2.77v11h-2.48Zm2.48,11.47h3.62c2.15,0,3.48-1.59,3.48-4.92s-1.56-4.33-4.07-4.33h-3Z"/><path class="cls-3" d="M153.61,349.15h-3.33v-2.22h9.17v2.22h-3.37v20.24h3.37v2.21h-9.17v-2.21h3.33Z"/><path class="cls-3" d="M168.07,346.93h12v2.22h-9.55v8.14h7.88v2.22h-7.88v9.88h9.55v2.21h-12Z"/><path class="cls-3" d="M186.74,346.93h6.66c2.44,0,5.51,2.11,5.51,6.55,0,3-1.22,5.92-4.25,6.95l5.1,10.58-2.22,1.08L192,360.62h-2.77v11h-2.48Zm2.48,11.47h3.63c2.14,0,3.47-1.59,3.47-4.92s-1.55-4.33-4.07-4.33h-3Z"/><path class="cls-3" d="M222.5,372.6,233.45,344h1.7l-10.94,28.6Z"/><path class="cls-3" d="M261.22,346.93h12.14v2.22H263.7v8.14h8.1v2.22h-8.1V371.6h-2.48Z"/><path class="cls-3" d="M279.46,346.93h2.48v22.46h10.13v2.21H279.46Z"/><path class="cls-3" d="M301.54,349.15h-3.33v-2.22h9.17v2.22H304v20.24h3.37v2.21H298.2v-2.21h3.33Z"/><path class="cls-3" d="M327.79,369.79a9.31,9.31,0,0,1-5.73,2.15c-6.36,0-7.47-7.7-7.47-12.61,0-4.63,1.07-12.73,7.21-12.73,2.78,0,4.81,1.7,6.18,4l-2.18,1.33c-.89-1.59-2.19-3-4.15-3-4.1,0-4.47,7.55-4.47,10.47,0,8.47,2.48,10.21,4.92,10.21a5.54,5.54,0,0,0,3.22-1.15V361h-4.63v-2.22h7.1Z"/><path class="cls-3" d="M333.49,346.93H336v10.36h7.61V346.93h2.48V371.6h-2.48V359.51H336V371.6h-2.48Z"/><path class="cls-3" d="M357.08,349.15h-5.32v-2.22h13v2.22h-5.22V371.6h-2.48Z"/><path class="cls-3" d="M187.22,390.55H172v-3.33h20.6L175.79,425l-3.33-1.5Z"/><path class="cls-3" d="M199.42,420.9l13.7-17.7c1.72-2.22,3.11-3.94,3.11-6.93a5.72,5.72,0,0,0-5.41-6h-.53c-4.38,0-6.6,3.44-7.15,7.43l-3.66-.49c.88-6.16,4.27-10.44,10.81-10.44,5.83,0,9.82,3.56,9.82,9.44,0,3.55-1.77,6.32-3.88,9l-12.09,15.7h15.92v3.33H199.42Z"/><path class="cls-3" d="M232.87,401.82l10.93-11.27H228.38v-3.33h20.53v3.33L238.64,401c5.77-.11,10.71,3.27,10.71,9.43,0,4.94-2.61,8.77-6.71,11.26-3.06,1.89-6.66,3-13.76,3v-3.5c6.1,0,8.71-.66,10.65-1.77,3.27-1.78,5.94-5,5.94-8.88,0-4.71-4.17-6.21-8.27-6.21a36.92,36.92,0,0,0-4.33.44Z"/><path class="cls-3" d="M274.76,393c-1.72-1.49-3.55-2.77-5.94-2.77-6.71,0-7.16,8.54-7.32,13.48a10.86,10.86,0,0,1,7.38-3c7,0,9.54,5.77,9.54,11.87,0,6.6-3.55,12.15-10.65,12.15-9.55,0-10.16-11.54-10.16-18.59,0-7.54.95-19.42,11-19.42a12.19,12.19,0,0,1,8.21,3.22ZM268,421.23c4.55,0,6.49-4,6.49-8.48,0-4.22-1.27-8.55-6.21-8.55-2.66,0-4.94,1.83-6.82,3.61C261.55,419.4,264.66,421.23,268,421.23Z"/><path class="cls-3" d="M414.24,420.9,428,403.2c1.72-2.22,3.1-3.94,3.1-6.93a5.72,5.72,0,0,0-5.41-6h-.52c-4.39,0-6.61,3.44-7.16,7.43l-3.66-.5c.89-6.15,4.27-10.43,10.82-10.43,5.82,0,9.82,3.55,9.82,9.44,0,3.55-1.78,6.32-3.89,9L419,420.9h15.92v3.33H414.24Z"/><path class="cls-3" d="M452.52,391.72l-6.77,2.6-1.16-3.38,11.65-4.44v34.4h7.93v3.33h-21V420.9h9.32Z"/><path class="cls-3" d="M472.93,424.23V420.9h3V390.55h-3v-3.33h11.32c4.05,0,8.21,3.39,8.21,9.32a7.68,7.68,0,0,1-3.94,7.16c4.17,1.83,5.66,5,5.66,9.43,0,7.71-4.21,11.1-9.32,11.1ZM483,402.43c3.82,0,5.6-2,5.6-5.89,0-4.55-2.27-6-6.77-6h-2.16v11.88Zm1.72,18.47c3.33,0,5.6-2.44,5.6-7.82s-2.72-7.33-6.6-7.33h-4.05V420.9Z"/><path class="cls-3" d="M419.69,352.56c-.41-1.82-1.29-3.63-3.4-3.63-2.33,0-3.26,1.89-3.26,4s.41,2.63,4.29,5c3,1.81,5.11,3.32,5.11,7.13s-2.07,7-6.22,7c-4.36,0-5.95-2.89-6.32-6.81l2.48-.33c.33,2.74.92,4.81,3.92,4.81,2.14,0,3.66-1.44,3.66-4.4,0-3.26-2.11-4.37-4.66-5.85-2.85-1.66-4.73-2.85-4.73-6.47,0-3.33,2.21-6.29,5.73-6.29s5.18,2.48,5.81,5.59Z"/><path class="cls-3" d="M429.34,346.93h12v2.22H431.8v8.14h7.88v2.22H431.8v9.88h9.54v2.21h-12Z"/><path class="cls-3" d="M449.76,364l-1.93,8.1-2.44-.67,6.25-24.49h3l6.25,24.49-2.44.67-1.92-8.1Zm3.4-13.76h-.07l-2.74,11.54h5.55Z"/><path class="cls-3" d="M470.43,349.15H465.1v-2.22h13v2.22h-5.21V371.6h-2.48Z"/><path class="cls-3" d="M383.87,449.44H58.63V320H383.87Zm-321-4.72H379.66V324.66H62.84Z"/></g></g></g></g></svg>
