<svg id="Camada_1" data-name="Camada 1" xmlns="http://www.w3.org/2000/svg" viewBox="0 0 1080 1080"><defs><style>.cls-1{fill:#fff;}</style></defs><path class="cls-1" d="M558.82,535a4.92,4.92,0,0,0-4.92,4.92v6.55h9.83v-6.55A4.91,4.91,0,0,0,558.82,535Z"/><path class="cls-1" d="M578.47,535a4.91,4.91,0,0,0-4.91,4.92v6.55h9.82v-6.55A4.91,4.91,0,0,0,578.47,535Z"/><path class="cls-1" d="M598.12,535a4.91,4.91,0,0,0-4.91,4.92v6.55H603v-6.55A4.92,4.92,0,0,0,598.12,535Z"/><path class="cls-1" d="M617.78,535a4.91,4.91,0,0,0-4.91,4.92v6.55h9.82v-6.55A4.91,4.91,0,0,0,617.78,535Z"/><path class="cls-1" d="M583.38,572.67a4.91,4.91,0,0,0-9.82,0v6.56h9.82Z"/><path class="cls-1" d="M603,572.67a4.92,4.92,0,0,0-9.83,0v6.56H603Z"/><path class="cls-1" d="M622.69,572.67a4.91,4.91,0,0,0-9.82,0v6.56h9.82Z"/><path class="cls-1" d="M642.35,572.67a4.92,4.92,0,0,0-9.83,0v6.56h9.83Z"/><path class="cls-1" d="M446.65,479.68v-4.07a5.22,5.22,0,1,0-10.44,0v7h10.44Z"/><path class="cls-1" d="M446.65,494.82a5.22,5.22,0,0,0-10.44,0v7h10.44Z"/><path class="cls-1" d="M504.57,480.57a5.22,5.22,0,0,0-5.22,5.22v7h10.44v-7A5.22,5.22,0,0,0,504.57,480.57Z"/><path class="cls-1" d="M504.57,498a5.22,5.22,0,0,0-5.22,5.22v7h10.44v-7A5.22,5.22,0,0,0,504.57,498Z"/><path class="cls-1" d="M446.65,514a5.22,5.22,0,0,0-10.44,0v7h10.44Z"/><path class="cls-1" d="M647,457.17l16-27.13-7.61-4.47-5.4,9.18a61.78,61.78,0,0,0-7.91-6.37l4.85-8.28-7.62-4.46-4.85,8.29c-.51-.25-6.42-2.79-8.94-3.59l4.4-7.75-7.68-4.36-5.65,10q-3.15-.51-6.38-.72V397.62h7.77v-8.83h-7.77v-8.9H601.3v8.9h-7.78v8.83h7.78v19.86a62.83,62.83,0,0,0-6.33.7l-5.61-9.94-7.69,4.34,4.34,7.69a64.23,64.23,0,0,0-8.84,3.5l-4.29-7.43-7.64,4.41,4.3,7.45a63,63,0,0,0-8,6.46L558.81,430l-.64-1.11h0l-2-3.43-2.9,1.7a32.75,32.75,0,0,0-.69-4.91q-1.9-8.79-8.66-18.35a95.93,95.93,0,0,0-8.54-10.35c-1.76-1.87-3.65-3.77-5.67-5.68a176.59,176.59,0,0,0-17.58-14.49,7.92,7.92,0,0,0-4.73-9.79V345.72h-5.61v17.89A7.92,7.92,0,0,0,497,373.4a176.59,176.59,0,0,0-17.58,14.49,124.31,124.31,0,0,0-9.32,9.76h0a33.84,33.84,0,0,0-3.15,3.19c-.61-.69-1.23-1.39-1.88-2.08h0a131.63,131.63,0,0,0-18.66-16.14c0-.22,0-.45,0-.68a6.13,6.13,0,0,0-3.05-5.3l-.3-.17V362.8h-5.61v13.68l-.3.17a6.13,6.13,0,0,0-3,5.3,5.07,5.07,0,0,0,0,.68A139.18,139.18,0,0,0,420,394.29a91.83,91.83,0,0,0-9.4,10.22c-6.06,7.8-9.19,15.22-9.32,22.16-.14,7.35,3,13.8,9.32,19.23.5.42,1,.84,1.54,1.25v2.4a14.09,14.09,0,0,0,7,12.18v69.43H410.6V480.72a138.54,138.54,0,0,0-10,51.95q0,4.27.25,8.5A138.52,138.52,0,0,0,405,567.43q1.67,6.51,4,12.85,1.21,3.36,2.61,6.66a140.06,140.06,0,0,0,54.1,63.68q4.85,3.06,10,5.72,4.95,2.58,10.14,4.78,3,1.25,6,2.36a139.88,139.88,0,0,0,96.58,0q3-1.11,6-2.36,5.19-2.19,10.14-4.78,5.1-2.65,10-5.72A140.11,140.11,0,0,0,665.24,594q1.69-3.47,3.21-7a138,138,0,0,0,9.93-37.27c.34-2.82.6-5.66.77-8.5s.25-5.65.25-8.5v-14h0Zm-11.91,84a80.48,80.48,0,0,0,8.59,8.63c.65.55,1.3,1.07,2,1.58H547.51c0-.16-.11-.33-.16-.5V528.45h77.77l2,2.71C629.66,534.58,632.28,538,635.05,541.17Zm27,34.64v-3.14a4.92,4.92,0,0,0-9.83,0v6.56h8.56q-1,2.47-2,4.91H565.29a25.21,25.21,0,0,1-5.07-4.91h3.51v-6.56a4.91,4.91,0,0,0-9.07-2.6c-1.36-2.79-2.59-5.78-3.75-8.86H666.22A126,126,0,0,1,662,575.81ZM426.22,453.62a3.93,3.93,0,0,1-1-.13,4.06,4.06,0,0,1-3.09-3.94v-2.77h38.2v2.77a4.08,4.08,0,0,1-4.08,4.07h-30Zm-7.28-43.52c1.39-1.74,2.9-3.45,4.47-5.1l1.38-1.41,29.94,35.63H440.08l-22-28C418.37,410.83,418.65,410.46,418.94,410.1Zm109.72-9c.79.86,1.56,1.71,2.29,2.56a75.84,75.84,0,0,1,6.54,8.72c-3.44,6.84-9.9,10.58-35.43,8.72-17.68-1.28-27.06,4.7-31.82,9.95a25.85,25.85,0,0,0-3.22,4.38,17.44,17.44,0,0,1-1.18-6.7c0-.11,0-.22,0-.32a23.41,23.41,0,0,1,.95-5.7,35.41,35.41,0,0,1,2-5.24,56.71,56.71,0,0,1,6-9.6c4.55-2,10.39-2.75,17.37-2.25C510.34,406.9,521.39,405.67,528.66,401.06Zm23.55,35.81,12.31,20.29h0l-15.18,28.71H537.52v32.75h-3.4a20.91,20.91,0,0,0-5.23-5V474.48a14.1,14.1,0,0,0,12.86-14v-8.29a32.8,32.8,0,0,0,10-13.86C551.92,437.83,552.07,437.35,552.21,436.87Zm-68.33,27.66a4.08,4.08,0,0,1-4.08-4.08V456h51.94v4.42a4.08,4.08,0,0,1-4.07,4.08Zm58.47-41.81a22.73,22.73,0,0,1,.95,6c.1,5.24-1.95,9.92-6.23,14.19a35.06,35.06,0,0,1-3.65,3.14H475.73l-.14-.1c-.56-.43-1.1-.87-1.62-1.31a15.78,15.78,0,0,1,4-7.24c4.73-4.91,12.8-7.09,23.35-6.33,15.81,1.15,26,.31,33-2.73A23.15,23.15,0,0,0,542.35,422.72Zm25.13,73h14.27a35.53,35.53,0,0,1,5.85.48c10.15,1.72,17.83,7.84,24.77,15.75,1.86,2.12,3.67,4.37,5.46,6.7H547.35V495.69h20.13Zm57.58,16.23a96.68,96.68,0,0,0-13.49-14.65q-1.34-1.14-2.7-2.16a47.46,47.46,0,0,0-9.85-5.76l4.66-8c.74-1.27,1.42-2.58,2-3.91.62,1.34,1.3,2.65,2,3.93l19.72,33.72Q626.29,513.49,625.06,511.92ZM463.34,461.71a14.12,14.12,0,0,0,6.3-7.75l.16.12v6.37a14.11,14.11,0,0,0,10.46,13.61v57.1H463.34Zm27.94,79.46c-1.56,5-2.66,10-3.64,14.54C486.49,561,485.39,566,484,569.1c-1.2,2.59-1.89,2.52-2.27,2.48-3-.3-4.71-5.46-7-13.3-1.66-5.64-3.54-12-7-17.11Zm4.58-11.36c-.23.45-.46.9-.68,1.35h-5.44c.17-.35.35-.7.53-1V474.53h28.61v36.82a20.11,20.11,0,0,0-5.59,1.56C505,516.49,499.6,522.7,495.86,529.81ZM637.54,436a54.83,54.83,0,0,1,7.75,6.59h0l-8.39,14.27,32.53,61.76H659.07L633,469.33a27.22,27.22,0,0,1,.45-26.31ZM621,428.21a54.72,54.72,0,0,1,8.93,3.34l-4.12,7a36,36,0,0,0-.62,34.88l23.91,45.15h-9.31l-24.38-41.7a38.5,38.5,0,0,1-.26-38.4Zm-15.27-2c2.06,0,4.1.11,6.1.31l-4.36,7.69c-.62,1.1-1.2,2.23-1.73,3.38-.52-1.14-1.09-2.25-1.71-3.34l-4.36-7.73A57.72,57.72,0,0,1,605.71,426.16Zm-15.24,2,5.86,10.37a38.56,38.56,0,0,1,5,18.91v.07a38.52,38.52,0,0,1-5.25,19.39l-5.7,9.77a43.71,43.71,0,0,0-5.41-.71l-1.56-.08-1.63,0h-2l6.58-12.4a36,36,0,0,0-.62-34.88l-4.11-7.14A54.67,54.67,0,0,1,590.47,428.17ZM574,435.88l4.11,7.12a27.22,27.22,0,0,1,.46,26.33l-8.78,16.54H559.29l15.3-29-8.44-14.35A53.93,53.93,0,0,1,574,435.88Zm-87.75-40.61a167.83,167.83,0,0,1,18.35-14.94,167.87,167.87,0,0,1,16.52,13.23l.12.1c-5,2.15-13.23,3-28.32,1.94a66.74,66.74,0,0,0-6.87-.14Zm-28.43,10.34c1.25,1.33,2.4,2.65,3.45,3.94a56.57,56.57,0,0,0-2.87,6.86q-.28.72-.54,1.44a37.24,37.24,0,0,0-1.73,7.22,1.36,1.36,0,0,0,0,.2l-23.9-28.44c.74-.62,1.46-1.22,2.17-1.79,2.16-1.73,4.19-3.24,5.94-4.49a123,123,0,0,1,17.5,15.06m-46.51,21.25a17.1,17.1,0,0,1,.55-3.83,23.79,23.79,0,0,1,.83-2.56l14.7,18.75h-9.12a25.6,25.6,0,0,1-2.74-2.44A13.65,13.65,0,0,1,411.28,426.86Zm17.9,39.08v-2.31h24.16v67.53h-2.21a29.68,29.68,0,0,0-5,0h-17ZM540,662.07a128.6,128.6,0,0,1-54.84-12.21,157.12,157.12,0,0,0,12.74-10.43,160.45,160.45,0,0,0,11.39-11.49l9.57,7.51,10.51-8.25,10.52,8.25,10.52-8.25,10.51,8.25,9.7-7.61q5.49,6.12,11.48,11.59a157.12,157.12,0,0,0,12.74,10.43A128.6,128.6,0,0,1,540,662.07ZM515.76,620.3A177.88,177.88,0,0,0,527,604.54h26.1a179,179,0,0,0,11.11,15.65l-3.24,2.54-10.51-8.25-10.52,8.25-10.52-8.25-10.51,8.25Zm89,24.34a155.32,155.32,0,0,1-44.71-47.71l-1.46-2.4H521.36l-1.46,2.4a155.32,155.32,0,0,1-44.71,47.71,130,130,0,0,1-59.55-76.19c5.68-11.07,16-25.83,31-27.28h4.06a11.33,11.33,0,0,1,8.2,4.81c2.9,3.89,4.58,9.6,6.21,15.14,1.34,4.54,2.61,8.82,4.57,12.37,2.7,4.87,6.41,7.58,11.05,8,3.72.37,8.9-.75,12.35-8.24,1.9-4.11,3-9.37,4.38-15.46a138.56,138.56,0,0,1,4.37-16.67,43.79,43.79,0,0,1,4.85-10,24.27,24.27,0,0,1,10.62-9.06c3-1.28,4.54-.85,5.49-.42,2.64,1.2,5,4.75,7.09,9.48,1.34,3,2.61,6.4,3.83,10,.93,2.73,1.84,5.56,2.74,8.37.19.61.39,1.22.59,1.84,2.89,9,6,18.45,10.35,26.4a57.57,57.57,0,0,0,4,6.36A33.46,33.46,0,0,0,562.08,594a26.53,26.53,0,0,0,7,2.64c8,1.79,16,3.26,23.81,4.68,20,3.67,39,7.15,46.31,14.37A130.44,130.44,0,0,1,604.81,644.64Zm40.54-36.91c-7.8-7-21.33-10.59-37.29-13.76h45.88A129.82,129.82,0,0,1,645.35,607.73ZM668.1,551c-7.6-1.16-13.83-4.79-19.38-9.8a84.56,84.56,0,0,1-9.21-10c-.72-.89-1.42-1.79-2.13-2.71h31.17v19C668.42,548.65,668.27,549.82,668.1,551Z"/><path class="cls-1" d="M558.82,502.24a4.92,4.92,0,0,0-4.92,4.92v6.55h9.83v-6.55a4.93,4.93,0,0,0-4.91-4.92Z"/><path class="cls-1" d="M583.38,511.92v-4.76a4.91,4.91,0,1,0-9.82,0v6.55h9.82Z"/><path class="cls-1" d="M603,511.92v-4.76a4.92,4.92,0,1,0-9.83,0v6.55H603Z"/><path class="cls-1" d="M403.69,656.79a15,15,0,0,1-1.26-1.42,1.8,1.8,0,0,1,0-2.53,33.22,33.22,0,0,1,2.8-2.67,8.6,8.6,0,0,1,.84-.5,1.48,1.48,0,0,1,1.39.09c.71.54,1.06.8,1.11.85l6.29,6.62.16.15c1,1.37,1,2.15-.24,3.35l-1.91,1.82c-1.58,1.4-2.36,1.44-3.81-.1Zm4.62-.86c-.16.15-.06.25.14.36s.36.06.37,0a.89.89,0,0,0,0-.52C408.78,655.78,408.36,655.88,408.31,655.93Zm2.34,1.5c-.41-.32-.67-.38-.72-.33a.46.46,0,0,0-.17.46c.14.68.39.94.71.85.1,0,.21-.1.26-.26C410.94,658,410.9,657.69,410.65,657.43Z"/><path class="cls-1" d="M446.72,652l2.77,2.15c1.8,1.49,2.14,3,1,5-.5,1-1.35,2.46-2.51,4.43l-13.32,22.75-5.78,9.83c-.44.68-.69,1.13-.92,1.42-1.06,1.48-2,1.7-3.45.64l-1.79-1.39-1.91-1.47c-1.15-.9-1.17-1.47-.45-2.76l1.26-2c.57-.85,1-1.37,1.14-1.7,1.2-1.66,1-2.26-.55-3.57-3-2.33-3.42-2.75-4.65-1.39-1.43,1.48-2.43,2.64-3.06,3.35-1.3,1.3-2.06,1.45-3.55.39l-2.76-2.15c-1.85-1.43-1.93-2.51-.27-4.18.74-.72,1.86-1.79,3.33-3.33s2.58-2.62,3.32-3.33L430,659.26c1.9-1.86,4.67-4.7,8.35-8.49a7,7,0,0,1,1.08-.92,3.23,3.23,0,0,1,4.41-.09l.29.23Zm-25.59,24.5c0-.1,0-.16,0-.2s-.26,0-.4.15-.51.9-.68,1.23c0,.31.13.56.29.59.69.17.94,1.28,1.47,1s1-.44,1-.7-.42-.52-1.14-.43c-2,0-.55-1.08-.5-1.5Zm1.1,3.71c-.1.48-.62,1.28-.22,1.59s.77,0,1.18-.1a8.62,8.62,0,0,1-.44-1.45C422.57,680,422.41,680,422.23,680.21Zm1.06,3-.25.09.14.76a.22.22,0,0,0,.41-.05C423.57,683.48,423.49,683.23,423.29,683.25Zm12.23-19.33c-.14-.3-.62-.39-.91-.61l-.25.08c-.19.13.11.45.75,1,.46.35-1.13,2.17-1.7,2.65l-4.9,5.25a6.06,6.06,0,0,1-2.1,2c-1,.34-1.13,1.34-1.58,1.92-.07.22-.26.34-.66.5s-.94,0-1.07.18.6.66.74.95c.06.05.2.34.26.39a19.28,19.28,0,0,0,1.7,1.13c.29.23-.16,1.17.2,1.54-1.05.39-1.39,1-1.13,1.81.06,0,.07.14.09.25s0,.26.08.25c1.16-.67,1.56,1.21,1.88,1.74.18.13.34.16.38.1a.55.55,0,0,0,.15-.43.73.73,0,0,0-.28-.59c-1.34-1.13-1.54-1.94-.65-3.09.1,0,.19-.13.28-.25l.13-.27c1.26.15,2.11-.94,2.61-1.94,1.21-2,2.15-3.6,2.94-4.74.09-.12,1.89-2.79,5.35-8,.17-.33.66-2.16,1.84-1.53.05,0,.14-.07.31-.41a21.08,21.08,0,0,1,1.07-1.85l1.45-2.47a3.37,3.37,0,0,0,.18-1.53l-.22-.08a.48.48,0,0,0-.28-.12l-.21-.08a6.14,6.14,0,0,1-2.49,1.77,3,3,0,0,0-.71.93,15.06,15.06,0,0,1-2.68,3.56A1,1,0,0,1,435.52,663.92Zm-7.58,22c-.54-.14-.83,0-.85.27l0,.2v.37c.51.3.86.2.95-.28A.72.72,0,0,0,427.94,685.94Zm.15-4.59c-.17-.14-.32-.07-.45.11s0,.26.2.34c.05,0,.1,0,.2,0a.37.37,0,0,1,.25-.08C428.16,681.49,428.15,681.39,428.09,681.35Zm-.09,1.31.05.41.44-.21a.48.48,0,0,0,.06-.32Zm9.47-21.85-.16,0-.2,0c-.36.46,0,.67.21.44A2.07,2.07,0,0,0,437.47,660.81Zm.76-2.28a.85.85,0,0,1-.16-.39.86.86,0,0,0-.39.15,2,2,0,0,0,.25.38Zm.3,7.82.14.66c0,.1.17.13.39.21.49-.27.36-.46-.15-.76A.74.74,0,0,0,438.53,666.35Zm1.76-10,0,1.14c0,.46.09.71.25.74s.39-.25.32-.76a4.56,4.56,0,0,0-.36-1.21C440.44,656.28,440.34,656.29,440.29,656.35Z"/><path class="cls-1" d="M458.93,665.47c1.1-2.14,2.84-2.64,5.11-1.48l9,4.63c3.44,1.77,5.28,4.43,5.4,8a14.3,14.3,0,0,1-1.33,6c-1,2.18-1.84,3.9-2.47,5a62,62,0,0,1-3.59,6.2c-3.27,4.47-8.41,5.86-13.32,3.26l-2.14-1.1c-1.46-.83-1.85-.7-2.62.79-2.63,5.13-4.6,9-5.83,11.53l-.57,1.11a1.67,1.67,0,0,1-2.42.72l-4.87-2.49c-1-.54-1.26-1.39-.66-2.56l3.2-6.23,3.59-7L449,684.9Zm-10,29.15a1.52,1.52,0,0,0,.56-.28l-.07-.2c-.06,0-.36.06-.59,0Zm1.49-2.1c0,.06.15.65.25.62l1-.15,0-.43c-.1-.29-.16-.49-.39-.52S450.63,692.06,450.4,692.52Zm.62-3.78c-.42.35-.43.84-.17,1.46,0,.1.29.07.32,0s0-.66,0-.72a1.55,1.55,0,0,1,.37-.72A.57.57,0,0,0,451,688.74Zm2.26-3.11a2.6,2.6,0,0,0-.46.25.48.48,0,0,0,.19.26.76.76,0,0,1,.42,0Zm1,3.24c.39,0,.59.3.42.79a21.14,21.14,0,0,0-1.59,1.81,1.51,1.51,0,0,0,.18,1.4c.29.23.79.08,1.41-.34a4,4,0,0,0,1.22-1.1c.2-.23.3-.42.14-.58-.16-.33,0-.59.4-1a2.11,2.11,0,0,1,2.41-.07,2.13,2.13,0,0,0,2.16.28,13.38,13.38,0,0,0,2.62-1.6,37.12,37.12,0,0,0,5.36-10.14l.07-.13v-.16a4.12,4.12,0,0,0-1.26-4.09c-1.59-1.39-2.5-1.37-3.44.45a41.9,41.9,0,0,0-1.93,3.77,35.85,35.85,0,0,1-1.9,3.7c-.53,1-1.5,3.9-2.88,4.51-.1,0-.13.26-.24.62-.18,1.63-1.1,2.63-2,2.2-.38-.36.4-.78.7-1.36a6.64,6.64,0,0,0,.15-1.41,1.38,1.38,0,0,0-.68-.43c-.17,0-.3.1-.46.42s-.51,1.79-.94,1.82-1-.17-1.27-.08-.2.23,0,.39.68.76,1.21.37Zm4.41,3.41a.15.15,0,0,0,.1-.2.26.26,0,0,1,0-.23c-.29-.07-1-.17-1-.2l-.53.06c-.62.74-.72.45,0,1.47A6.53,6.53,0,0,0,458.73,692.28Zm.92-17.17a3.1,3.1,0,0,0,.29.72c.49-.15.52-.22.46-.91ZM460.1,692c.33-.33.49-.49.53-.55s0-.17-.16-.33C460,691.54,460,691.6,460.1,692Zm2-19.51c.1,0,.14-.26.1-.52,0,.07-.39.13-.55.29a6.56,6.56,0,0,1-.24.62A2,2,0,0,0,462.06,672.49Zm0,1.63c.26.14.3-.25.69-.38.1,0-.09-.3-.15-.33-.33-.17-.56,0-.7.39Zm5.14,15.11a2.39,2.39,0,0,0-.28-1.38l-.37.72.26.46Z"/><path class="cls-1" d="M485.77,704.5c0-.16.06-.21.13-.19l.14,0c.26.15.49.15.62,0,.14-.5.23-.78.3-.75.67-.49,1.65-1.5,1.17-1.94-.21-.06-.46.55-1.09.36s-1.18-1.18-1-1.51c.44-.71.36-1.49-.22-1.58-.23,0-.26.37-.24,1.07q.07.13-.33.36a1.59,1.59,0,0,0-.69.78c-.29.75.63,1.25.34,1.47-.22.47-1.66.73-1.5,1.46.13.35.78.46,1,.61,0,.07,0,.07.05.09.08-.28,1.06,0,1,.15.12.64-.79,1.14-1.16,1.11.06.32.09.48.16.5a.14.14,0,0,0,.21.06c.55-.07.84.25.91.8a6,6,0,0,1-.32,2.64c-.77,2.9-2,7.24-3.7,12.92-.59,2-1.23,2.37-3.19,1.8l-4.06-1.19c-1.66-.56-2-1.19-1.52-2.88a20.63,20.63,0,0,1,.84-2.87c.44-1.24.69-2.08.81-2.5l6.74-23c.45-1.54,1.13-3.86,1.94-6.89l2-6.87a7.63,7.63,0,0,1,.57-1.43,2.83,2.83,0,0,1,3.6-1.38l10.79,3.16a9.11,9.11,0,0,1,5.59,4.53,9.56,9.56,0,0,1,1.1,7.16,73.47,73.47,0,0,1-2.29,7.85c-1.19,3.53-3.5,5.44-7,5.71-.85.06-1,.46-.49,1.15l.22.29c2.31,1.74,3,4.47,2.06,8.06-.28,1.21-1.3,4.71-3,10.53l-.94,3.22c-.54,1.59-1.1,2-2.74,1.56l-3.85-1.13a2.56,2.56,0,0,1-1.86-3.51c1.41-4.83,2.5-8.55,3.29-11,.18-.63.72-2.22,1-3a4.47,4.47,0,0,0-1.81-3.72c-.61-.26-.94-.66-.91-1s.92-1.33.47-1.61c-.51-.08-1,.17-1.45.79s-.85.82-1.32.61C485.86,705.21,485.71,704.94,485.77,704.5Zm-2.16-7.17a.49.49,0,0,0-.43.41c-.1.35-.09.58.12.64s.07,0,.16,0,.18-.1.25-.08c.66-.19,1-.38,1.09-.59S484.42,697.41,483.61,697.33Zm2,6c.41.42.05.62-.38.26a1,1,0,0,1,0-.46C485.39,703.17,485.53,703.22,485.58,703.31Zm.33-6.07c.12.11.21.06.25-.08a1.24,1.24,0,0,0-.2-.59l-.28-.08c-.14.19-.13.42.09.71Zm0,5.34c-.12-.65.13-.73.48-.09l.19.13c.15.27.38.8-.39.57Zm6.34,1.47c1.15,0,1.69-.57,1.6-1.58-.06-.33-.2-.37-.4-.2-.67.49-1.2.72-1.69.57s-.71-.43-.58-.85c.06-.21,1.23-.33,1.19-1,0-.3-.51-.6-.36-.86s.78-.31.87-.36a7.08,7.08,0,0,0,3.42-4.93l1.25-4.27c.91-3.39.28-4.87-2.72-6-1.22-.51-2-.2-2.38.83L489,697.45a2.42,2.42,0,0,0,1.27,3,2.9,2.9,0,0,0-.23,1.3c.28.08.4.42.45,1C490.59,703.63,491.2,704.11,492.29,704.05Zm-1.84,2.66a.79.79,0,0,1,.33.17,2.46,2.46,0,0,0,.66-.72c.08-.28.94-.87.81-1.21s-1.17.11-1.55.38C490.61,705.38,490.55,705.82,490.45,706.71Zm2.45-1.11c.11.41.56.69,1.39.71l.36-.2a3.77,3.77,0,0,0-.64-1.18.76.76,0,0,0-1.11.14C492.81,705.12,492.82,705.35,492.9,705.6Zm2.33-5.63a1,1,0,0,1,.29.31l.2-.17c.15-.26.15-.49-.27-.38Z"/><path class="cls-1" d="M535.84,713.6c-.69,1.19-.38,3.34-.5,4.65,0,.07-.13.65-.38,1.72s-.22,1.67,0,1.83a10.71,10.71,0,0,1-.42,3.78c-.91,5.12-4.1,8-9.65,8.57a16.2,16.2,0,0,1-2.87.1,16.63,16.63,0,0,1-5-1.2,9.41,9.41,0,0,1-6.11-8.4,18.48,18.48,0,0,1,0-3.89l2.42-26.31a31.84,31.84,0,0,1,.64-3.83c.87-3.88,3.29-6.29,7.35-7.31a18,18,0,0,1,4.72-.38,15.16,15.16,0,0,1,5.88,1.5,8.82,8.82,0,0,1,5.6,8.43c0,1.84-.29,5.47-.45,7.29-.2,3-.6,7.35-1.15,13.24Zm-19.15-4.54c-.29-.84-.47-2.1.15-2.41l.55-.39c-.78-1.17.41-1.35.93-2.18-.93-.24-2-.26-2,.4a25.44,25.44,0,0,1-.53,2.66C515.7,707.87,515.33,708.71,516.69,709.06Zm-.91,12.3c-.16.13,1,2.22,1.21,2a1.32,1.32,0,0,0,.86-.65c.27-.57-.43-1.66-1.23-1.8A5.18,5.18,0,0,0,515.78,721.36Zm.87,3.31-.07-.08a5.37,5.37,0,0,0-.79-.22.28.28,0,0,0,.06.22l.12.31c.07,0,.64.2.93.23A1.34,1.34,0,0,0,516.65,724.67Zm.25,2c0-.36-.16-.6-.61-.57,0-.22-.29,0-.31.27s0,.44.38.62S516.73,727,516.9,726.67Zm-.33-25.91.42.26c.36,0,.51,0,.53-.17s0-.29-.15-.75Zm.67-6.46c-.09.21-.19.42-.12.5s.13.16.2.17l.32-.27Zm.67-.89a3,3,0,0,0,.72.94c0,.23.35.18.57.13a.57.57,0,0,0-.08-.74c-.19-.24-.76-.51-1-.76Zm11.58,32.73c.39-.33.57-.61.44-.84a1,1,0,0,0-1.38.68,2.08,2.08,0,0,1-1.31.69c-.37,0-.5-.19-.25-.47,1.12-1.06.37-1.65.09-1.75-.8-.14-1.09-1-1-2.43l.62-6.83c.43-4.58.74-8,.87-10.26.09-.94.31-2.54.59-4.78s.45-4.14.5-5.38a1,1,0,0,1,.44-.84c.08-.07.36,0,.85.3a1.47,1.47,0,0,0,2.18.2l.56-.46a2.17,2.17,0,0,1,.62-2c.26-.42.13-.65-.23-.68s-.29,0-.3,0a1.18,1.18,0,0,0-.49.55c-.51,1.63-1.86.34-2.77.62-.22,0-.29,0-.28-.1a.83.83,0,0,1,.11-.36c.09-.21.18-.42.11-.5a1.58,1.58,0,0,0-.47-.41,1.19,1.19,0,0,1-.55-1.15.38.38,0,0,0-.26-.39l-1.54-.8c-.49-.26-.91.28-1,.93,0,.29-.95.79-1.21.4a2,2,0,0,0-1.3-1,.57.57,0,0,0-.63.46,1.56,1.56,0,0,0,.38.62c.07.08.5.19.48.41,0,.51-.23.86-.6.9a11.64,11.64,0,0,0-2.12,0c-.23.06-.33.34-.36.7,0,.15.2.17.65.06,1.4,0,1.39.86,1.3,1.88l-.37,4-.8,8.72c0,.37.17,1.27-.63,1.19-.66.09-.84.36-.52.91,1,.9.48,3.56.54,4.52l-.34,3.63c-.1,1.17-.53,3.4-.63,4.49a4.45,4.45,0,0,1-.83,2.64c-.57.6-.32,1.07.6,1.52.07,0,.49.19.71.21.42.26.4.4,0,.59-.08.06-.27.56-.21.64.18.45.09,1.4.6,1.45s.87-1.46,1.76-1.6c.29,0,.15.75.29.9s.61.5.68.58c.31.54.74.66,1.14.33.63-.46.81-.88.56-1.27s-.23-.68.1-1.09.68-.23,1.14.32.86,1,1.64.52A14.67,14.67,0,0,0,529.49,726.14Zm-10.14-36.48-.46-.56c-.07,0-.24.2-.42.62,0,.07.33.4.4.4l.24-.19Zm1.39,4.82c-.08.06-.08.06-.08.13l.39.48.46-.18a.86.86,0,0,0-.59-.79C520.84,694.19,520.83,694.34,520.74,694.48Zm.13-5.34c-.25.34-.14.64.27,1l.31-.12c-.33-.39-.38-.69-.21-1C521.19,688.8,521,688.86,520.87,689.14Zm3.65,36-.19-.31a.41.41,0,0,1,.32-.27c0,.08.06.16.2.24C524.82,725.05,524.74,725.19,524.52,725.1Zm5.52-6.53c0-.15-.06-.23-.13-.23l-.22,0c0,.07.06.15.11.37.08,0,.08,0,.08-.06Zm0-24.78a2.39,2.39,0,0,1,.62-.38c.8.07.93.23,0,.73C530.45,694.12,530.11,693.8,530,693.79Zm1.19-3.34c-.07-.08-.21-.09-.35-.18l-.14-.08a1,1,0,0,0-.46.25,1.62,1.62,0,0,0,.48.26Zm-.6,14.46.26-.41c.06-.66-.38-.7-.44,0Zm2-7.73a3.82,3.82,0,0,0,.57.2c.29,0,.26-.49.2-.57a4,4,0,0,0-.78-1.1c-.14-.09-.44,0-.88,0-.22,0-.44,0-.52,0C531.61,696.65,532.08,697.13,532.59,697.18Zm-.15,12.74c-.21,0-.62.38-.86.58l1.12.62c.73.06,1.11-.12,1.16-.63C533.88,710.2,532.81,709.88,532.44,709.92Zm-.06,8.64.86-.58c-.26-.31-.39-.47-.47-.48a3.46,3.46,0,0,0-1,.35ZM532,708.41c0,.29,0,.44.1.45.29,0,.44,0,.46-.18s1.16-1.5,1.19-2.6c.06-.65,0-1.1-.39-1.35-.7-.36-1.05-.54-1.13-.48-.34.49.36.92.33,2.82Zm.7-7.7a2.67,2.67,0,0,0,.19-.43l-.2-.16-.26.41Zm-.05,14.14c.06.15.13.23.2.24s.22-.06.45-.11a1.07,1.07,0,0,1-.25-.46A1.52,1.52,0,0,0,532.65,714.85Z"/><path class="cls-1" d="M559.32,712.12l.28-.17c.21-.09.21-.09.11-.38a2.61,2.61,0,0,0-.81-.07c-.53-.1-.88-.81-1-2l-.33-23.86c-.09-1.83.31-2.3,2.13-2.46l4.36-.38c1.75-.08,2.31.38,2.39,2.2a39.1,39.1,0,0,1-.07,4.19l-.85,24.55c0,.3-.09,2.35-.19,6.17l-.27,8.67c-.23,3.17-1.43,4.52-4.63,4.88l-4.51.39c-3,.19-4.79-1.19-5.41-4.06-.53-2.67-1.43-7.94-2-10.67l-2.82-14.56-1.15-5.61-1.1-5.84c-.17-1.16-.76-3.67-.92-4.61s-.26-1.37-.3-1.73a2,2,0,0,1,1.93-2.23l4.88-.42a1.85,1.85,0,0,1,2.28,1.77L553,696.48c.61,3.68,1.06,6.28,1.28,7.94,0,.59.94,2.41-.34,2.82,0,.22,0,.36.11.43a2.73,2.73,0,0,1,.94,1.53,16.2,16.2,0,0,1,.31,1.8l.51,3.4c.06.58,0,.88-.14.89s-.37,0-.39-.26-.35-.62-.56-.53-.25.46-.16.6c.43.77.41,1.43-.06,1.84-.08,0,.1.28.19.49.88.88.83,1.17-.06,1.91s-.7,1.16,0,1.61c.08.07,1-.23,1.08-.16.39.26.6.9.68,1.84-.56,2.76-2,0-2.86,0a4.35,4.35,0,0,0-.42.19l.26.41,1.71,1.17a3.55,3.55,0,0,0,2.08.26.91.91,0,0,1,1.22.63c0,.07.16.13.54.24l0-.43a6,6,0,0,1-1-1.6l-.29-.78c-.11-.5-.14-.8,0-.88.26-.39,1.9-.9,2.16-1.22a1.92,1.92,0,0,0,.54-1.44.86.86,0,0,0-.51-.76,2.82,2.82,0,0,0-1.93-.34c-.5.26-.73.06-.7-.45s1.58-.36,2.2-.78A.87.87,0,0,0,560,716a1.44,1.44,0,0,0-.83-1c-1.17-.85-1.47-1.78-.89-2.63A5.88,5.88,0,0,1,559.32,712.12Zm-5.8-.89-.12.24c-.06.15-.13.23-.12.3.06.73.38,1.07.89,1,.22,0,.27-.32.22-.9S554,711.42,553.52,711.23Zm5.07,4.25a.42.42,0,0,1-.13.23c0,.07,0,.15-.06.15-.38.62-.79.15-.94.16l-.1-.29c0-.36.18-.52.54-.55.07,0,.44,0,.66,0Z"/><path class="cls-1" d="M580.36,679l3.38-.91c2.27-.53,3.65.08,4.61,2.24.49,1,1.14,2.56,2,4.67l10.11,24.34,4.35,10.55c.28.75.48,1.23.58,1.58.54,1.74.17,2.6-1.57,3.14l-2.19.59-2.32.63c-1.41.38-1.88,0-2.47-1.3l-.82-2.2c-.33-1-.51-1.6-.67-1.94-.6-1.95-1.19-2.17-3.18-1.71-3.67,1-4.25,1.07-3.92,2.87.32,2,.65,3.53.83,4.46.26,1.82-.08,2.52-1.83,3.07l-3.38.91c-2.25.6-3.17,0-3.49-2.31-.13-1-.31-2.56-.65-4.67s-.53-3.63-.66-4.66l-3-21.63c-.34-2.64-.94-6.55-1.74-11.78a7.45,7.45,0,0,1-.08-1.42,3.24,3.24,0,0,1,2.59-3.57l.35-.09Zm.08,10.71a.78.78,0,0,1-.41-.11,1,1,0,0,0-.11.41,2.86,2.86,0,0,0,.46,0Zm-.49-3,.93.65c.38.28.63.36.75.26s0-.46-.42-.72a4.53,4.53,0,0,0-1.18-.44C580,686.61,579.93,686.7,580,686.77Zm1.86,4.94-.12.11-.11.18c.15.56.56.38.48.1A2.72,2.72,0,0,0,581.81,691.71Zm1.3,3.43c-.32-.07-.69.26-1,.35l-.08.25c0,.23.42.19,1.2,0,.56-.15,1,2.21,1.1,3l1.22,7.08a6,6,0,0,1,.32,2.86c-.33,1,.39,1.71.58,2.41a1,1,0,0,1,0,.83c-.15.27-.55.76-.49,1s.88-.09,1.2,0c.07,0,.39,0,.46,0a19.4,19.4,0,0,0,1.94-.68c.35-.09.83.84,1.34.78-.32,1.06-.08,1.68.76,2a.35.35,0,0,1,.25.09c.11.12.2.17.25.08.17-1.33,1.9-.51,2.52-.45.22-.06.34-.17.32-.24a.62.62,0,0,0-.26-.38.72.72,0,0,0-.64-.13c-1.71.38-2.47.06-2.85-1.35a.55.55,0,0,0,0-.37l-.14-.26c.88-.92.52-2.26,0-3.26-.89-2.18-1.58-3.89-2-5.21,0-.14-1.09-3.18-3.12-9.06-.17-.33-1.33-1.83-.12-2.39.07,0,0-.16-.13-.49a18.32,18.32,0,0,1-.83-2l-1.09-2.65a3.45,3.45,0,0,0-1.12-1.06l-.19.12a.49.49,0,0,0-.27.15l-.19.13a6.37,6.37,0,0,1-.08,3,2.73,2.73,0,0,0,.3,1.12,15.39,15.39,0,0,1,1.23,4.28A1.05,1.05,0,0,1,583.11,695.14Zm1.35,19.06c-.09-.05-.11-.12-.18-.1s-.17.2-.11.41.4,1,.57,1.28c.27.15.52.24.64.13.56-.45,1.59,0,1.65-.6.22-.58.25-1.05.05-1.22s-.67,0-1,.66c-1.23,1.61-1.19-.21-1.5-.51Zm2.4-20,.61.29c.09.06.21,0,.4-.18.08-.55-.15-.56-.69-.34A.77.77,0,0,0,586.86,694.2Zm1.22,21.37c.33.37.64,1.26,1.14,1.13s.43-.64.64-1a8.64,8.64,0,0,1-1.43-.52C588.13,715.18,588,715.29,588.08,715.57Zm3.07,1-.09.25.7.34c.23,0,.33-.16.2-.36C591.5,716.47,591.25,716.38,591.15,716.56Zm1.38-5c-.22,0-.25.21-.19.43s.2.17.39,0,0-.09.1-.18,0-.16.08-.25A3.14,3.14,0,0,0,592.53,711.58Zm1,.86.36.21.1-.48a.55.55,0,0,0-.22-.24Zm2.59,2c-.44.34-.5.66-.3.84l.18.1.28.23c.55-.23.68-.57.36-.93A.75.75,0,0,0,596.1,714.47Z"/><path class="cls-1" d="M609.49,699.2c-.29-.59-1.6-3.28-3.88-8.09s-4.56-9.48-6.77-13.84c-1.16-2.36-.66-3.82,1.7-5l9.05-4.43a16,16,0,0,1,3.93-1.27,7.43,7.43,0,0,1,7.32,2.51,20.1,20.1,0,0,1,3.07,4.27c.07,0,1.38,2.65,4.05,8.09l3.91,8.17c.26.52,1.1,1.25.41,2-.07,0,.13.43.22.46,1.3,1.32,2.78,4.17,4.47,8.62a8.74,8.74,0,0,1,0,6.5,9,9,0,0,1-4.28,5.19l-10.49,5.14c-2,1-3.47.39-4.46-1.64l-3.7-7.54c-.51-1.05-1.83-3.57-2.34-4.62Zm14.78,9.43c.1.36-.43.78-1.55,1.33-.45.22-1,1.29-.47,1.69.59.2,1-1.46,1.68-1.39a3.61,3.61,0,0,0,2.91-1,.78.78,0,0,0-.05-1.11c-.49-.33-.46-.43,0-.59a2.88,2.88,0,0,0,1.54-1.32c.5-1,1.18-.91,2,.24.26.36.55.46.88.3a.69.69,0,0,0,.3-.71.82.82,0,0,0-.55-.63l-1.14-.17-.29-.1c-.13-.26-1.06-2-1.32-2.53a6.74,6.74,0,0,1-.5-2.68.34.34,0,0,0-.26-.36c-.49-.17-.91-.69-1.39-1.68l-2.86-5.83c-2.85-5.84-5-10.23-6.38-13.21-.77-1.58-.9-2.82-.33-3.66.16-.16,1.15-1,1.28-1.36.37-1.24.21-1.57-1-1.87-.68-.24-1-.24-1.14,0a.62.62,0,0,0,0,.75c.36.72.87,1.28.41,2-.1.3-.13.4-.2.43-1.08.61-1.34.57-1.72-.87a.79.79,0,0,0-.59-.36,5.36,5.36,0,0,1-1,.58c-.49.16-.66,0-.88-.46s-.32-.33.17-.82c.13-.06.55,0,.62-.22s-.09-.53-.65-.5a3.58,3.58,0,0,0-1.34.74c-.33.32-.47,1.37-.8,1.37s-1.59-.44-1.82-.41-.43,0-.59-.2-.15-.82-.42-.69-.33.16-.36.26c-.13.39-.1.94.55,1-.1.62-.6.94-1.54.83-.33.16-.49.33-.46.39a4,4,0,0,1,.56,2.65,15.44,15.44,0,0,1-.86,1.73c-.17.16.19.71.42.68s.42-.12.62-.55a8,8,0,0,0,.24-1.5c0-.42.37-.58.95-.38-.3.72-.17,1.14.45,1.41.1,0,.16,0,.29-.06-.16-.33-.9-1-.44-1.25l.52-.26c1.11-.21,1.63.83,2.26,2.8.29.75,1.46,2,1.71,2.49s1,2,1.86,4a37.8,37.8,0,0,0,2,3.84l2.76,5.64c1.61,3.27,2.83,5.76,3.57,7.44.38.78,1.45,2.29.3,2.61a3.23,3.23,0,0,1-2-.15c-1.47-.17-2.18-.64-2.14-1.39a1.43,1.43,0,0,0,0-1.79c-.13-.26.66-.49.5-.81s-.13-.27-.49-.17c-.1,0-.1,0-.16,0-.56.19-1.06,1.16-1.52,1.39a.9.9,0,0,0-.47,1.2c.17.33-.07.69.16,1.15a6.79,6.79,0,0,1,.82-1c0-.1.23-.2.56-.36.36.4-.34,1.63-.34,2.12,0,.1,0,.23.16.49.16-.16.23-.36.42-.45l.3-.39.26.52a2.13,2.13,0,0,1-.14.72c-.24,1-.2,1.08.74,1a3.11,3.11,0,0,0,.72,0l-.1.13-.1.13c-.29.39-1.15,1-1,1.36s.39.3,1.07.21c.53-.91.7-1.56.48-2a1.44,1.44,0,0,1-.16-.49c-.23-.63-.06-.79.43-.62s.35.72.48,1,.22.3.61.43c.1,0,.27-.13.4-.52a2.27,2.27,0,0,1,.76-1.26C623.24,707,624.18,707.78,624.27,708.63Zm-19.14-26.47.65.49c.32.17.88-.35.46-.71C605.43,681.44,605,681.83,605.13,682.16Zm2.84,3.32c.59-.29.63-.55.11-.79s-.32-.33.13-.55.6-.45.53-.75a1.68,1.68,0,0,0-.51-1.21c-.49-.33-1-.14-1.67.58a12.2,12.2,0,0,0,.14,2.45C606.8,685.89,607.38,685.77,608,685.48Zm.35,1.86-.1.29.13-.06h.16l.1-.29-.13.06Zm2-1c.13-.07.16-.16.13-.23s0-.16-.2-.23l0,.1-.13.23Zm1.5,3.24-.25-.52a9,9,0,0,0-1.11-.93c-.09,0-.16,0-.36.1.2.23.55,1,.78,1.25a9.26,9.26,0,0,0,.64.82.61.61,0,0,0,.33,0,.19.19,0,0,0,.1-.29Zm2.43,10.44c0-.23-.1-.36-.32-.33l-.13.06c-.2.1-.07.52.19.4ZM613.8,672c0,.09-.07.19,0,.26l.29.1c.23,0,.26-.13,0-.43l-.2.1Zm3,29a.4.4,0,0,0-.13.39c.06,0,.1,0,.13.1a.51.51,0,0,0,.32,0,.35.35,0,0,0,.17-.49C617.25,700.93,616.83,700.9,616.79,701Zm1.63-23.23c.36.23.62.27.65.17,1.08.37.92-.12,1-.51s-1-.89-1.53-.15Zm1.51-4.88c-.06,0-.1.13,0,.32l.23.13a1.2,1.2,0,0,0,.55.14c.07,0,0-.1,0-.16a.25.25,0,0,0,0-.23C620.62,673.11,620.16,672.68,619.93,672.88Zm1,10.71.3.1c0-.06.06-.35,0-.42s-.23-.13-.49-.17A1.13,1.13,0,0,0,621,683.59Zm1.17-2.6.13.26a6.63,6.63,0,0,0,.82-.64c0-.1,0-.1.1-.13C622.61,680.18,622.22,680.37,622.12,681Zm2.37,9.49c.06.13.29.1.62-.06s.29-.23.2-.42-.13-.27-.33-.17c0,.1-.16.16-.23.19C624.49,690.15,624.39,690.28,624.49,690.48Zm3.81.33c.2-.26-1-1.16-1.29-1-.49.16-.33.33,0,.75.62.27-.08,1.51,0,2a4.71,4.71,0,0,0,.55.46C627.63,692.76,627.55,691.42,628.3,690.81Zm3.93,7.18c-.1-.36-.13-.59-.23-.62a2.62,2.62,0,0,0-2.88.76c0,.09,0,.22.1.19s2-.63,2.68,0C631.87,698.25,632.26,698.22,632.23,698ZM631,695.17c.26-.29.4-.52.36-.58-.12-.27-.38-.3-.71-.14a2.63,2.63,0,0,0-.82.65,1.15,1.15,0,0,0-.3.55c.13-.07.52.07.65,0A5.11,5.11,0,0,1,631,695.17Zm1.73,7.85c-.09-.36-.48-1.47-.51-1.54a4.56,4.56,0,0,0,.53-.58c.36-.59.17-1.14-.39-.46a6,6,0,0,0-1.29,2c-.23.69.35,1.21,1,.79C632.61,703.57,632.83,703.54,632.74,703Z"/><path class="cls-1" d="M660.13,669.14c.28,1.34,2,2.72,2.76,3.77,0,.06.34.57.88,1.53s1,1.38,1.22,1.37c.48.27,1.17,1.31,2.23,3.07,2.78,4.4,2.35,8.66-1.36,12.84a15.2,15.2,0,0,1-2.05,2,16.63,16.63,0,0,1-4.51,2.5c-3.63,1.37-7.08.69-10.19-2.09a18.53,18.53,0,0,1-2.62-2.86l-16-21.08a31.44,31.44,0,0,1-2.1-3.26c-2-3.45-1.81-6.87.49-10.35a17.59,17.59,0,0,1,3.24-3.46,15.1,15.1,0,0,1,5.35-2.86,8.82,8.82,0,0,1,9.82,2.46c1.28,1.32,3.48,4.23,4.58,5.69,1.87,2.34,4.51,5.83,8.08,10.55Zm-28.32-6.58-.72-.1c-.06,0,0,.31.11.75a1,1,0,0,0,.56,0l0-.3Zm.76-1.4c0,.42.34.57.87.53l.14-.29c-.51-.07-.74-.26-.8-.58C632.59,660.69,632.51,660.84,632.57,661.16Zm.7,5.15a3.09,3.09,0,0,0,1.17.21c.19.13.38-.1.51-.29a.6.6,0,0,0-.56-.5c-.31,0-.91.14-1.27.14Zm.1,1.11c.08.22.15.43.25.45s.21,0,.27,0l.05-.41Zm30.51,15.27c.07-.51,0-.83-.24-.92a1,1,0,0,0-.56,1.43,2.05,2.05,0,0,1-.5,1.39c-.29.22-.5.2-.5-.17.11-1.55-.84-1.47-1.12-1.35-.68.42-1.46,0-2.34-1.16l-4.14-5.47c-2.77-3.67-4.84-6.41-6.27-8.17-.57-.75-1.48-2.08-2.79-3.93S643,661,642.16,660a1,1,0,0,1-.24-.92c0-.1.29-.22.83-.36a1.46,1.46,0,0,0,1.75-1.32l.1-.71a2.2,2.2,0,0,1-.89-1.9c-.08-.48-.33-.57-.62-.35s-.24.18-.19.24a1.14,1.14,0,0,0,0,.73c.72,1.56-1.15,1.51-1.62,2.33-.14.19-.19.23-.28.11a.67.67,0,0,1-.16-.33c-.08-.22-.15-.44-.25-.45a1.71,1.71,0,0,0-.63,0,1.24,1.24,0,0,1-1.19-.48.37.37,0,0,0-.45-.12l-1.68.45c-.54.13-.48.82-.14,1.39.18.23-.17,1.22-.62,1.11a1.89,1.89,0,0,0-1.63.14.55.55,0,0,0-.16.76,1.53,1.53,0,0,0,.7.2c.1,0,.5-.19.63,0,.31.41.41.79.16,1.07a11.29,11.29,0,0,0-1.55,1.45c-.13.19,0,.47.2.76.09.11.27,0,.53-.4,1-1,1.6-.3,2.22.52l2.42,3.2,5.29,7c.22.3,1,.82.34,1.3-.44.51-.38.84.22,1,1.36,0,2.76,2.31,3.45,3l2.2,2.91c.71.93,1.9,2.87,2.56,3.74a4.47,4.47,0,0,1,1.16,2.51c0,.83.49,1,1.46.72a5.34,5.34,0,0,0,.67-.32c.49-.09.57,0,.41.42,0,.1.18.6.29.61.43.22,1,1,1.41.67s-.34-1.66.23-2.37c.23-.17.61.45.82.48s.79,0,.89,0c.6.18,1,0,1.06-.53.16-.76,0-1.2-.44-1.31s-.63-.35-.66-.88.34-.63,1.06-.53,1.33.19,1.56-.72A13.62,13.62,0,0,0,663.88,682.69Zm-27.8-17.5c0,.1,0,.1,0,.16l.61.08.22-.44a.87.87,0,0,0-1-.18C636,664.91,636.05,665,636.08,665.19Zm1.16,7.45.48-.09c.29-.22.36-.36.27-.48s-.17-.23-.61-.45Zm5.67,6.05c-.77-.42-1.75-1.23-1.51-1.88l.14-.65c-1.36-.35-.6-1.28-.78-2.25-.84.46-1.62,1.13-1.22,1.66a23.47,23.47,0,0,1,1.4,2.33C641.38,678.48,641.67,679.35,642.91,678.69Zm-1.79-23.54c-.1,0-.22.07-.38.1l-.16,0a1.08,1.08,0,0,0-.17.5,1.92,1.92,0,0,0,.53-.13Zm1.37,3.26a2.49,2.49,0,0,1,.2-.7c.64-.48.85-.45.5.54C643,658.38,642.55,658.37,642.49,658.41Zm4.16.79a3.38,3.38,0,0,0,.56-.24c.23-.17-.14-.54-.24-.55a4.41,4.41,0,0,0-1.31-.29c-.16,0-.35.27-.66.59-.17.13-.35.26-.36.37Q646.05,659.67,646.65,659.2Zm2.47,2.53c-.08-.22-.11-.38-.15-.44l-.26,0,.09.48Zm1.3,4.5-.09-.48c-.39-.52-.74-.26-.35.27Zm.11,22.17c0,.2,2.21,1,2.25.67A1.27,1.27,0,0,0,653,688c-.17-.6-1.43-.93-2.12-.5A5.86,5.86,0,0,0,650.53,688.4Zm3.26-20.5c.17.23.32.3.38.26.23-.18.3-.32.22-.44s-.16-1.9-.88-2.72c-.39-.53-.77-.79-1.2-.74-.76.2-1.14.31-1.15.41.08.58.88.43,2.14,1.86Zm-.39,22.35h-.1a5.78,5.78,0,0,0-.73.37.27.27,0,0,0,.19.13l.29.14a8.49,8.49,0,0,0,.85-.45A1.27,1.27,0,0,0,653.4,690.25Zm1.54,1.31a.49.49,0,0,0-.83,0c-.13-.17-.19.24-.06.41s.32.31.7.2C655,692.09,655,691.88,654.94,691.56Zm.19-22.85c-.17.13-.2.7-.24,1l1.24-.3c.58-.44.74-.83.43-1.24C656.39,668,655.38,668.43,655.13,668.71Zm3.48,3.51c.15.07.25.08.31,0s.13-.19.26-.38a1.27,1.27,0,0,1-.5-.18A1.46,1.46,0,0,0,658.61,672.22Zm.57,4.5c-.08-.11-.19-.13-.24-.08l-.18.13c0,.06.15.07.34.2.06,0,.06,0,0-.1Zm.33,8.54-.35-.1a.39.39,0,0,1,.06-.41c0,.06.14.08.31,0C659.7,685,659.73,685.19,659.51,685.26Zm1.4-10.12.25-1c-.41-.06-.62-.08-.67,0a3.91,3.91,0,0,0-.5.92Z"/><path class="cls-1" d="M671.56,663.11a13.91,13.91,0,0,1-1.38,1.32,1.8,1.8,0,0,1-2.53.08,33.8,33.8,0,0,1-2.77-2.7s-.21-.3-.53-.81a1.5,1.5,0,0,1,0-1.4c.51-.73.76-1.09.82-1.14l6.36-6.55.15-.15c1.33-1.06,2.1-1.12,3.36.1L677,653.7c1.47,1.52,1.53,2.3,0,3.82Zm-1-4.57c.16.15.26,0,.36-.16s0-.37,0-.36-.26,0-.52,0C670.35,658.07,670.46,658.48,670.51,658.54Zm1.41-2.4c-.3.42-.35.68-.29.73a.44.44,0,0,0,.46.15c.67-.17.93-.43.82-.74,0-.1-.11-.2-.26-.25C672.44,655.82,672.18,655.88,671.92,656.14Z"/></svg>